<svg width="140" height="189" viewBox="0 0 140 189" fill="none" xmlns="http://www.w3.org/2000/svg">
<path d="M110.64 172.356C117.117 166.786 126.942 150.983 129.522 138.821C132.102 126.659 126.209 121.079 122.779 121.106C119.349 121.134 115.655 127.624 112.312 132.974C112.312 132.974 114.335 135.517 115.478 136.921C115.478 136.921 111.087 129.729 101.936 130.956C92.7848 132.184 88.3867 139.201 88.3867 153.323C88.3867 167.444 104.164 177.927 110.64 172.356Z" fill="white"/>
<path d="M109.874 171.471C118.237 163.622 128.222 146.291 129.257 134.815C129.579 131.003 129.037 126.831 126.485 123.834C125.485 122.685 123.797 121.435 122.196 121.802C119.575 122.492 116.741 126.94 115.231 129.173C114.361 130.497 113.515 131.844 112.652 133.185C112.652 133.185 112.624 132.721 112.627 132.724L115.789 136.667L115.133 137.129C115.036 136.98 114.914 136.811 114.796 136.656C111.959 132.97 107.389 130.919 102.742 131.429C100.389 131.674 98.0279 132.355 96.0551 133.678C91.2735 136.862 89.8576 142.926 89.3994 148.323C89.1858 151.486 89.0056 154.755 89.8507 157.847C91.0565 162.412 93.9388 166.504 97.6777 169.378C100.082 171.203 103.048 172.704 106.065 172.752C107.438 172.77 108.836 172.387 109.873 171.471H109.874ZM111.406 173.241C109.93 174.501 107.947 175.062 106.031 174.996C104.211 174.951 102.469 174.446 100.833 173.723C94.5646 170.817 89.7933 164.958 88.1202 158.282C87.2831 154.972 87.5116 151.546 87.809 148.178C88.3648 142.791 89.8611 136.904 94.2993 133.368C96.6695 131.487 99.6563 130.556 102.646 130.317C107.629 129.875 112.508 132.161 115.453 136.169C115.58 136.344 115.698 136.512 115.821 136.712C115.938 136.9 115.88 137.147 115.691 137.264C115.517 137.371 115.291 137.33 115.166 137.173L111.996 133.224C111.887 133.092 111.879 132.911 111.963 132.774C112.788 131.412 113.599 130.037 114.443 128.675C116.092 126.093 118.421 122.201 121.232 120.854C121.598 120.701 122.011 120.558 122.409 120.512L122.591 120.497L122.773 120.484C123.463 120.477 124.145 120.648 124.776 120.914C125.875 121.391 126.822 122.157 127.617 123.041C129.328 124.989 130.277 127.478 130.701 130.003C132.106 139.205 127.292 149.721 123.017 157.69C119.822 163.33 116.316 168.9 111.407 173.242L111.406 173.241Z" fill="black"/>
<path d="M129.686 131.52C129.686 131.52 125.769 131.337 123.228 139.367C120.687 147.398 125.024 150.229 125.024 150.229C125.024 150.229 129.079 143.984 129.686 131.52Z" fill="#F2F2F2" stroke="black" stroke-width="0.80158" stroke-linecap="round" stroke-linejoin="round"/>
<path d="M121.708 121.313C121.708 121.313 127.028 123.326 125.652 130.635" stroke="black" stroke-width="0.80158" stroke-linecap="round" stroke-linejoin="round"/>
<path d="M70.3338 117.773C71.7187 113.845 74.9122 110.82 78.8796 109.523C84.0896 107.82 95.7485 103.523 105.011 96.5617C117.324 87.308 112.839 72.7159 116.622 71.9257C119.908 71.2398 123.541 77.8906 122.72 83.1524C122.72 83.1524 130.343 80.4626 134.682 84.5563C139.022 88.649 133.393 106.192 120.023 106.543C120.023 106.543 101.024 130.517 82.026 129.698C70.1524 129.186 68.4574 123.101 70.3349 117.772L70.3338 117.773Z" fill="white"/>
<path d="M69.6677 117.539C70.9022 114.061 73.5789 111.153 76.9205 109.585C77.4786 109.31 78.0907 109.085 78.6786 108.882C84.7245 106.899 90.6407 104.448 96.233 101.414C98.5021 100.192 100.777 98.7947 102.901 97.3404L103.957 96.5801C105.711 95.3536 107.306 93.9085 108.641 92.2412C112.709 87.2027 113.475 81.5482 114.269 75.3554C114.599 73.3171 115.09 70.7921 117.819 71.3967C119.724 71.904 120.966 73.6411 121.837 75.2706C123.079 77.7189 123.679 80.4855 123.288 83.2418L122.528 82.6143C124.324 82.0337 126.185 81.7302 128.074 81.7153C130.459 81.7039 132.951 82.2948 134.789 83.8899C135.177 84.2128 135.545 84.6102 135.795 85.0522C136.778 86.7573 136.803 88.8208 136.582 90.7079C135.946 95.3239 133.649 99.6959 130.246 102.879C127.497 105.45 123.82 107.046 120.038 107.117L120.473 106.9C113.116 116.105 102.292 125.909 90.86 129.437C87.624 130.425 84.1906 130.861 80.8088 130.53C79.7546 130.428 78.666 130.292 77.6313 130.06C71.0262 128.691 67.3079 124.302 69.6689 117.54L69.6677 117.539ZM70.9998 118.006C69.2566 123.089 71.4304 126.64 76.537 128.027C77.0675 128.185 77.6761 128.296 78.2216 128.406C80.9201 128.848 83.7002 128.946 86.4137 128.515C93.1119 127.464 99.1877 124.055 104.608 120.113C110.098 116.066 115.108 111.341 119.57 106.188C119.678 106.05 119.844 105.975 120.007 105.97C121.753 105.921 123.486 105.56 125.092 104.88C129.986 102.8 133.42 98.1271 134.901 93.1298C135.603 90.724 136.204 86.5099 134.038 84.7568C132.416 83.3483 130.19 82.8501 128.073 82.8582C126.762 82.8627 125.439 83.0379 124.16 83.3414C123.749 83.4376 123.301 83.5613 122.909 83.6918C122.608 83.796 122.278 83.6368 122.175 83.3357C122.144 83.2464 122.137 83.1513 122.15 83.0643C122.507 80.6195 121.944 78.0017 120.815 75.7951C120.1 74.4381 118.895 72.6964 117.298 72.464C116.93 72.4285 116.543 72.4548 116.28 72.756C115.923 73.1762 115.779 73.7236 115.634 74.2893C115.537 74.6923 115.463 75.1103 115.396 75.534C115.012 78.1346 114.764 80.7638 114.124 83.3414C112.826 89.0681 109.544 94.212 104.665 97.5511C104.136 97.9473 103.045 98.71 102.49 99.0707C97.7293 102.259 92.5676 104.858 87.2956 107.084C84.5546 108.232 81.7664 109.269 78.9473 110.212C78.3651 110.412 77.7703 110.662 77.2225 110.943C74.3483 112.395 72.0551 114.971 70.9963 118.006H70.9998Z" fill="black"/>
<path d="M122.602 89.1094C122.602 89.1094 125.152 96.311 117.5 99.4681" stroke="black" stroke-width="1.14511" stroke-linecap="round" stroke-linejoin="round"/>
<path d="M133.044 97.0988C136.355 96.895 138.466 97.1756 138.6 99.3272C138.733 101.479 136.051 104.062 132.742 104.266C129.431 104.47 126.392 102.19 126.748 99.9857C127.104 97.7813 129.734 97.3027 133.044 97.0988Z" fill="white" stroke="black" stroke-width="1.14511" stroke-linecap="round" stroke-linejoin="round"/>
<path d="M132.503 90.3529C136.016 89.4734 138.34 89.3543 138.914 91.6377C139.488 93.9211 137.128 97.2293 133.616 98.1087C130.103 98.9882 126.382 97.1468 126.322 94.7089C126.261 92.271 128.989 91.2323 132.502 90.354L132.503 90.3529Z" fill="white" stroke="black" stroke-width="1.14511" stroke-linecap="round" stroke-linejoin="round"/>
<path d="M132.622 85.4884C129.111 85.3178 126.266 87.134 126.321 89.3521C126.377 91.5701 129.03 93.2729 133.333 92.2755C137.636 91.2781 138.978 88.7337 138.455 86.6565C138.455 86.6565 137.98 77.4818 123.423 80.7557L122.69 83.4742" fill="white"/>
<path d="M132.622 85.4884C129.111 85.3178 126.266 87.134 126.321 89.3521C126.377 91.5701 129.03 93.2729 133.333 92.2755C137.636 91.2781 138.978 88.7337 138.455 86.6565C138.455 86.6565 137.98 77.4818 123.423 80.7557L122.69 83.4742" stroke="black" stroke-width="1.14511" stroke-linecap="round" stroke-linejoin="round"/>
<path d="M78.3891 117.537C82.1418 133.91 95.746 127.828 104.659 142.563C113.573 157.299 101.099 185.465 84.4293 184.898C68.0542 184.342 54.1721 184.351 37.8119 164.316C21.4517 144.28 16.2338 104.673 39.6883 102.801C63.1439 100.93 74.6364 101.164 78.3891 117.537Z" fill="white"/>
<path d="M79.4202 117.301C80.82 123.302 83.0202 126.535 88.4839 129.514C90.8874 130.865 93.4642 131.922 95.8883 133.269C100.244 135.647 103.964 139.247 106.367 143.597C108.086 146.791 108.88 150.444 108.971 154.032C109.213 166.1 102.121 181.494 90.0629 185.652C88.2657 186.248 86.3366 186.536 84.4315 186.478C83.8206 186.471 81.9683 186.389 81.3207 186.376C74.3033 186.15 67.163 185.678 60.4648 183.312C52.0109 180.421 44.8936 174.607 39.1152 167.952C37.4892 166.11 35.9504 164.161 34.7722 161.999C33.8203 160.309 32.7569 158.149 31.852 156.423C30.2341 153.356 28.8469 150.174 27.6607 146.918C23.738 135.983 20.8511 121.135 26.5881 110.411C29.0674 105.881 33.4011 102.945 38.5307 102.264C38.7983 102.227 39.3242 102.164 39.5929 102.14C41.3085 101.993 43.0436 101.828 44.7592 101.7C51.6939 101.23 58.7929 100.61 65.6484 102.154C73.728 104.032 77.6392 109.545 79.4202 117.301ZM77.3578 117.77C76.5046 113.965 75.0233 110.121 72.0824 107.46C67.0987 102.995 59.483 102.859 53.0926 102.83C48.4706 102.879 43.8199 103.171 39.2025 103.509C38.3837 103.598 37.5397 103.718 36.7428 103.918C29.6691 105.563 25.9956 111.768 24.8025 118.515C22.7011 130.976 26.5009 145.086 32.7994 155.895C33.8409 157.658 35.111 159.278 36.4534 160.82C37.6775 162.244 39.2656 163.943 40.4851 165.383C45.7755 171.408 52.0752 176.764 59.6013 179.719C67.4776 182.888 76.1314 183.036 84.5279 183.318C89.9986 183.509 94.8927 180.109 98.2963 175.987C105.093 167.677 108.647 154.684 104.55 144.472C103.751 142.653 102.678 140.947 101.452 139.382C98.9693 136.18 95.468 133.864 91.7831 132.177C89.2556 130.994 86.603 130.062 84.2661 128.453C80.6294 126.028 78.2466 121.992 77.359 117.77H77.3578Z" fill="black"/>
<path d="M32.0061 108.59C32.0061 108.59 24.4708 101.456 16.5554 107.421C8.63888 113.386 10.3694 144.376 11.6004 152.972C12.8314 161.567 15.5805 167.532 10.2477 170.689C4.91601 173.847 -0.625796 177.18 0.869321 183.407C1.53535 186.183 8.13476 186.276 13.7994 186.126C20.8444 185.94 27.2601 184.903 28.5761 182.617C30.9508 178.495 37.8993 154.023 39.3944 139.814" fill="white"/>
<path d="M31.7306 108.881C28.3385 106.452 23.7555 104.97 19.7525 106.646C18.9819 106.954 18.247 107.362 17.5511 107.84C16.8702 108.285 16.2983 108.824 15.8171 109.49C9.38768 118.694 10.8656 145.711 13.2713 156.742C13.6376 158.531 14.0235 160.302 14.2853 162.128C14.8457 165.818 14.4839 169.502 10.8713 171.524C10.4924 171.742 10.0491 171.974 9.67591 172.183C5.36511 174.518 0.070187 177.41 1.45966 183.174C2.10387 186.021 11.488 185.391 13.9282 185.316C17.4478 185.135 21.0822 184.821 24.4422 183.841C25.5584 183.485 26.732 183.082 27.4761 182.272C27.5438 182.194 27.5863 182.119 27.6322 182.034C27.7482 181.811 27.8516 181.596 27.9549 181.354C29.3031 178.081 30.2596 174.612 31.2495 171.205C33.1947 164.41 34.8816 157.184 36.5237 150.29C37.1404 147.676 38.3943 142.394 38.9938 139.775C39.0822 139.351 39.7654 139.349 39.793 139.858C39.8251 147.157 38.3484 154.362 36.6179 161.421C35.2973 166.715 33.816 171.963 32.0292 177.124C31.4079 178.877 30.8085 180.586 30.0012 182.29C29.7647 182.772 29.504 183.311 29.1343 183.713C26.4345 186.654 17.8784 186.849 13.9741 186.93C12.1448 186.944 10.3178 186.942 8.48625 186.844C6.61219 186.725 4.75764 186.575 2.94214 185.963C1.83861 185.589 0.606454 184.872 0.283775 183.648C0.194206 183.29 0.127603 182.93 0.0793736 182.563C-0.709525 176.961 4.54406 173.224 8.65391 170.487C8.96855 170.273 9.46462 169.969 9.79075 169.754C10.4361 169.337 11.0045 168.829 11.4306 168.209C12.5639 166.53 12.3906 164.377 12.1666 162.405C11.8164 159.738 11.2239 157.112 10.8346 154.417C9.87343 147.201 9.7896 139.894 9.86768 132.626C10.0905 125.715 10.3305 112.255 15.3268 107.275C16.4005 106.263 17.7004 105.497 19.0669 104.941C21.7907 103.825 24.9567 103.941 27.6391 105.1C28.9597 105.654 30.1689 106.404 31.2552 107.318C31.6204 107.634 31.9568 107.933 32.283 108.299C32.6079 108.675 32.1027 109.177 31.7295 108.881H31.7306Z" fill="black"/>
<path d="M7.64229 177.443C7.64229 177.443 4.91847 180.463 6.67426 186.005" stroke="black" stroke-width="0.80158" stroke-linecap="round" stroke-linejoin="round"/>
<path d="M67.8741 151.295C67.8741 151.295 78.155 139.678 92.7858 145.603C104.589 150.384 106.272 165.085 112.136 166.723C118 168.36 132.102 164.36 137.38 172.179C141.425 178.173 127.233 188.441 106.886 187.593C90.4869 186.909 64.2592 188.522 48.4272 173.495" fill="white"/>
<path d="M67.5721 151.03C70.219 148.161 73.5675 145.969 77.2295 144.598C82.7828 142.487 89.1572 142.937 94.4797 145.525C100.836 148.554 104.375 154.92 107.712 160.755C108.636 162.274 109.62 163.915 110.96 165.03C111.6 165.57 112.309 165.838 113.116 165.968C114.42 166.204 115.867 166.263 117.23 166.304C119.622 166.375 122 166.364 124.419 166.438C127.36 166.527 130.352 166.77 133.113 167.895C134.994 168.664 136.743 169.917 137.924 171.598C138.61 172.502 138.959 173.67 138.868 174.798C138.699 176.942 137.327 178.782 135.857 180.223C130.078 185.539 121.848 187.801 114.206 188.635C110.355 189.067 106.468 188.843 102.605 188.759C95.0067 188.609 87.1212 188.489 79.5871 187.459C68.1681 185.952 56.3105 182.277 48.1482 173.786C47.8233 173.414 48.2746 172.886 48.7029 173.205C60.3572 183.272 76.3695 185.216 91.2288 185.836C95.667 186.033 101.091 186.083 105.547 186.256C108.349 186.403 111.195 186.454 113.991 186.224C121.217 185.584 129.038 183.751 134.631 178.93C136.303 177.416 138.117 174.968 136.813 172.75C134.805 169.48 130.828 168.327 127.197 167.965C124.359 167.654 121.545 167.813 118.682 167.972C116.695 168.061 114.777 168.176 112.777 167.843C112.236 167.745 111.691 167.619 111.184 167.39C110.653 167.153 110.18 166.837 109.759 166.49C108.921 165.792 108.278 164.983 107.699 164.17C106.574 162.562 105.668 160.867 104.711 159.183C102.032 154.348 98.8525 149.46 93.7872 146.902C86.8341 143.412 79.1174 143.955 72.5662 148.09C70.9907 149.085 69.4784 150.226 68.1773 151.56C67.8443 151.935 67.2288 151.46 67.5744 151.03H67.5721Z" fill="black"/>
<path d="M125.878 175.162C125.878 175.162 133.492 172.293 137.59 176.622" stroke="black" stroke-width="0.80158" stroke-linecap="round" stroke-linejoin="round"/>
<path d="M125.241 170.513C125.241 170.513 130.291 168.306 136.122 170.681" stroke="black" stroke-width="0.80158" stroke-linecap="round" stroke-linejoin="round"/>
<path d="M87.4851 98.654C88.1724 85.2261 73.299 73.5508 54.2644 72.5765C35.2298 71.6023 19.242 81.698 18.5547 95.126C17.8675 108.554 32.7409 120.229 51.7755 121.203C70.8101 122.178 86.7979 112.082 87.4851 98.654Z" fill="#FF5100" stroke="black" stroke-width="1.14511" stroke-linecap="round" stroke-linejoin="round"/>
<path d="M66.179 129.779C65.9814 127.371 64.0775 125.496 61.6523 125.325C61.426 125.309 61.1941 125.307 60.9656 125.321C60.6704 125.34 60.3834 125.383 60.1066 125.447C59.6542 125.554 59.3212 125.941 59.289 126.403L59.1707 128.059C59.7564 127.515 60.5556 127.21 61.4306 127.271C62.2459 127.329 62.9855 127.693 63.5079 128.294C64.0339 128.899 64.2888 129.686 64.2302 130.507C64.1097 132.199 62.6881 133.432 61 133.316C60.1904 133.259 59.4578 132.893 58.9388 132.288C58.4197 131.683 58.1637 130.901 58.2222 130.085L58.8584 122.161C58.894 121.656 58.5127 121.216 58.0063 121.181L56.9499 121.106L56.3103 129.081C56.3103 129.081 56.2793 129.87 56.324 130.372C56.3941 131.161 56.4469 131.633 56.7512 132.357C57.059 133.089 57.9455 134.003 57.9455 134.003C58.7596 134.75 59.8126 135.205 60.9506 135.285C61.9221 135.354 62.8718 135.137 63.6986 134.655C65.5026 133.605 66.3638 131.918 66.187 129.78H66.1778L66.179 129.779Z" fill="black"/>
<path d="M45.4508 128.295C45.9882 125.939 48.1391 124.353 50.5632 124.524C50.7882 124.54 51.0191 124.571 51.243 124.618C51.5324 124.678 51.8102 124.761 52.0755 124.864C52.5084 125.034 52.7829 125.464 52.7496 125.927L52.6313 127.582C52.1283 126.96 51.3808 126.545 50.5058 126.482C49.6904 126.425 48.9073 126.681 48.3044 127.202C47.6981 127.726 47.3341 128.47 47.2755 129.29C47.1549 130.982 48.3871 132.404 50.0751 132.526C50.8847 132.584 51.6621 132.325 52.2615 131.799C52.861 131.274 53.225 130.536 53.2835 129.719L53.6246 124.927L54.5421 124.993C55.1255 125.034 55.5641 125.539 55.5228 126.122L54.6765 137.997L53.7555 137.931C53.1722 137.89 52.7335 137.385 52.7748 136.802L53.0011 133.636C52.0893 134.26 50.9812 134.561 49.8443 134.481C48.8728 134.412 47.9634 134.064 47.2135 133.47C45.576 132.176 44.9628 130.385 45.4416 128.293H45.4508V128.295Z" fill="black"/>
<path d="M65.2202 15.8094C78.256 12.863 89.5727 11.3663 90.852 12.8378C92.1312 14.3093 84.3456 27.249 85.3584 37.1188C86.1496 44.8254 58.7035 29.6149 57.6643 20.723C57.3818 18.3034 60.8612 16.7942 65.2202 15.8094Z" fill="white"/>
<path d="M65.1215 15.3777C68.7043 14.6288 89.8311 9.83417 91.2287 12.9099C91.3665 13.3462 91.2723 13.7848 91.1999 14.1959C91.0932 14.7124 90.945 15.2036 90.7911 15.6926C89.3316 19.9925 87.6275 24.2248 86.656 28.6587C86.0359 31.4574 85.6547 34.2995 85.9601 37.1429C86.1634 39.8007 83.6509 40.0961 81.6068 39.7136C74.1496 38.2868 61.4607 30.0683 57.9491 23.2801C57.3588 22.056 56.7537 20.4906 57.453 19.1886C58.7173 16.8835 62.7284 15.9388 65.1227 15.3777H65.1215ZM65.3179 16.2399C63.2888 16.7392 58.5543 17.8878 58.1765 20.2078C58.142 20.4036 58.1696 20.6177 58.1994 20.8135C58.3165 21.5063 58.5761 22.1579 58.9091 22.7866C62.1393 28.8717 75.0625 37.1566 81.8239 38.4781C82.8126 38.6384 84.72 38.9098 84.7705 37.5356C84.7912 37.373 84.7464 37.0318 84.736 36.86C84.7154 36.5989 84.7016 36.3378 84.6935 36.0768C84.5672 31.4367 85.9406 26.9021 87.4909 22.585C88.3441 20.2032 89.3443 17.874 90.1722 15.4876C90.3318 15.0147 90.4845 14.5383 90.5913 14.0654C90.6602 13.7413 90.7314 13.4012 90.6602 13.1C90.5018 12.7473 89.598 12.6706 89.2237 12.6397C88.235 12.5756 87.2302 12.6534 86.238 12.7118C84.2285 12.8378 82.2212 13.0932 80.2254 13.3817C75.2176 14.11 70.2488 15.1017 65.3179 16.2365V16.2399Z" fill="black"/>
<path d="M60.8635 26.412C72.7533 24.7127 85.1368 17.9038 85.1368 17.9038" stroke="black" stroke-width="0.80158" stroke-linecap="round" stroke-linejoin="round"/>
<path d="M14.1886 39.022C14.1886 39.022 20.261 22.972 34.2372 11.9309C45.3496 3.15127 52.9147 0.806075 54.4856 1.37978C56.0565 1.95348 57.4632 13.6577 55.6179 24.8512C53.7725 36.0447 45.1578 37.389 34.9113 40.4683C24.8462 43.4925 14.1875 39.022 14.1875 39.022H14.1886Z" fill="white"/>
<path d="M13.9912 39.1067C13.9556 38.9018 14.0096 38.9166 13.9912 38.9121L13.9947 38.8789L14.0027 38.8124C14.1807 37.4864 14.694 36.2291 15.2831 35.0393C20.7468 23.8343 28.8057 14.449 39.2911 7.639C43.2769 5.02241 47.4442 2.47224 52.0788 1.17025C52.8585 0.990463 54.2882 0.638913 54.9266 1.18628C55.7087 1.94663 55.9992 3.69751 56.2231 4.73155C57.3554 11.4683 57.2692 18.3836 56.1772 25.1215C55.7018 27.8674 54.6809 30.5985 52.8574 32.7582C48.6178 37.7887 41.2696 39.0002 35.2754 40.8267C28.4911 42.8272 21.1234 41.8527 14.586 39.4148L14.3472 39.3197L14.2278 39.2705C14.1428 39.2373 14.0348 39.1926 13.9924 39.1067H13.9912ZM14.3874 38.9373C14.3805 38.8972 14.3437 38.8525 14.307 38.8376C14.3036 38.8353 14.3231 38.8434 14.3288 38.8456C14.408 38.88 14.6503 38.9636 14.7411 38.9979C20.888 41.0821 27.7137 41.9317 34.0536 40.2541C34.6002 40.1053 35.4407 39.8396 35.9919 39.6736C39.1923 38.6945 42.5225 37.815 45.5942 36.5062C49.3022 34.9568 52.4577 32.5143 53.9552 28.6999C54.9622 26.2482 55.2344 23.5572 55.541 20.9361C55.9636 16.9316 56.1106 12.8871 55.8579 8.86656C55.7167 6.87749 55.5215 4.8598 54.9531 2.95319C54.8084 2.52721 54.6648 2.04397 54.3536 1.75998C54.2905 1.73708 54.2239 1.72105 54.14 1.71303C53.5452 1.66494 52.8757 1.80464 52.2775 1.95579C51.6401 2.11955 51.0074 2.33025 50.3827 2.56385C44.1209 5.0373 38.5527 9.04863 33.3807 13.2959C25.6697 19.8413 19.9062 28.3564 15.4944 37.3799C15.1636 37.9582 14.8134 38.5376 14.4103 39.0701C14.3839 39.085 14.4299 39.1193 14.3874 38.9338V38.9373Z" fill="black"/>
<path d="M18.426 39.969C22.2396 40.9435 28.1971 42.2008 34.1018 40.2747C42.7039 37.4715 46.5967 37.1944 52.0776 32.0906C52.0776 32.0906 53.7944 21.7548 53.0055 16.1277C52.382 11.6686 50.7869 8.23442 49.9257 7.84967C49.0644 7.46491 43.5674 9.32801 36.9714 14.7868C30.0964 20.4757 22.8528 30.1405 18.7556 39.2006C18.5776 39.5922 18.5535 39.6083 18.426 39.9701V39.969Z" fill="white" stroke="black" stroke-width="0.80158" stroke-linecap="round" stroke-linejoin="round"/>
<path d="M54.8878 115.694C51.762 115.694 48.6007 115.405 45.4922 114.835C32.3806 112.433 21.0111 105.286 13.4792 94.7101C5.89453 84.0605 3.03291 71.0554 5.42028 58.0927C5.70621 56.5388 6.09319 54.9952 6.5686 53.5054C9.30161 44.9193 15.0249 37.3833 24.5778 29.7924C34.7381 21.7182 45.2395 17.6244 55.7903 17.6244C58.273 17.6244 60.7913 17.8546 63.274 18.3103C72.1735 19.941 79.401 24.5077 84.7534 31.8857C89.0688 37.8334 91.0083 44.0765 91.78 47.268C92.0624 48.4348 92.6756 49.4929 93.5553 50.3289C97.2253 53.8134 105.51 63.2927 103.169 76C103.032 76.7432 102.88 77.4772 102.715 78.1838C101.443 83.7032 99.259 88.878 96.2274 93.5615C93.2934 98.0939 89.6257 102.077 85.3275 105.401C81.0695 108.694 76.304 111.254 71.1652 113.007C65.9427 114.79 60.4675 115.694 54.8912 115.694H54.8878Z" fill="white"/>
<path d="M55.7902 18.1969C58.2006 18.1969 60.6626 18.4134 63.1694 18.8726C83.5774 22.6114 89.7267 41.2195 91.2218 47.4019C91.5307 48.6787 92.2047 49.8365 93.159 50.7434C96.6775 54.0848 104.903 63.4198 102.605 75.897C102.471 76.623 102.323 77.3432 102.157 78.0555C97.0162 100.347 77.2398 115.123 54.8888 115.123C51.8308 115.123 48.72 114.846 45.5966 114.273C18.9153 109.385 1.08411 84.8025 5.98516 58.1969C6.27224 56.6373 6.65234 55.1315 7.11626 53.6795C10.2397 43.8681 17.1446 36.4317 24.9359 30.2401C33.8136 23.1862 44.2186 18.1969 55.7902 18.1969ZM55.7902 17.0518C45.1062 17.0518 34.4854 21.188 24.2194 29.3446C19.78 32.8727 16.2339 36.3218 13.3781 39.8877C9.94228 44.1784 7.5354 48.5768 6.02191 53.3325C5.53846 54.8452 5.14688 56.4128 4.85636 57.9897C3.6311 64.6405 3.75856 71.2879 5.2353 77.7498C6.65808 83.9769 9.27511 89.7952 13.0106 95.0421C16.7289 100.264 21.383 104.676 26.8422 108.155C32.4632 111.737 38.702 114.174 45.3876 115.399C48.5328 115.975 51.7286 116.267 54.8877 116.267C60.5282 116.267 66.0677 115.352 71.3512 113.548C76.5496 111.773 81.3703 109.184 85.6788 105.853C90.0287 102.49 93.74 98.4591 96.7096 93.873C99.7779 89.1333 101.987 83.8979 103.276 78.312C103.441 77.5975 103.596 76.8543 103.734 76.1042C106.126 63.1221 97.6891 53.4642 93.9502 49.9143C93.1521 49.1551 92.594 48.1932 92.3379 47.134C91.5559 43.9013 89.5923 37.578 85.2183 31.5501C82.7609 28.1629 79.8614 25.3184 76.6002 23.0935C72.7119 20.4402 68.2622 18.6424 63.3772 17.7469C60.8601 17.2854 58.3074 17.0518 55.7902 17.0518Z" fill="black"/>
<path d="M36.4089 112.277C36.4089 112.277 14.3427 100.045 14.7894 70.4313C15.2373 40.8175 35.9151 43.6242 35.9151 43.6242C33.6782 38.3693 34.5027 34.3087 36.3584 31.3039C39.2108 26.6902 44.6665 24.3599 50.0131 25.3401L73.231 29.5931C75.7034 30.0466 78.0069 31.1768 79.8442 32.8853C83.5258 36.3069 87.7367 42.8295 81.6046 52.0843C81.6046 52.0843 102.686 52.0122 101.915 80.8587" stroke="black" stroke-width="0.80158" stroke-linecap="round" stroke-linejoin="round"/>
<path d="M65.4609 68.14L65.2158 78.4758" stroke="black" stroke-width="0.80158" stroke-linecap="round" stroke-linejoin="round"/>
<path d="M75.1188 50.614C75.1188 50.614 63.7561 47.5852 53.2087 49.4712" stroke="black" stroke-width="0.572557" stroke-linecap="round" stroke-linejoin="round"/>
<path d="M63.592 43.2772C63.3371 46.4217 65.7727 49.1837 69.0328 49.4471C72.294 49.7105 75.143 47.3744 75.3991 44.2299C75.3991 44.2162 75.4014 44.2036 75.4014 44.1899C75.6334 41.0614 73.2047 38.3223 69.9572 38.0601C66.8361 37.8081 64.0893 39.9392 63.6391 42.8821C63.6185 43.0127 63.6024 43.1432 63.592 43.2772Z" fill="white" stroke="black" stroke-width="0.572557" stroke-linecap="round" stroke-linejoin="round"/>
<path d="M69.1832 46.7538C70.633 46.7538 71.8082 45.5818 71.8082 44.136C71.8082 42.6903 70.633 41.5183 69.1832 41.5183C67.7334 41.5183 66.5581 42.6903 66.5581 44.136C66.5581 45.5818 67.7334 46.7538 69.1832 46.7538Z" fill="black"/>
<path d="M63.6392 42.8821C63.6392 42.8821 65.256 41.5779 69.1844 41.3443C73.1128 41.1107 75.2039 42.2592 75.2039 42.2592C74.5586 40.0045 72.5111 38.2662 69.9572 38.0601C66.8361 37.8081 64.0893 39.9392 63.6392 42.8821Z" fill="white" stroke="black" stroke-width="0.572557" stroke-linecap="round" stroke-linejoin="round"/>
<path d="M69.6379 31.3875C71.1514 32.8349 72.4766 34.3946 74.0073 35.8054C74.4999 36.2978 75.0385 36.7329 75.5587 37.2631C75.6735 37.3799 75.6724 37.5666 75.5552 37.6811C75.4817 37.7532 75.3795 37.7784 75.2854 37.7601C75.0993 37.7211 74.9145 37.673 74.7307 37.6181C74.3621 37.5173 74.0165 37.3536 73.6697 37.1944C73.1656 36.9344 72.6787 36.623 72.232 36.2749C71.3489 35.5672 70.5681 34.7187 69.987 33.7487C69.5989 33.0914 69.2739 32.4021 69.1258 31.6463C69.0948 31.4848 69.2004 31.3291 69.3623 31.2982C69.468 31.2776 69.5679 31.3154 69.6379 31.3875Z" fill="black"/>
<path d="M47.8449 43.0585C49.6294 41.7474 51.9272 41.2241 54.1296 41.5619C55.797 41.8172 57.3943 42.6749 58.4795 43.9655C58.8412 44.3754 59.1352 44.8403 59.3832 45.3224C59.459 45.4633 59.4073 45.6396 59.2661 45.7152C59.1524 45.7759 59.0192 45.7541 58.9296 45.6728C58.1419 45.019 57.3633 44.4372 56.5216 44.0158C54.388 42.9039 51.9122 42.9074 49.5823 43.2921C49.0873 43.3711 48.5763 43.4719 48.0872 43.575C47.7909 43.6402 47.6049 43.2452 47.846 43.0608L47.8449 43.0585Z" fill="black"/>
<path d="M65.0574 69.8496C65.0574 69.8496 80.5035 61.354 80.5483 58.6859C80.5713 57.3312 72.4917 55.3456 64.9185 55.1772C57.5853 55.0146 50.7826 56.8296 50.4818 57.8156C50.1809 58.8004 54.3298 60.9051 57.9631 63.7541C61.6653 66.657 65.0574 69.8496 65.0574 69.8496Z" fill="black"/>
<path d="M35.7016 62.5083C35.7016 62.5083 38.3404 60.612 42.5617 64.471C46.7841 68.33 62.8686 78.6189 65.5075 79.1182C70.141 79.9953 83.3157 73.0949 85.6215 75.9015C85.6215 75.9015 81.3509 74.2938 77.0998 80.2679C73.5963 85.1907 68.655 90.5201 59.2147 88.7658C49.7743 87.0114 45.9044 81.5733 43.1772 72.8899C40.4511 64.2065 42.4733 63.0877 35.7004 62.5071L35.7016 62.5083Z" stroke="black" stroke-width="0.80158" stroke-linecap="round" stroke-linejoin="round"/>
<path d="M46.939 81.2367L53.7795 72.5098L53.0182 86.7206" stroke="black" stroke-width="0.80158" stroke-linecap="round" stroke-linejoin="round"/>
<path d="M64.1396 89.1092L69.6206 78.7494L70.2637 87.0927" stroke="black" stroke-width="0.80158" stroke-linecap="round" stroke-linejoin="round"/>
<path d="M53.2881 81.6855C53.2881 81.6855 60.0356 84.2643 65.9575 84.8495" stroke="black" stroke-width="0.80158" stroke-linecap="round" stroke-linejoin="round"/>
<path d="M64.1398 78.7494L59.2146 88.7669" stroke="black" stroke-width="0.80158" stroke-linecap="round" stroke-linejoin="round"/>
</svg>
