<svg width="100" height="24" viewBox="0 0 100 24" fill="none" xmlns="http://www.w3.org/2000/svg">
<path d="M6.47504 19.5547C6.24505 19.5547 6.13006 19.4305 6.13006 19.1822C6.13006 18.9694 6.26274 18.5969 6.52811 18.0648C6.77579 17.5859 7.19154 16.9651 7.77536 16.2024C8.35917 15.422 9.09336 14.5086 9.97793 13.4621C10.3318 12.6817 10.659 11.8836 10.9598 11.0677C11.2606 10.2518 11.5348 9.4093 11.7825 8.54021C12.1186 7.35185 12.3663 6.39407 12.5255 5.66687C12.7024 4.92193 12.7909 4.29227 12.7909 3.77791C12.7909 2.74918 12.4016 2.23482 11.6232 2.23482C10.2964 2.23482 8.92529 2.71371 7.50999 3.67149C6.59003 4.31001 5.72316 5.05495 4.90935 5.90631C4.09555 6.75767 3.37905 7.6445 2.75985 8.56681C2.15835 9.47138 1.69837 10.3405 1.37993 11.1741C1.20301 11.582 1.11456 11.9456 1.11456 12.2649C1.11456 12.8325 1.42416 13.1163 2.04335 13.1163C2.3618 13.1163 2.82177 13.0098 3.42328 12.797C4.00709 12.5842 4.62629 12.2826 5.28087 11.8924C5.93545 11.5022 6.58119 11.0588 7.21808 10.5622C7.85497 10.0656 8.42109 9.56007 8.91645 9.0457C9.16413 8.79739 9.36758 8.67323 9.5268 8.67323C9.61526 8.67323 9.65949 8.71757 9.65949 8.80626C9.65949 8.91268 9.57987 9.0457 9.42065 9.20533C8.85453 9.77291 8.18226 10.3582 7.40384 10.9613C6.62542 11.5466 5.83815 12.0787 5.04204 12.5576C4.24593 13.0365 3.50289 13.4089 2.81293 13.675C2.2468 13.9055 1.71606 14.0208 1.2207 14.0208C0.406902 14.0208 0 13.6306 0 12.8502C0 12.3536 0.141531 11.7594 0.424593 11.0677C0.937643 9.80838 1.8399 8.40718 3.13137 6.86409C4.01594 5.83537 4.96243 4.90419 5.97084 4.07057C6.99694 3.21921 8.03188 2.54521 9.07567 2.04859C10.1195 1.55196 11.1013 1.30365 12.0213 1.30365C13.3128 1.30365 13.9585 2.08406 13.9585 3.64489C13.9585 4.2302 13.8789 4.88645 13.7197 5.61366C13.5604 6.34086 13.3393 7.17448 13.0562 8.11453C13.0208 8.22095 12.9855 8.33623 12.9501 8.46039C12.9147 8.56681 12.8793 8.6821 12.8439 8.80626C12.7555 9.14325 12.6493 9.50686 12.5255 9.89706C12.4016 10.2695 12.2513 10.6775 12.0744 11.1209C12.4636 10.7129 12.8528 10.3316 13.242 9.97688C13.6489 9.60441 14.0558 9.24967 14.4627 8.91268C14.7458 8.6821 15.073 8.42492 15.4446 8.14113C15.8161 7.83961 16.2407 7.51148 16.7183 7.15675C17.3906 6.64238 17.9656 6.3852 18.4433 6.3852C18.6555 6.3852 18.8148 6.44728 18.9209 6.57144C19.0448 6.67786 19.0624 6.79314 18.974 6.9173L18.284 8.06132C17.9479 8.62889 17.6737 9.09004 17.4614 9.44478C17.2491 9.79951 17.1076 10.0478 17.0368 10.1897C16.7537 10.6863 16.453 11.2539 16.1345 11.8924C15.8161 12.5132 15.5419 13.1074 15.3119 13.675C15.0996 14.2425 14.9934 14.7037 14.9934 15.0584C14.9934 15.4486 15.1527 15.6437 15.4711 15.6437C15.7542 15.6437 16.1522 15.4752 16.6653 15.1382C17.1783 14.7835 17.6737 14.3844 18.1513 13.941C19.4428 12.7527 20.5574 11.582 21.495 10.4292C22.4503 9.25854 23.2818 7.91942 23.9895 6.41181C24.3256 5.72008 24.4937 5.10816 24.4937 4.57606C24.4937 3.76017 24.0337 3.34336 23.1138 3.32563C22.8838 3.32563 22.7688 3.27242 22.7688 3.166C22.7688 3.09505 22.813 3.01523 22.9015 2.92655C23.1492 2.67824 23.4676 2.55408 23.8568 2.55408C24.2991 2.55408 24.6706 2.70484 24.9714 3.00637C25.2721 3.29015 25.4225 3.70696 25.4225 4.2568C25.4225 4.84211 25.219 5.58705 24.8121 6.49162C24.5291 7.07693 24.2372 7.62677 23.9364 8.14113C23.6534 8.65549 23.3526 9.13438 23.0342 9.5778C22.6096 10.1631 22.1938 10.6952 21.7869 11.1741C21.3977 11.6353 20.9554 12.1141 20.4601 12.6108C19.9647 13.1074 19.3455 13.7104 18.6025 14.4199C18.2663 14.7392 17.8771 15.0496 17.4348 15.3511C17.0103 15.6526 16.5857 15.9009 16.1611 16.096C15.7365 16.2734 15.365 16.3621 15.0465 16.3621C14.445 16.3621 14.1442 16.0073 14.1442 15.2979C14.1442 14.9077 14.2504 14.3933 14.4627 13.7548C14.5512 13.4533 14.675 13.1163 14.8342 12.7438C14.9934 12.3713 15.1703 11.9634 15.365 11.52C15.4888 11.2717 15.6392 10.9701 15.8161 10.6154C15.993 10.2429 16.1964 9.83498 16.4264 9.39157C16.4264 9.39157 16.5414 9.17873 16.7714 8.75305C16.9837 8.3451 17.0899 8.05245 17.0899 7.87508C17.0899 7.7864 17.0633 7.74206 17.0103 7.74206C16.9572 7.74206 16.851 7.79527 16.6918 7.90169C15.7188 8.59342 14.8961 9.2142 14.2239 9.76404C13.5516 10.3139 12.9147 10.9081 12.3132 11.5466C12.0655 11.8304 11.809 12.1408 11.5436 12.4777C11.2782 12.8147 11.004 13.1783 10.721 13.5686C10.1372 14.9165 9.56218 16.0872 8.99606 17.0804C8.42994 18.0914 7.94342 18.7565 7.53652 19.0758C7.11193 19.395 6.7581 19.5547 6.47504 19.5547Z" fill="#3C3F59"/>
<path d="M25.0833 10.4824C24.8533 10.4824 24.7383 10.4292 24.7383 10.3227C24.7383 10.2341 24.8003 10.1099 24.9241 9.95027C25.0656 9.77291 25.2248 9.62214 25.4018 9.49799C25.791 9.24967 26.0917 9.03683 26.304 8.85947C26.534 8.6821 26.8082 8.38058 27.1267 7.9549C27.1444 7.99037 27.1532 8.06132 27.1532 8.16774C27.1532 8.39831 27.0559 8.6821 26.8613 9.0191C26.6844 9.33836 26.4809 9.63101 26.2509 9.89706C26.021 10.1631 25.8175 10.3316 25.6406 10.4026C25.4814 10.4558 25.2956 10.4824 25.0833 10.4824ZM22.7215 17.0006C22.58 17.0006 22.4473 16.9474 22.3235 16.841C22.1996 16.7345 22.1377 16.5927 22.1377 16.4153C22.1377 16.0428 22.3942 15.36 22.9073 14.3667L23.1992 13.7814C23.2346 13.7459 23.2788 13.6572 23.3319 13.5153C23.4026 13.3734 23.4999 13.1872 23.6238 12.9566C23.7476 12.7083 23.8449 12.4866 23.9157 12.2915C23.9865 12.0964 24.0395 11.9102 24.0749 11.7328C24.0749 11.7151 24.1103 11.6796 24.1811 11.6264C24.2518 11.5732 24.3226 11.5288 24.3934 11.4934L24.5526 11.4668C24.6941 11.4668 24.8091 11.4934 24.8976 11.5466C25.0037 11.5998 25.0391 11.6707 25.0037 11.7594C24.8799 12.0255 24.7737 12.256 24.6853 12.4511C24.5968 12.6462 24.526 12.8147 24.473 12.9566H24.4464C24.2518 13.4001 24.0838 13.8257 23.9422 14.2337C23.8184 14.6239 23.7653 14.9964 23.783 15.3511L23.8095 16.0694C23.7918 16.2468 23.7299 16.3976 23.6238 16.5217C23.553 16.5749 23.4557 16.637 23.3319 16.7079C23.208 16.7966 23.0488 16.8853 22.8542 16.974C22.8365 16.9917 22.7923 17.0006 22.7215 17.0006Z" fill="#3C3F59"/>
<path d="M25.3321 18.0648C25.1375 18.0648 24.9694 18.0027 24.8279 17.8786C24.7041 17.7544 24.651 17.6036 24.6687 17.4263C24.7041 16.6991 24.8367 15.9985 25.0667 15.3245C25.3144 14.6505 25.6682 13.8435 26.1282 12.9034C26.1813 12.7793 26.2255 12.6729 26.2609 12.5842C26.314 12.4777 26.3582 12.3891 26.3936 12.3181C26.7828 11.4845 27.1809 10.6863 27.5878 9.92367C27.9947 9.16099 28.4016 8.41605 28.8085 7.68885L29.18 7.02372C29.6046 6.26104 29.9761 5.64913 30.2945 5.18798C30.613 4.70909 30.9314 4.36322 31.2499 4.15038C31.6568 3.90207 31.9044 3.77791 31.9929 3.77791C32.1344 3.77791 32.276 3.90207 32.4175 4.15038C32.506 4.32775 32.329 4.7623 31.8868 5.45403C31.6568 5.80876 31.3649 6.25218 31.011 6.78428C30.6749 7.31638 30.268 7.91942 29.7903 8.59342C29.7019 8.71757 29.5515 8.93928 29.3392 9.25854C29.1446 9.56007 28.8792 9.95914 28.5431 10.4558C28.2069 10.9524 27.915 11.4047 27.6674 11.8126C27.4197 12.2028 27.2162 12.5487 27.057 12.8502C26.7386 13.4355 26.4378 14.0652 26.1547 14.7392C25.8717 15.3954 25.7302 15.9098 25.7302 16.2823C25.7302 16.6193 25.8628 16.7878 26.1282 16.7878C26.5528 16.7878 27.2339 16.4242 28.1716 15.697C28.2777 15.7147 28.3308 15.7679 28.3308 15.8566C28.3308 15.9275 28.2423 16.0517 28.0654 16.2291C27.9062 16.3887 27.7027 16.5572 27.4551 16.7345C27.2251 16.9297 26.9509 17.1514 26.6324 17.3997L26.2078 17.7189C25.9248 17.9495 25.6329 18.0648 25.3321 18.0648Z" fill="#3C3F59"/>
<path d="M29.4267 18.0648C29.2321 18.0648 29.064 18.0027 28.9225 17.8786C28.7986 17.7544 28.7456 17.6036 28.7633 17.4263C28.7986 16.6991 28.9313 15.9985 29.1613 15.3245C29.409 14.6505 29.7628 13.8435 30.2228 12.9034C30.2759 12.7793 30.3201 12.6729 30.3555 12.5842C30.4086 12.4777 30.4528 12.3891 30.4882 12.3181C30.8774 11.4845 31.2754 10.6863 31.6823 9.92367C32.0892 9.16099 32.4961 8.41605 32.903 7.68885L33.2746 7.02372C33.6992 6.26104 34.0707 5.64913 34.3891 5.18798C34.7076 4.70909 35.026 4.36322 35.3444 4.15038C35.7514 3.90207 35.999 3.77791 36.0875 3.77791C36.229 3.77791 36.3705 3.90207 36.5121 4.15038C36.6005 4.32775 36.4236 4.7623 35.9813 5.45403C35.7514 5.80876 35.4594 6.25218 35.1056 6.78428C34.7695 7.31638 34.3626 7.91942 33.8849 8.59342C33.7965 8.71757 33.6461 8.93928 33.4338 9.25854C33.2392 9.56007 32.9738 9.95914 32.6377 10.4558C32.3015 10.9524 32.0096 11.4047 31.7619 11.8126C31.5143 12.2028 31.3108 12.5487 31.1516 12.8502C30.8332 13.4355 30.5324 14.0652 30.2493 14.7392C29.9663 15.3954 29.8247 15.9098 29.8247 16.2823C29.8247 16.6193 29.9574 16.7878 30.2228 16.7878C30.6474 16.7878 31.3285 16.4242 32.2661 15.697C32.3723 15.7147 32.4254 15.7679 32.4254 15.8566C32.4254 15.9275 32.3369 16.0517 32.16 16.2291C32.0008 16.3887 31.7973 16.5572 31.5497 16.7345C31.3197 16.9297 31.0454 17.1514 30.727 17.3997L30.3024 17.7189C30.0193 17.9495 29.7274 18.0648 29.4267 18.0648Z" fill="#3C3F59"/>
<path d="M34.3174 16.7612C33.6274 16.7612 33.2824 16.4508 33.2824 15.83C33.2824 15.7945 33.2824 15.7324 33.2824 15.6437C33.3001 15.5551 33.3178 15.4486 33.3355 15.3245C33.5124 14.5973 33.8663 13.8967 34.397 13.2227C34.9454 12.531 35.5735 11.9279 36.2811 11.4135C36.5465 11.2007 36.9711 11.0943 37.5549 11.0943C37.891 11.0943 38.1829 11.1475 38.4306 11.2539C38.696 11.3426 38.8818 11.4845 38.9879 11.6796C39.094 11.857 39.1471 12.0609 39.1471 12.2915C39.1471 12.327 39.1383 12.3802 39.1206 12.4511C39.1206 12.5221 39.1117 12.6019 39.0941 12.6906C39.1294 12.6729 39.1825 12.664 39.2533 12.664C39.3417 12.664 39.4479 12.6551 39.5717 12.6374C39.6956 12.6196 39.8106 12.6019 39.9167 12.5842C40.0405 12.5664 40.1644 12.5576 40.2882 12.5576H40.3944C40.589 12.5576 40.6067 12.6374 40.4474 12.797C40.3059 12.9389 40.1113 13.0276 39.8636 13.0631L38.9614 13.1695C38.7845 13.6661 38.4749 14.1627 38.0326 14.6594C37.608 15.156 37.1303 15.5905 36.5996 15.963C36.0865 16.3177 35.6 16.5483 35.14 16.6547C34.8747 16.7257 34.6004 16.7612 34.3174 16.7612ZM37.7141 12.797C37.8203 12.797 37.9441 12.797 38.0856 12.797C38.2449 12.7793 38.4218 12.7615 38.6164 12.7438C38.6341 12.7083 38.6429 12.6285 38.6429 12.5044C38.6429 12.1851 38.5102 11.9634 38.2449 11.8392C38.1033 11.7505 37.9264 11.7062 37.7141 11.7062C37.4488 11.7062 37.1745 11.7949 36.8915 11.9723C36.6261 12.1319 36.343 12.3447 36.0423 12.6108C36.4138 12.7349 36.9711 12.797 37.7141 12.797ZM35.1135 15.83C35.2904 15.83 35.5381 15.7502 35.8565 15.5905C36.1927 15.4132 36.5376 15.1826 36.8915 14.8988C37.2453 14.615 37.5637 14.3135 37.8468 13.9942C37.9353 13.9055 38.0237 13.7991 38.1122 13.675C38.2006 13.5331 38.2979 13.3912 38.4041 13.2493L37.7672 13.3291C36.7765 13.471 35.8919 13.5508 35.1135 13.5686C34.7243 14.2071 34.4855 14.7392 34.397 15.1649C34.3793 15.3954 34.4412 15.5639 34.5828 15.6703C34.7243 15.7768 34.9012 15.83 35.1135 15.83Z" fill="#3C3F59"/>
<path d="M45.2328 17.0006C44.8613 16.9474 44.6048 16.8144 44.4632 16.6015C44.3394 16.4064 44.2775 16.1315 44.2775 15.7768C44.2775 15.6881 44.2863 15.5462 44.304 15.3511C44.3394 15.156 44.3748 14.9165 44.4102 14.6328V14.4199C44.4102 14.1716 44.3659 14.0297 44.2775 13.9942C44.2598 13.9765 44.2156 13.9676 44.1448 13.9676C44.021 13.9676 43.791 14.0829 43.4548 14.3135C43.4371 14.3312 43.3398 14.4199 43.1629 14.5795C42.986 14.7214 42.7295 14.9343 42.3934 15.2181C41.4203 16.0872 40.7569 16.4774 40.4031 16.3887C40.0316 16.3 39.8458 16.0517 39.8458 15.6437C39.8458 15.2535 39.9873 14.7835 40.2704 14.2337C40.5004 13.7371 40.7834 13.2582 41.1196 12.797C41.4557 12.3181 41.7211 12.0077 41.9157 11.8658C42.0572 11.7771 42.1722 11.7328 42.2607 11.7328C42.3491 11.7328 42.4287 11.7683 42.4995 11.8392C42.5349 11.8747 42.5526 11.9279 42.5526 11.9989C42.5526 12.0698 42.5083 12.1496 42.4199 12.2383C42.243 12.4157 42.0749 12.6906 41.9157 13.0631C41.7565 13.4178 41.6769 13.7371 41.6769 14.0208C41.6769 14.0563 41.6769 14.1007 41.6769 14.1539C41.6945 14.2071 41.7122 14.2692 41.7299 14.3401C41.8184 14.3933 41.9157 14.4199 42.0218 14.4199C42.2341 14.4199 42.526 14.3135 42.8976 14.1007C43.0391 14.012 43.2337 13.8878 43.4814 13.7282C43.729 13.5508 44.0298 13.3291 44.3836 13.0631C44.5252 12.9566 44.6844 12.9034 44.8613 12.9034C45.0559 12.9034 45.2151 12.9744 45.339 13.1163C45.4805 13.2404 45.5513 13.4178 45.5513 13.6484C45.5513 13.6838 45.5424 13.7371 45.5247 13.808C45.5247 13.8612 45.5159 13.9322 45.4982 14.0208C45.4628 14.1627 45.4274 14.2958 45.392 14.4199C45.3567 14.5441 45.3301 14.6682 45.3124 14.7924C45.2947 14.8633 45.2859 14.9609 45.2859 15.085C45.2859 15.1915 45.2859 15.3156 45.2859 15.4575C45.2859 15.8477 45.4893 16.0428 45.8962 16.0428C46.0732 16.0428 46.2501 16.0162 46.427 15.963C46.6216 15.8921 46.7631 15.8122 46.8516 15.7236C47.7008 14.9786 48.5323 14.012 49.3461 12.8236L49.3195 12.5044C49.3018 12.327 49.3372 12.1585 49.4257 11.9989C49.5141 11.8215 49.6291 11.6441 49.7707 11.4668C49.8237 11.3958 49.8945 11.3603 49.9829 11.3603C50.0714 11.3603 50.151 11.4047 50.2218 11.4934C50.3102 11.5643 50.3545 11.6619 50.3545 11.786C50.3545 11.8747 50.3279 11.9723 50.2749 12.0787C50.1687 12.2738 50.0006 12.5576 49.7707 12.93C49.5407 13.2848 49.2753 13.675 48.9745 14.1007C48.6738 14.5263 48.373 14.9254 48.0723 15.2979C47.7715 15.6703 47.4973 15.963 47.2496 16.1758V16.2024C46.9489 16.4685 46.6039 16.6725 46.2147 16.8144C45.8255 16.974 45.4982 17.0361 45.2328 17.0006Z" fill="#3C3F59"/>
<path d="M57.9049 8.80626C57.728 8.80626 57.5334 8.76192 57.3211 8.67323C56.8257 8.53134 56.3215 8.22982 55.8085 7.76866C55.26 7.28977 54.7912 6.7222 54.402 6.06594C54.0128 5.39195 53.7828 4.73569 53.712 4.09717C53.6943 4.02622 53.6855 3.93754 53.6855 3.83112C53.6855 3.7247 53.6855 3.60054 53.6855 3.45865C53.6855 1.15288 55.1008 0 57.9314 0C59.3644 0 60.9389 0.230577 62.655 0.691731C64.3888 1.15288 66.379 1.7648 68.6258 2.52748C69.0328 2.66937 69.4043 2.80239 69.7404 2.92655C70.0942 3.03297 70.4127 3.13052 70.6957 3.21921C71.3857 3.41431 71.9872 3.51186 72.5003 3.51186C73.0841 3.51186 73.4998 3.39657 73.7475 3.166C74.0129 2.93542 74.1456 2.67824 74.1456 2.39445V2.28803C74.1456 2.07519 74.2075 1.96877 74.3313 1.96877C74.4728 1.96877 74.6232 2.07519 74.7824 2.28803C74.8178 2.3235 74.8355 2.39445 74.8355 2.50087C74.8355 2.90881 74.5967 3.29015 74.119 3.64489C73.6413 3.99962 73.0487 4.17699 72.341 4.17699C72.2349 4.17699 72.1376 4.17699 72.0491 4.17699C71.9784 4.17699 71.9076 4.16812 71.8368 4.15038C71.1469 4.0617 70.3861 3.90207 69.5546 3.67149C68.7408 3.42318 67.7324 3.09505 66.5294 2.68711C64.8487 2.11953 63.4511 1.68498 62.3366 1.38346C61.222 1.08194 60.1871 0.931176 59.2317 0.931176C58.1879 0.931176 57.3034 1.16175 56.578 1.62291C55.8704 2.08406 55.3485 2.83787 55.0123 3.88433C54.9593 4.04396 54.9327 4.22133 54.9327 4.41643C54.9327 4.75343 55.0123 5.13477 55.1716 5.56045C55.3308 5.96839 55.5431 6.36746 55.8085 6.75767C56.0738 7.14788 56.3569 7.48488 56.6576 7.76866C56.9584 8.03471 57.2415 8.19434 57.5068 8.24755C57.9314 8.33624 58.1437 8.47813 58.1437 8.67323C58.1437 8.76192 58.0641 8.80626 57.9049 8.80626ZM58.4091 18.1446C58.0022 18.1446 57.8164 17.8786 57.8518 17.3465C57.9933 16.2291 58.3472 15.0318 58.9133 13.7548C59.1964 13.0985 59.6033 12.256 60.134 11.2273C60.6824 10.1808 61.3547 8.95702 62.1508 7.55582C62.6992 6.56257 63.1415 5.79102 63.4777 5.24119C63.8315 4.69135 64.203 4.28341 64.5922 4.01736C64.9284 3.78678 65.2468 3.67149 65.5475 3.67149C65.8306 3.67149 65.9014 3.78678 65.7598 4.01736C65.4768 4.40756 65.1318 4.90419 64.7249 5.50724C64.3357 6.09255 63.8846 6.78428 63.3715 7.58243C62.6992 8.64663 62.0447 9.72856 61.4078 10.8282C60.7709 11.9279 60.2313 12.9389 59.789 13.8612C59.3467 14.7658 59.0548 15.493 58.9133 16.0428C58.8602 16.2557 58.8337 16.433 58.8337 16.5749C58.8337 16.8764 58.9575 17.0272 59.2052 17.0272C59.5944 17.0272 60.3021 16.6281 61.3282 15.83C61.3635 15.7945 61.4078 15.7768 61.4608 15.7768C61.5316 15.7768 61.567 15.8211 61.567 15.9098C61.567 16.0162 61.5316 16.1049 61.4608 16.1758C61.3901 16.2468 61.3016 16.3177 61.1955 16.3887C61.0893 16.4774 60.9655 16.5749 60.824 16.6813C60.6824 16.77 60.5586 16.8498 60.4524 16.9208C60.3463 16.9917 60.2755 17.0449 60.2401 17.0804C60.0102 17.24 59.8155 17.3731 59.6563 17.4795C59.4971 17.6036 59.3733 17.7012 59.2848 17.7721C58.931 18.0205 58.6391 18.1446 58.4091 18.1446Z" fill="#3C3F59"/>
<path d="M64.2806 16.8676C64.0506 16.8676 63.9356 16.6636 63.9356 16.2557C63.9356 15.9187 64.0152 15.5905 64.1745 15.2713C64.5814 14.4909 64.9529 13.7193 65.289 12.9566C65.519 12.4955 65.7313 12.0521 65.9259 11.6264C66.1382 11.2007 66.3328 10.8105 66.5097 10.4558C66.6159 10.3493 66.722 10.2961 66.8282 10.2961C67.0582 10.2961 67.1289 10.4026 67.0405 10.6154C67.0051 10.7396 66.952 10.8903 66.8812 11.0677C66.8282 11.2273 66.7574 11.4224 66.669 11.653C66.3859 12.3979 66.2178 12.9212 66.1647 13.2227C66.6601 12.7793 67.1643 12.3713 67.6774 11.9989C68.2081 11.6087 68.7035 11.2894 69.1634 11.0411C69.6234 10.7928 70.0126 10.6686 70.3311 10.6686C70.6141 10.6686 70.7557 10.7839 70.7557 11.0145C70.7557 11.2096 70.6672 11.4224 70.4903 11.653C70.3134 11.8658 70.1365 11.9723 69.9595 11.9723C69.8711 11.9723 69.8003 11.9456 69.7473 11.8924C69.6942 11.8747 69.588 11.8658 69.4288 11.8658C68.8627 11.8658 68.27 12.1407 67.6508 12.6906C66.9962 13.2404 66.4036 13.9056 65.8728 14.686C65.3421 15.4486 64.9529 16.1138 64.7052 16.6813C64.5814 16.8055 64.4398 16.8676 64.2806 16.8676Z" fill="#3C3F59"/>
<path d="M71.0281 16.6015C70.6566 16.6015 70.3293 16.504 70.0462 16.3089C69.5862 15.9541 69.3562 15.422 69.3562 14.7126C69.3562 14.0031 69.6039 13.2493 70.0993 12.4511C70.5946 11.653 71.3465 10.9169 72.3549 10.2429C72.5318 10.1188 72.7707 10.0567 73.0714 10.0567C73.4606 10.0567 73.8056 10.1631 74.1064 10.376C74.4248 10.5888 74.5487 10.8637 74.4779 11.2007C74.3541 11.7505 74.0798 12.2383 73.6552 12.664C73.2483 13.0897 72.7618 13.471 72.1957 13.808C71.6473 14.1273 71.0811 14.4376 70.4973 14.7392C70.4796 14.7924 70.4619 14.8456 70.4443 14.8988C70.4443 14.952 70.4443 15.0052 70.4443 15.0584C70.4443 15.3067 70.5239 15.5285 70.6831 15.7236C70.86 15.9009 71.0988 15.9896 71.3996 15.9896C71.6296 15.9896 71.8242 15.9541 71.9834 15.8832C72.2665 15.7768 72.4965 15.6792 72.6734 15.5905C72.868 15.5018 73.0891 15.3688 73.3368 15.1915C73.5845 15.0141 73.9206 14.748 74.3452 14.3933C74.5398 14.2514 74.6548 14.1805 74.6902 14.1805C74.7963 14.1805 74.8317 14.2603 74.7963 14.4199C74.6194 14.7037 74.3098 15.0141 73.8675 15.3511C73.4429 15.6881 72.9653 15.9807 72.4345 16.2291C71.9215 16.4774 71.4527 16.6015 71.0281 16.6015ZM70.6566 14.0208C70.7981 14.0208 71.09 13.8789 71.5323 13.5952C71.9746 13.3114 72.3903 13.001 72.7795 12.664C73.4518 12.0432 73.7879 11.5643 73.7879 11.2273C73.7879 11.1386 73.7614 11.0588 73.7083 10.9879C73.6552 10.8992 73.5756 10.8548 73.4695 10.8548C73.1333 10.8548 72.5672 11.2539 71.7711 12.0521C71.2227 12.5842 70.8512 13.2404 70.6566 14.0208Z" fill="#3C3F59"/>
<path d="M76.2888 16.6015C75.9173 16.6015 75.59 16.504 75.307 16.3089C74.847 15.9541 74.617 15.422 74.617 14.7126C74.617 14.0031 74.8647 13.2493 75.36 12.4511C75.8554 11.653 76.6073 10.9169 77.6157 10.2429C77.7926 10.1188 78.0314 10.0567 78.3322 10.0567C78.7214 10.0567 79.0664 10.1631 79.3671 10.376C79.6856 10.5888 79.8094 10.8637 79.7387 11.2007C79.6148 11.7505 79.3406 12.2383 78.916 12.664C78.5091 13.0897 78.0226 13.471 77.4565 13.808C76.908 14.1273 76.3419 14.4376 75.7581 14.7392C75.7404 14.7924 75.7227 14.8456 75.705 14.8988C75.705 14.952 75.705 15.0052 75.705 15.0584C75.705 15.3067 75.7846 15.5285 75.9439 15.7236C76.1208 15.9009 76.3596 15.9896 76.6604 15.9896C76.8903 15.9896 77.085 15.9541 77.2442 15.8832C77.5272 15.7768 77.7572 15.6792 77.9341 15.5905C78.1287 15.5018 78.3499 15.3688 78.5976 15.1915C78.8452 15.0141 79.1814 14.748 79.606 14.3933C79.8006 14.2514 79.9156 14.1805 79.951 14.1805C80.0571 14.1805 80.0925 14.2603 80.0571 14.4199C79.8802 14.7037 79.5706 15.0141 79.1283 15.3511C78.7037 15.6881 78.226 15.9807 77.6953 16.2291C77.1823 16.4774 76.7134 16.6015 76.2888 16.6015ZM75.9173 14.0208C76.0588 14.0208 76.3508 13.8789 76.793 13.5952C77.2353 13.3114 77.6511 13.001 78.0403 12.664C78.7126 12.0432 79.0487 11.5643 79.0487 11.2273C79.0487 11.1386 79.0221 11.0588 78.9691 10.9879C78.916 10.8992 78.8364 10.8548 78.7303 10.8548C78.3941 10.8548 77.828 11.2539 77.0319 12.0521C76.4834 12.5842 76.1119 13.2404 75.9173 14.0208Z" fill="#3C3F59"/>
<path fill-rule="evenodd" clip-rule="evenodd" d="M79.8631 13.9527C79.9537 13.7095 80.0787 13.4386 80.1409 13.3506C80.203 13.2627 80.2856 13.0727 80.3243 12.9285C80.3631 12.7843 80.487 12.4352 80.5998 12.1529C80.827 11.584 80.9469 10.9737 80.9928 10.1531C81.0188 9.68716 81.0467 9.56059 81.2009 9.20834C81.2987 8.98465 81.3886 8.73146 81.4006 8.64576C81.4374 8.3836 81.9985 7.6249 82.3848 7.31505C82.5795 7.15883 82.786 7.03767 82.8436 7.04579C82.9413 7.05954 82.9412 7.06655 82.8425 7.14924C82.7843 7.19801 82.6955 7.3204 82.6452 7.42115C82.5949 7.5219 82.4517 7.70038 82.327 7.81777C82.1206 8.01201 82.1004 8.05387 82.1025 8.28371C82.1038 8.4226 82.1762 8.74625 82.2634 9.00293C82.3713 9.32015 82.4118 9.5433 82.3901 9.69968C82.3506 9.98388 81.9522 10.6206 81.6018 10.9597C81.1298 11.4164 81.0557 11.5201 80.8443 12.0205C80.7278 12.2961 80.6392 12.5304 80.6474 12.5413C80.6833 12.5891 81.1289 12.0518 81.927 10.9983C83.7753 8.5583 83.8043 8.50421 83.8501 7.39945C83.8666 7.00024 83.897 6.66097 83.9174 6.64547C84.1393 6.47761 84.411 7.54586 84.37 8.42549C84.3497 8.86429 84.2077 9.16881 83.8495 9.54223C83.7234 9.67363 83.6386 9.78368 83.6609 9.78682C83.6833 9.78997 83.9257 9.69681 84.1995 9.57988C84.4734 9.4629 84.8796 9.32339 85.1021 9.2699C85.3246 9.21636 85.5384 9.1545 85.5772 9.13246C85.6767 9.07597 85.8683 8.46851 85.8928 8.13174C85.9242 7.70082 86.0485 7.35601 86.3973 6.73227C86.6499 6.28068 86.8015 6.08368 87.1306 5.77947C87.7032 5.25034 87.8812 5.04068 88.0686 4.67496C88.1575 4.50155 88.2641 4.35341 88.3055 4.34572C88.3617 4.33531 88.3504 4.38303 88.2604 4.53477C88.1881 4.6569 88.1433 4.80941 88.148 4.91773C88.1538 5.04847 88.1315 5.10344 88.0664 5.11854C88.0172 5.12993 87.9722 5.17229 87.9666 5.2126C87.9479 5.346 87.4656 6.02931 87.112 6.4234C86.9205 6.63677 86.7552 6.83936 86.7445 6.87365C86.7338 6.90794 86.644 7.02733 86.5449 7.13896C86.2766 7.44116 86.1303 7.76399 86.0739 8.17871L86.0235 8.54973L86.2303 8.20781C86.344 8.01975 86.6426 7.63069 86.8937 7.34318C87.399 6.76456 87.6978 6.33352 87.7127 6.16173L87.7225 6.04894L87.6791 6.157C87.5732 6.421 86.8637 7.00427 86.7816 6.89486C86.7663 6.87456 86.8322 6.82629 86.9279 6.78748C87.179 6.68573 87.5981 6.21922 87.6276 6.00857C87.6409 5.91329 87.732 5.71993 87.83 5.57885C87.9279 5.43778 88.0135 5.28371 88.0201 5.23646C88.0267 5.18927 88.0589 5.15442 88.0916 5.15903C88.1248 5.1637 88.1296 5.21256 88.1026 5.2692C88.0758 5.3252 88.0111 5.50235 87.9586 5.66279C87.6667 6.55633 87.6321 6.61677 87.0094 7.32677C86.5766 7.82 86.0828 8.55803 85.9948 8.84289C85.9366 9.03156 85.9401 9.03925 86.0741 9.01668C86.1511 9.00367 86.4863 8.96873 86.8189 8.93908C87.1514 8.90943 87.4578 8.87843 87.4998 8.87019C87.555 8.8594 87.535 8.74899 87.4277 8.47146C87.3462 8.26039 87.2892 8.01764 87.3012 7.93204C87.3252 7.76046 87.7818 7.04766 87.9241 6.95942C87.9842 6.92216 88.0301 6.79042 88.0629 6.56087C88.1872 5.68853 88.6186 5.01815 89.5066 4.31726C90.0286 3.90526 90.118 3.81008 90.1928 3.58685C90.3139 3.22537 90.5506 2.9778 90.842 2.90781C91.1326 2.83799 91.1408 2.86347 90.8806 3.02719C90.553 3.23336 90.3548 3.60162 90.2746 4.15352C90.189 4.74183 89.9844 5.38199 89.7875 5.67731C89.6559 5.87468 89.6502 5.89785 89.7388 5.87574C89.9565 5.82145 90.7183 5.81829 91.0998 5.87013C91.4557 5.9185 91.5496 5.90718 91.9096 5.77247C92.1335 5.68864 92.3854 5.58665 92.4693 5.54584C92.6592 5.45339 92.9487 5.43565 93.0389 5.51087C93.0863 5.5503 93.0478 5.57183 92.9126 5.58156C92.8057 5.58922 92.6846 5.61571 92.6434 5.6404C92.6022 5.66502 92.541 5.66235 92.5075 5.63439C92.4702 5.60334 92.4578 5.60923 92.4754 5.6495C92.4913 5.68582 92.4767 5.72772 92.443 5.74261C92.4093 5.75745 92.3495 5.81377 92.3102 5.86777C92.2434 5.95963 92.2511 5.96339 92.4297 5.92661C92.6602 5.87916 93.5127 5.98924 94.1338 6.14671C94.6316 6.27288 94.7302 6.36725 94.305 6.31074C93.9689 6.26608 93.556 6.35754 93.1305 6.57088C92.791 6.74107 92.1639 6.87429 91.886 6.83516C91.7666 6.81833 91.6996 6.85006 91.6215 6.9606C91.3332 7.36867 90.5657 7.7518 89.7412 7.89924C89.3168 7.97516 88.7113 8.26383 88.1674 8.64961C87.9764 8.78506 87.8555 8.8838 87.8986 8.86899C88.0814 8.80642 89.4688 8.83594 90.0278 8.91433C90.622 8.99763 90.6463 8.99597 91.275 8.82809C91.6277 8.73391 92.2775 8.50387 92.7191 8.31683C93.9649 7.78917 94.8055 7.63614 95.77 7.76141C96.2477 7.82344 97.0244 8.08001 97.0734 8.19195C97.0843 8.21701 96.8976 8.22393 96.6584 8.20731C96.1037 8.16875 95.8697 8.21748 95.1513 8.52119C94.1282 8.9536 93.3848 9.08181 91.9465 9.07388C91.6652 9.07234 91.4154 9.08396 91.3913 9.09969C91.3228 9.14439 92.2919 9.23602 92.5811 9.21224C92.7235 9.2005 93.298 9.11268 93.8578 9.01707C96.23 8.61188 97.5689 8.69439 98.4281 9.2988C98.5411 9.37826 98.631 9.4617 98.6279 9.48415C98.6247 9.50665 98.3398 9.48526 97.9947 9.43671C97.5165 9.36941 97.284 9.36378 97.0171 9.41312L96.6668 9.47784L97.0277 9.54048C97.6332 9.64564 98.3912 9.86947 99.2055 10.1837C99.6322 10.3483 99.9896 10.494 99.9997 10.5075C100.01 10.5209 99.7582 10.5119 99.4406 10.4873C99.123 10.4628 98.5679 10.4499 98.207 10.4586C97.1377 10.4846 96.2359 10.432 95.4645 10.2986L94.7394 10.1733L95.0069 10.3299C95.154 10.416 95.4323 10.6156 95.6253 10.7735C95.8183 10.9315 96.063 11.103 96.169 11.1547C96.4649 11.2991 96.8883 11.6077 96.811 11.6228C96.7731 11.6301 96.6158 11.5782 96.4614 11.5075C96.2868 11.4276 95.9645 11.3485 95.6088 11.2984C95.0973 11.2263 94.9477 11.178 94.1953 10.8417C93.7324 10.6348 93.151 10.3445 92.9031 10.1965C92.6552 10.0486 92.2918 9.83129 92.0954 9.71361C91.5457 9.38409 91.1479 9.27874 89.9733 9.15144C89.4031 9.08962 88.8705 9.05531 88.7898 9.07516C88.6649 9.10587 88.689 9.11829 88.9513 9.15831C89.3639 9.22121 90.4333 9.51256 90.8675 9.68029C91.3139 9.85265 92.2775 10.3598 92.7384 10.6648C93.0745 10.8873 93.1229 10.9032 93.5912 10.9464C94.1323 10.9963 94.1841 11.0426 93.755 11.0928C93.6031 11.1106 93.1852 11.1965 92.8263 11.2838C92.4674 11.371 92.0466 11.4519 91.8912 11.4636C91.7358 11.4753 90.8291 11.387 89.8762 11.2673C88.9234 11.1477 88.0541 11.0516 87.9444 11.0537L87.7448 11.0576L87.8952 11.1658C88.224 11.4025 89.9123 12.2687 90.1843 12.3403C90.5252 12.43 90.9325 12.418 92.1509 12.2824C92.9386 12.1947 93.1486 12.1934 93.8968 12.2717C94.5612 12.3413 94.8612 12.3984 95.2677 12.5325C95.554 12.627 95.7855 12.7235 95.7822 12.7471C95.7789 12.7706 95.5797 12.7767 95.3396 12.7605C95.0995 12.7444 94.7841 12.7572 94.6389 12.789C94.4937 12.8208 94.1407 12.8746 93.8545 12.9086C93.5682 12.9426 93.3842 12.9774 93.4456 12.986C93.5927 13.0066 95.4436 13.9183 95.4388 13.9678C95.4368 13.989 95.3705 13.99 95.2914 13.9701C95.2124 13.9502 94.8594 13.9581 94.507 13.9877C93.5929 14.0645 92.7599 13.9413 92.1367 13.6371C91.8904 13.5169 91.5787 13.317 91.4439 13.1929C91.1655 12.9367 91.152 12.9292 90.6358 12.7458C90.3831 12.656 90.2876 12.6373 90.3494 12.6898C90.9008 13.1573 91.1051 13.3813 91.5022 13.954C91.7563 14.3205 92.04 14.7891 92.1326 14.9955C92.2253 15.2019 92.3629 15.4657 92.4385 15.5817C92.5141 15.6976 92.5625 15.8026 92.5462 15.815C92.5299 15.8274 92.4059 15.7815 92.2707 15.7131C92.1355 15.6447 91.991 15.584 91.9496 15.5782C91.9082 15.5723 91.6806 15.4335 91.4439 15.2697C90.9698 14.9416 90.7916 14.8946 90.1604 14.9306L89.8005 14.9511L89.9254 15.2277C90.0845 15.5801 90.0745 15.638 89.8857 15.4584C89.613 15.1992 89.1262 14.9522 88.7965 14.9057C88.112 14.8093 87.0795 14.3042 86.5935 13.8281C86.3567 13.5961 85.9531 13.0138 85.483 12.2257C85.3342 11.9764 85.1953 11.758 85.174 11.7403C85.1529 11.7226 84.8281 11.7421 84.4525 11.7836C84.0769 11.8251 83.634 11.856 83.4683 11.8523C83.3027 11.8485 83.1763 11.8577 83.1874 11.8725C83.1986 11.8873 83.3246 11.9513 83.4675 12.0147C84.8965 12.6483 85.3744 12.9272 86.0295 13.5099C86.2553 13.7106 86.6013 14.0023 86.7984 14.1579C87.0136 14.3278 87.2491 14.5838 87.3878 14.7986C87.5148 14.9953 87.5965 15.1427 87.5694 15.1262C87.5422 15.1097 87.3804 14.9963 87.2098 14.8741C86.7579 14.5505 86.48 14.4244 85.8797 14.2702C85.2834 14.1171 84.9142 13.9473 84.3141 13.5504C83.9869 13.334 83.823 13.1679 83.4644 12.6893C82.9106 11.9505 82.8126 11.8781 82.2714 11.8083C81.7279 11.7382 81.5694 11.7828 81.399 12.0536C81.3238 12.1733 81.0729 12.4867 80.8415 12.7503C80.3809 13.2748 80.1449 13.6954 80.0139 14.2253C79.9671 14.415 79.9077 14.5671 79.882 14.5635C79.8055 14.5527 79.9547 14.0655 80.1837 13.5785C80.3279 13.2719 80.514 12.9948 80.7543 12.7292C81.1504 12.2913 81.4182 11.9294 81.3819 11.8811C81.3689 11.8637 81.3066 11.9225 81.2435 12.0118C81.1804 12.1011 80.9738 12.3459 80.7845 12.5559C80.3954 12.9873 80.129 13.4518 79.9167 14.0689C79.8369 14.301 79.7495 14.4878 79.7226 14.484C79.6646 14.4758 79.6563 14.5071 79.8631 13.9527ZM81.0238 10.9282C81.0193 11.1159 81.0275 11.2129 81.042 11.1437C81.0564 11.0745 81.1606 10.8451 81.2736 10.634C81.462 10.2818 81.4905 10.174 81.6189 9.32796C81.6959 8.82075 81.7896 8.32338 81.8273 8.22274C81.8685 8.11255 81.8733 8.04963 81.8393 8.0647C81.7383 8.10917 81.5529 8.47836 81.3526 9.03356C81.2448 9.33235 81.1383 9.62562 81.1161 9.68527C81.0756 9.79351 81.0393 10.2825 81.0238 10.9282ZM81.1273 11.3094C81.1918 11.2376 81.3523 11.0804 81.4838 10.96C81.6153 10.8397 81.8571 10.5417 82.0212 10.298C82.3781 9.76746 82.4002 9.58761 82.1845 8.96527C82.1073 8.74244 82.0291 8.4424 82.0108 8.29853C81.9774 8.03711 81.9773 8.03705 81.9147 8.19936C81.8802 8.2887 81.7918 8.76907 81.7184 9.26679C81.5827 10.1866 81.5344 10.3342 81.0604 11.2758C80.9913 11.4133 81.0206 11.428 81.1273 11.3094ZM81.4973 11.8017C81.5487 11.7504 81.6764 11.7004 81.7812 11.6906L81.9717 11.6728L81.7893 11.6412C81.6246 11.6127 81.6142 11.5996 81.6822 11.5061C81.7237 11.4492 81.7448 11.4008 81.7291 11.3985C81.6918 11.3933 81.4235 11.7667 81.4124 11.8392C81.4077 11.8699 81.4459 11.8531 81.4973 11.8017ZM82.313 7.73171C82.4098 7.64562 82.5299 7.48751 82.58 7.3804L82.671 7.18554L82.4973 7.31121C82.3451 7.42129 82.1824 7.66434 82.1483 7.83267C82.142 7.86319 82.2161 7.81774 82.313 7.73171ZM82.5823 11.6353C83.6129 11.7018 84.752 11.5872 85.9194 11.2997C86.3891 11.1839 86.853 11.0698 86.9501 11.0459C87.1239 11.0033 87.1194 10.9993 86.6715 10.8023C86.0424 10.5254 85.0937 10.217 84.7017 10.1618C84.5217 10.1364 84.1785 10.1283 83.939 10.1438C83.5126 10.1714 83.4889 10.1815 82.8125 10.6273C82.2161 11.0203 81.6951 11.479 81.7548 11.5586C81.7649 11.5721 82.1373 11.6066 82.5823 11.6353ZM82.1686 10.9947C82.354 10.8531 82.7989 10.539 83.1573 10.2968C83.7277 9.9113 83.9139 9.82154 84.6489 9.5781C85.1108 9.4251 85.7787 9.23978 86.133 9.16639C86.8418 9.01949 86.9033 8.97895 86.272 9.07477C85.9399 9.12514 85.8588 9.12159 85.8288 9.05515C85.8002 8.99163 85.7891 8.99384 85.7784 9.06529C85.7642 9.15977 85.6087 9.22223 85.0569 9.35493C84.7453 9.42984 84.3293 9.59085 83.7015 9.87959C83.2229 10.0997 81.8746 11.0782 81.8362 11.2333C81.8337 11.2437 81.9833 11.1363 82.1686 10.9947ZM82.3542 10.6018C82.4089 10.5467 82.5742 10.3644 82.7216 10.1968C82.869 10.0292 83.1248 9.75697 83.2899 9.59185C83.7752 9.10642 83.8461 9.00703 83.9921 8.60671C84.0954 8.3235 84.138 8.09562 84.1585 7.71621L84.1861 7.20632L84.0831 7.61733C83.8923 8.37904 83.4224 9.20326 82.5936 10.2298C82.2616 10.6409 82.162 10.7957 82.3542 10.6018ZM82.9035 11.9215C82.9887 11.9838 83.2636 12.3043 83.5146 12.6339C83.8772 13.1101 84.0531 13.2876 84.371 13.4978C84.9003 13.8479 85.396 14.0713 85.9674 14.2173C86.2251 14.2831 86.5417 14.391 86.6709 14.4571C86.8001 14.5232 86.9147 14.5705 86.9256 14.5623C86.953 14.5415 86.3399 14.1624 85.7257 13.8204C85.4444 13.6637 85.0813 13.4247 84.9186 13.2893C84.1749 12.6699 83.4716 12.1483 83.2099 12.0222C83.0527 11.9464 82.9163 11.8504 82.9067 11.8088C82.8961 11.7627 82.7989 11.7228 82.6575 11.7064C82.44 11.6812 82.4357 11.6836 82.5872 11.744C82.6761 11.7795 82.8184 11.8594 82.9035 11.9215ZM83.1324 10.028C83.6436 9.72987 84.1327 9.17526 84.2597 8.74971C84.3108 8.57852 84.3122 7.67991 84.2614 7.61231C84.254 7.60242 84.2128 7.83803 84.17 8.1358C84.0828 8.74095 83.9681 9.02182 83.7034 9.27903C83.6046 9.37501 83.4876 9.50347 83.4434 9.56449C83.3992 9.62546 83.2308 9.79292 83.0693 9.93651C82.9077 10.0801 82.7742 10.2071 82.7725 10.2187C82.7709 10.2302 82.9329 10.1444 83.1324 10.028ZM83.9275 7.92235C83.9695 7.89063 84.0762 7.07382 84.0589 6.91726C84.022 6.58256 83.9685 6.77077 83.938 7.34309C83.9205 7.67058 83.9158 7.93126 83.9275 7.92235ZM83.3199 12.1935C83.4008 12.2049 83.8389 12.605 83.9303 12.751L84.018 12.8912L83.8952 12.7554C83.8277 12.6806 83.6602 12.5222 83.523 12.4032C83.3857 12.2842 83.2943 12.1899 83.3199 12.1935ZM83.8321 10.0634C83.935 10.0547 84.2477 10.0601 84.5271 10.0752L85.035 10.1028L84.4469 10.039C83.9067 9.98036 83.6584 9.9846 83.6488 10.0526C83.6468 10.0672 83.7293 10.072 83.8321 10.0634ZM85.9785 9.86299C86.563 9.66696 87.5222 9.16573 87.4632 9.08714C87.429 9.04151 86.5626 9.14954 86.0279 9.2661C85.7643 9.3235 85.1986 9.48112 84.7707 9.61632L83.9927 9.8621L85.3221 10.0831L85.9785 9.86299ZM83.9895 11.7559C84.0365 11.7443 84.0251 11.7292 83.9605 11.7173C83.9021 11.7067 83.8673 11.7152 83.8832 11.7364C83.8991 11.7576 83.947 11.7664 83.9895 11.7559ZM85.898 13.822C86.2554 14.026 86.6879 14.2905 86.8591 14.4099C87.2804 14.7037 87.2031 14.5684 86.7454 14.2112C86.5424 14.0528 86.1941 13.7629 85.9713 13.5669C85.4069 13.0704 85.1312 12.8878 84.4874 12.584C84.1799 12.4388 83.8923 12.3023 83.8484 12.2805C83.8046 12.2588 84.1016 12.5133 84.5085 12.846C84.959 13.2146 85.5023 13.5961 85.898 13.822ZM84.2204 11.7313C84.2674 11.7197 84.256 11.7046 84.1914 11.6928C84.133 11.6821 84.0982 11.6907 84.1141 11.7119C84.1301 11.7331 84.1779 11.7419 84.2204 11.7313ZM84.7896 11.6623C85.0836 11.614 85.1758 11.6178 85.2343 11.6806C85.2897 11.7401 85.3004 11.742 85.2776 11.6878C85.2606 11.6474 85.2946 11.5937 85.3549 11.5659C85.4251 11.5335 85.4324 11.5201 85.3757 11.5275C84.7072 11.6143 84.3293 11.6786 84.3694 11.6986C84.3965 11.7121 84.5857 11.6958 84.7896 11.6623ZM85.4254 10.2592C85.5101 10.2686 85.5497 10.2592 85.5133 10.2382C85.477 10.2171 85.4647 10.1789 85.4859 10.1532C85.5424 10.0849 85.4419 10.083 85.3525 10.1507C85.2458 10.2314 85.2515 10.2398 85.4254 10.2592ZM86.5957 10.576L87.4899 10.9352L87.9714 10.9038C88.2363 10.8865 88.6617 10.808 88.9168 10.7293C89.7026 10.4868 90.1438 10.459 91.2805 10.5804L92.289 10.6881L91.5776 10.4887C91.1864 10.3791 90.619 10.2281 90.3167 10.1531C90.0144 10.0782 89.5948 9.96828 89.3842 9.90881C89.1736 9.84929 88.9626 9.79434 88.9153 9.78666C88.8681 9.77898 88.6581 9.63341 88.4488 9.46316C88.1802 9.24465 88.0069 9.14465 87.8593 9.12325C87.7367 9.10541 87.6465 9.11982 87.6412 9.15817C87.6361 9.19405 87.6189 9.20589 87.6027 9.18443C87.5866 9.16293 87.35 9.28093 87.0769 9.44661C86.8038 9.61229 86.3576 9.8222 86.0854 9.91303C85.7233 10.0339 85.6052 10.0969 85.6458 10.1476C85.6764 10.1857 86.1039 10.3785 86.5957 10.576ZM85.6216 12.1058C85.9237 12.5144 86.3143 12.8429 86.7826 13.0821C86.9502 13.1678 87.1061 13.2405 87.1291 13.2437C87.2417 13.2596 87.1218 12.9548 86.9016 12.6653C86.7659 12.487 86.6196 12.2679 86.5765 12.1785C86.4404 11.8959 85.384 11.4679 85.3538 11.6831C85.3499 11.7111 85.4704 11.9012 85.6216 12.1058ZM85.7821 10.3517C85.8226 10.3416 85.793 10.3245 85.7164 10.3137C85.6397 10.3029 85.6065 10.3112 85.6427 10.3321C85.6789 10.353 85.7416 10.3619 85.7821 10.3517ZM86.0688 7.83113C86.1782 7.45654 86.3933 7.13393 86.9779 6.46714C87.4302 5.95131 87.9477 5.21536 87.9015 5.15376C87.8871 5.13449 87.8375 5.17055 87.7914 5.23388C87.7453 5.29725 87.5323 5.50707 87.3179 5.70014C86.8756 6.09869 86.778 6.22634 86.4068 6.89168C86.0804 7.47661 86.0647 7.51584 86.0163 7.8637L85.9774 8.14365L86.0688 7.83113ZM86.1011 9.97005C86.326 9.89777 86.7505 9.69513 87.0442 9.5197C87.338 9.34426 87.5751 9.22398 87.5711 9.25242C87.561 9.32419 86.8027 9.76493 86.3639 9.95402C86.0493 10.0895 85.6749 10.1822 85.6879 10.1213C85.6902 10.1104 85.8761 10.0423 86.1011 9.97005ZM85.5729 11.5403C85.6189 11.5468 85.66 11.5277 85.6641 11.4979C85.6683 11.4681 85.6321 11.4529 85.5836 11.4641C85.5351 11.4754 85.494 11.4945 85.4923 11.5066C85.4906 11.5186 85.5269 11.5339 85.5729 11.5403ZM86.2192 11.6851C87.0829 11.9843 87.3522 12.0958 87.8353 12.3542C88.4747 12.6963 88.8701 13.0339 89.1527 13.4789C89.3468 13.7848 89.4023 13.8323 89.6841 13.9334C89.8715 14.0007 90.111 14.1463 90.2767 14.2939L90.5548 14.5416L90.1649 14.0362C89.8468 13.6237 89.7319 13.4121 89.5405 12.8852C89.4114 12.5301 89.2531 12.1844 89.1887 12.117C89.1242 12.0496 88.6819 11.7944 88.2057 11.5497L87.3399 11.105L86.6906 11.2748C86.3334 11.3683 85.9958 11.4519 85.9401 11.4606C85.7703 11.4875 85.8622 11.5614 86.2192 11.6851ZM86.2122 13.2183C86.7263 13.9252 87.1107 14.2158 87.6099 14.2746L87.9207 14.3112L87.6762 14.0044C87.5011 13.7848 87.3116 13.6306 87.0096 13.462C86.7776 13.3325 86.4693 13.1195 86.3247 12.9887C86.1801 12.8579 86.0244 12.7456 85.9786 12.7392C85.933 12.7328 85.8762 12.6798 85.8525 12.6215C85.8287 12.5633 85.8047 12.5427 85.7991 12.5759C85.7935 12.6092 85.9794 12.8982 86.2122 13.2183ZM87.4991 12.5851C88.0615 13.0567 88.649 13.6869 89.0361 14.234C89.2054 14.4732 89.4626 14.814 89.6077 14.9914C89.8189 15.2496 89.8518 15.2748 89.7724 15.1173C89.7179 15.0091 89.6026 14.7102 89.5162 14.4532C89.1794 13.4511 88.7004 12.8961 87.7401 12.3954C87.2844 12.1578 86.5055 11.8349 86.3679 11.8267C86.3466 11.8254 86.4945 11.9134 86.6965 12.0222C86.8986 12.1311 87.2597 12.3844 87.4991 12.5851ZM86.9305 9.03044C86.9774 9.01884 86.9661 9.00371 86.9015 8.99188C86.843 8.98119 86.8083 8.98977 86.8242 9.01096C86.8401 9.03215 86.8879 9.04095 86.9305 9.03044ZM87.2172 9.01373C87.2641 9.00214 87.2527 8.98701 87.1882 8.97517C87.1297 8.96448 87.095 8.97306 87.1109 8.99425C87.1268 9.01545 87.1746 9.02424 87.2172 9.01373ZM86.9977 12.6675C87.1427 12.8272 87.2243 12.9765 87.2337 13.0993C87.2545 13.3716 87.8049 14.1085 88.1892 14.3786C88.5115 14.6052 89.4325 15.0679 89.4838 15.0291C89.5275 14.996 88.7083 13.903 88.3402 13.5034C87.8337 12.9535 86.8561 12.1207 86.6895 12.0972C86.604 12.0852 86.8025 12.4525 86.9977 12.6675ZM87.0479 13.4042C87.2591 13.5242 87.3129 13.5399 87.2691 13.4688C87.2374 13.4171 87.0874 13.3161 86.9359 13.2443C86.7844 13.1725 86.6244 13.0963 86.5805 13.0748C86.4121 12.9925 86.7824 13.2534 87.0479 13.4042ZM87.4459 7.90094C87.5599 7.68237 87.5592 7.68312 87.8343 7.53013C87.9322 7.47575 87.9774 7.42692 87.9348 7.42161C87.7409 7.39749 87.3816 7.75082 87.3521 7.99476C87.3442 8.0597 87.3838 8.02012 87.4459 7.90094ZM87.2734 10.9709C87.3245 10.9792 87.3162 10.9597 87.252 10.9206C87.1944 10.8854 87.097 10.8504 87.0355 10.8427C86.9456 10.8314 86.9498 10.8412 87.0569 10.8931C87.1301 10.9285 87.2275 10.9636 87.2734 10.9709ZM87.7128 6.01904C87.7568 6.02523 87.8991 5.74842 87.8711 5.71114C87.8578 5.6934 87.8143 5.73575 87.7746 5.80539C87.6897 5.95424 87.6726 6.01337 87.7128 6.01904ZM87.5065 8.26608C87.5386 8.35771 87.5968 8.46791 87.6359 8.51104C87.6937 8.57485 87.7167 8.56662 87.7592 8.46716C87.8494 8.25576 87.9916 7.59961 87.9485 7.59353C87.9258 7.59033 87.8289 7.62858 87.7331 7.67851C87.5824 7.75719 87.5368 7.82069 87.4622 8.05593C87.4545 8.07991 87.4745 8.17452 87.5065 8.26608ZM87.4481 8.98917C87.495 8.97757 87.4837 8.96245 87.4191 8.95061C87.3606 8.93992 87.3259 8.9485 87.3418 8.96969C87.3577 8.99088 87.4055 8.99968 87.4481 8.98917ZM87.8377 7.34959C87.9037 7.32526 87.9616 7.27719 87.9664 7.2427C87.9713 7.20822 87.9187 7.21856 87.8495 7.26562C87.7804 7.31268 87.7224 7.36081 87.7208 7.37251C87.7191 7.38421 87.7718 7.37392 87.8377 7.34959ZM87.701 8.87163C87.7115 8.87312 87.7759 8.82442 87.8441 8.76334L87.968 8.65235L87.8275 8.74132C87.6956 8.82492 87.6563 8.86534 87.701 8.87163ZM88.3616 8.99579C88.6518 8.98534 89.1684 8.99348 89.5096 9.01385L90.13 9.05088L89.4864 8.97668C88.8874 8.90767 87.6289 8.91245 87.7707 8.98318C87.8055 9.00052 88.0714 9.00617 88.3616 8.99579ZM88.0961 7.1291C88.1294 7.11438 88.1702 7.00635 88.1866 6.88907C88.2461 6.46429 88.5268 5.71542 88.7648 5.34671C88.9885 4.99998 89.7411 4.21636 89.7891 4.28021C89.8008 4.29584 89.6423 4.46824 89.4369 4.66337C89.0788 5.00355 88.656 5.59061 88.5224 5.93315C88.4363 6.15394 88.4864 6.10173 88.6909 5.7572C88.8731 5.45017 89.0938 5.1714 89.382 4.88409C89.4786 4.7878 89.668 4.57923 89.8029 4.42064C90.1238 4.04341 89.9989 4.04248 89.4947 4.41833C88.8545 4.8957 88.4482 5.43137 88.2518 6.05732C88.1233 6.46662 88.0223 7.16164 88.0961 7.1291ZM87.9668 8.44445C88.0373 8.38022 88.0928 8.34928 88.0902 8.37558C88.0875 8.40192 88.4326 8.17218 88.8572 7.86514C89.2817 7.55805 89.8495 7.17945 90.1189 7.02382C90.8088 6.62533 92.0877 5.83414 92.0921 5.80308C92.0999 5.7471 91.7173 5.91458 91.4977 6.06325C91.3703 6.14959 91.0213 6.32188 90.7224 6.44613C89.8569 6.80596 89.6158 6.96181 89.0954 7.49818C88.6143 7.99392 88.084 8.43266 88.0995 8.32209C88.1039 8.2908 88.196 8.20221 88.304 8.12524C88.4121 8.04827 88.6803 7.80506 88.8999 7.58483C89.1196 7.36459 89.4175 7.0899 89.5621 6.97439L89.8248 6.76434L89.4696 6.86433C89.2742 6.91935 88.9752 7.0191 88.8051 7.08602C88.6351 7.15295 88.4821 7.19432 88.4653 7.17795C88.4484 7.16159 88.445 7.16705 88.4577 7.19008C88.4704 7.2131 88.4218 7.2795 88.3497 7.33772C88.2427 7.42404 87.9779 8.049 87.8514 8.51384C87.8443 8.53984 87.8963 8.50862 87.9668 8.44445ZM87.779 11.2182C87.8094 11.2243 87.8001 11.1994 87.7583 11.1631C87.7165 11.1268 87.6444 11.0931 87.5982 11.0884C87.5094 11.0792 87.6742 11.1975 87.779 11.2182ZM87.5132 13.2322C87.6002 13.3149 87.6851 13.414 87.7019 13.4525C87.7188 13.491 87.6614 13.4548 87.5745 13.3721C87.4875 13.2894 87.4026 13.1903 87.3858 13.1518C87.3689 13.1133 87.4263 13.1495 87.5132 13.2322ZM88.3237 7.00348C88.3454 6.95122 88.384 6.92584 88.4096 6.94719C88.4351 6.96849 88.4466 6.94452 88.435 6.89391C88.4127 6.79722 88.6229 6.51325 88.6701 6.57618C88.6851 6.59623 88.7393 6.57395 88.7904 6.52668C88.8465 6.47482 88.8621 6.47169 88.8295 6.51883C88.7998 6.56175 88.9095 6.48728 89.0731 6.35334C89.6001 5.92201 89.9805 5.2884 90.1015 4.64034C90.1632 4.30989 90.0931 4.16245 89.9615 4.34594C89.9133 4.41313 89.7005 4.64923 89.4886 4.87056C88.9811 5.40065 88.5957 5.97099 88.3966 6.4864C88.3425 6.62657 88.2716 7.12887 88.3237 7.00348ZM88.5706 6.7997C88.624 6.74625 88.6706 6.67576 88.6742 6.64304C88.6778 6.61027 88.6371 6.62725 88.5836 6.68063C88.5303 6.73408 88.4836 6.80457 88.48 6.83729C88.4764 6.87006 88.5172 6.85308 88.5706 6.7997ZM89.1315 6.87637C89.455 6.78109 89.7617 6.70863 89.813 6.71534C89.8932 6.72584 90.8183 6.35253 90.9676 6.24946C90.9962 6.22968 90.96 6.2138 90.8872 6.21411C90.2065 6.21711 89.8991 6.2439 89.5153 6.33354C89.115 6.427 89.0388 6.46805 88.7905 6.72358C88.6379 6.88066 88.5199 7.01827 88.5282 7.02938C88.5366 7.04049 88.808 6.97157 89.1315 6.87637ZM88.6177 9.49397C88.7744 9.60338 89.0383 9.72886 89.2042 9.77278C89.3701 9.81675 89.7526 9.91772 90.0542 9.99719C91.0653 10.2635 92.3544 10.6194 92.4632 10.6623C92.5609 10.7008 92.5627 10.6977 92.482 10.6295C92.3215 10.494 90.2785 9.75015 89.4114 9.51157C88.9446 9.3832 88.49 9.2546 88.4012 9.22588C88.1886 9.15718 88.2574 9.24233 88.6177 9.49397ZM88.3426 14.7042L88.6456 14.7741L88.4072 14.63C88.1703 14.4867 87.9711 14.4242 87.7016 14.4086C87.4872 14.3961 87.9669 14.6173 88.3426 14.7042ZM88.6442 8.21522C88.7246 8.15827 88.8081 8.1142 88.8298 8.11725C88.8515 8.12031 88.9715 8.07385 89.0964 8.01404C89.2215 7.95418 89.5423 7.85917 89.8093 7.80288C90.8726 7.57873 91.2925 7.32075 91.759 6.60509C91.9236 6.35249 92.0896 6.07645 92.1278 5.99158C92.1953 5.84141 92.1938 5.8395 92.075 5.92044C92.0079 5.96613 91.9651 6.03152 91.9801 6.06565C91.995 6.09984 91.9825 6.10715 91.9523 6.08195C91.9221 6.05674 91.7691 6.11934 91.6124 6.22108C91.4556 6.32282 91.0835 6.54538 90.7853 6.71568C89.7835 7.28787 88.5226 8.14352 88.506 8.26248C88.5016 8.29344 88.5639 8.27218 88.6442 8.21522ZM90.7306 9.83723C91.1028 9.97151 91.4903 10.1174 91.5919 10.1615C91.6934 10.2057 91.7869 10.2338 91.7997 10.2241C91.8316 10.2 91.0036 9.817 90.6407 9.68791C90.2585 9.55199 88.9701 9.2209 88.7167 9.19343C88.6089 9.18178 88.8656 9.26692 89.2873 9.38271C89.709 9.49845 90.3585 9.70301 90.7306 9.83723ZM89.3049 6.31492C89.4752 6.21469 90.14 6.13015 90.664 6.14208C91.0698 6.15134 91.2521 6.13015 91.3448 6.06306C91.4702 5.97225 91.4687 5.9713 91.1885 5.96118C91.0329 5.95559 90.7278 5.94077 90.5107 5.92827C89.9168 5.89408 89.6848 5.9396 89.4464 6.13693C89.2298 6.31632 89.1658 6.39676 89.3049 6.31492ZM91.1728 11.3617C91.8182 11.3905 92.3067 11.3555 92.6463 11.2558L92.8431 11.1981L92.6442 11.1969C92.5348 11.1962 91.9293 11.1345 91.2986 11.0596C90.2304 10.9328 88.9121 10.8973 88.6359 10.9879C88.49 11.0358 90.4968 11.3314 91.1728 11.3617ZM89.2595 10.8265C89.527 10.804 90.1565 10.8473 91.1707 10.9577C92.5206 11.1047 93.3126 11.1314 93.4411 11.0343C93.4975 10.9916 91.6324 10.6651 91.049 10.6155C90.7394 10.5892 90.2995 10.5815 90.0715 10.5983C89.6887 10.6266 88.8158 10.8003 88.8471 10.842C88.8545 10.8519 89.0401 10.845 89.2595 10.8265ZM89.8942 4.57502C90.0396 4.30373 90.0913 4.31186 89.954 4.5844C89.8852 4.72108 89.8187 4.83142 89.8062 4.82967C89.7723 4.82489 89.7941 4.7618 89.8942 4.57502ZM90.3206 3.60764C90.3787 3.4847 90.4974 3.29592 90.5846 3.18815L90.743 2.99216L90.5734 3.10785C90.3991 3.22671 90.2727 3.44524 90.2359 3.6914C90.2211 3.79075 90.2456 3.76651 90.3206 3.60764ZM89.6629 12.5867C89.6583 12.6197 89.6072 12.5911 89.5495 12.5231C89.4719 12.432 89.4913 12.5333 89.6233 12.9096C89.7586 13.2955 89.9009 13.5516 90.2082 13.9624C90.4316 14.261 90.605 14.5251 90.5937 14.5494C90.5824 14.5737 90.6016 14.581 90.6366 14.5656C90.6714 14.5502 90.8419 14.6729 91.0154 14.8382C91.2711 15.0817 91.9029 15.5145 92.0288 15.5322C92.0655 15.5374 91.9015 15.3361 91.7643 15.2076C91.4696 14.9315 90.9195 14.2108 90.6085 13.6933C90.4162 13.373 90.1361 12.966 89.9864 12.7886C89.8366 12.6112 89.7396 12.4697 89.7708 12.4741C89.8829 12.4899 90.2382 12.9522 90.6482 13.6158C91.2009 14.5101 91.9782 15.4306 92.151 15.3953C92.2921 15.3665 91.9136 14.6609 91.3411 13.8852C90.8299 13.1925 90.6983 13.0523 90.2797 12.7543C90.0168 12.5672 89.775 12.4259 89.7424 12.4403C89.7097 12.4547 89.6191 12.4152 89.541 12.3525L89.399 12.2384L89.5351 12.3826C89.61 12.4619 89.6675 12.5537 89.6629 12.5867ZM89.7587 14.1603C90.112 14.2855 90.2107 14.2852 89.9834 14.1598C89.7089 14.0082 89.4126 13.9142 89.4252 13.9826C89.4316 14.0176 89.5817 14.0976 89.7587 14.1603ZM89.9818 14.4803L90.3812 14.5436L90.1451 14.4117C90.0153 14.3391 89.8183 14.2523 89.7074 14.2186C89.516 14.1606 89.5077 14.1641 89.5441 14.2873C89.578 14.4019 89.629 14.4244 89.9818 14.4803ZM90.1079 12.4548C90.1978 12.4661 90.1936 12.4562 90.0865 12.4044C89.9045 12.3163 89.7579 12.2956 89.8914 12.3769C89.949 12.412 90.0464 12.4471 90.1079 12.4548ZM89.9836 14.8705C90.1134 14.8669 90.3131 14.8453 90.4273 14.8226L90.6349 14.7813L90.3484 14.6758C90.1907 14.6177 89.962 14.5561 89.84 14.5389L89.6183 14.5077L89.6829 14.6924C89.7438 14.8666 89.761 14.8768 89.9836 14.8705ZM90.6739 9.101C90.7208 9.0894 90.7095 9.07428 90.6449 9.06244C90.5864 9.05175 90.5517 9.06033 90.5676 9.08152C90.5835 9.10272 90.6313 9.11151 90.6739 9.101ZM91.0043 9.20342C91.0448 9.19332 91.0152 9.17619 90.9385 9.16539C90.8618 9.15459 90.8287 9.16288 90.8648 9.18378C90.901 9.20475 90.9638 9.21359 91.0043 9.20342ZM91.7241 12.8289L92.1018 12.8354L91.7167 12.7432C91.5048 12.6925 91.181 12.6296 90.997 12.6035L90.6624 12.556L91.0044 12.6892C91.2541 12.7864 91.4485 12.8241 91.7241 12.8289ZM91.9719 6.76219C92.4657 6.73361 92.7797 6.65693 93.1678 6.46996L93.591 6.26612L93.2793 6.25886C93.1078 6.25492 92.7665 6.25097 92.5209 6.25018L92.0743 6.24863L91.9377 6.46458C91.7539 6.7549 91.7562 6.77469 91.9719 6.76219ZM92.4496 12.7887C93.134 12.8941 93.6412 12.8812 94.4756 12.737L95.0293 12.6414L94.3348 12.5754C93.6915 12.5142 92.6862 12.4915 91.5785 12.5129L91.1225 12.5218L91.4799 12.6081C91.6764 12.6556 92.1128 12.7369 92.4496 12.7887ZM92.9657 6.16309C93.7472 6.15967 93.7646 6.15681 93.4459 6.08441C93.1258 6.01169 92.5033 5.97122 92.2824 6.00879C92.223 6.01892 92.17 6.05855 92.1646 6.0969C92.1571 6.15041 92.3434 6.16581 92.9657 6.16309ZM91.9757 13.1267C92.6746 13.348 93.0509 13.4335 94.2078 13.6341C94.6916 13.718 94.8303 13.7282 94.7143 13.6716C94.6265 13.6287 94.3648 13.4872 94.1328 13.3571C93.7439 13.1391 93.6568 13.1128 93.0143 13.0195C92.3721 12.9263 91.1176 12.8329 91.2415 12.8875C91.271 12.9005 91.6014 13.0081 91.9757 13.1267ZM92.4433 8.6358C92.7471 8.55363 93.2457 8.41332 93.5514 8.32406C94.3382 8.09431 95.1636 7.99077 95.9585 8.02208C96.7129 8.05178 96.6634 7.98315 95.8381 7.85521C94.834 7.69957 93.8722 7.87466 92.6127 8.44238C92.3175 8.57544 92.024 8.69313 91.9604 8.70393C91.8969 8.71473 91.8553 8.73748 91.868 8.75439C91.8807 8.77137 92.1396 8.71799 92.4433 8.6358ZM92.4211 8.99328C93.2865 8.9708 93.8622 8.8945 94.3827 8.73324C94.9638 8.55319 95.7473 8.20885 95.7048 8.15223C95.5707 7.97374 94.2412 8.17226 93.0146 8.55391C92.7693 8.63022 92.4357 8.72812 92.2732 8.77145C92.059 8.82861 92.0248 8.84955 92.1488 8.84766C92.2428 8.84629 92.3704 8.83326 92.4323 8.81875C92.5078 8.80107 92.5295 8.81092 92.4982 8.8487C92.4726 8.87968 92.3095 8.9166 92.1359 8.93073C91.6339 8.97146 91.806 9.00923 92.4211 8.99328ZM91.9017 9.29911C91.9641 9.2515 91.9586 9.24422 91.8749 9.26336C91.8169 9.27667 91.7816 9.3036 91.7964 9.32326C91.8111 9.34292 91.8585 9.33207 91.9017 9.29911ZM92.428 9.39847C92.5094 9.33692 92.391 9.29314 92.1863 9.30906L91.968 9.32609L92.18 9.37593C92.2966 9.40331 92.4082 9.41349 92.428 9.39847ZM92.2208 13.5844C92.5939 13.7499 92.8377 13.8194 93.2457 13.8769C93.7469 13.9475 94.6349 13.946 94.8189 13.8742C94.8639 13.8566 94.4173 13.7587 93.8264 13.6566C93.1061 13.5321 92.5563 13.4047 92.1579 13.27C91.4242 13.022 91.4123 13.0208 91.5883 13.212C91.667 13.2975 91.9516 13.465 92.2208 13.5844ZM93.2353 9.96698C94.1607 10.3032 94.6054 10.4921 95.3333 10.8583C95.9939 11.1906 96.1 11.235 95.9268 11.1065C95.8701 11.0645 95.6742 10.9104 95.4914 10.764C94.949 10.3297 94.5073 10.1202 93.6024 9.86809C93.1486 9.74166 92.6409 9.60697 92.4743 9.56882L92.1712 9.49942L92.3749 9.61391C92.4869 9.67684 92.8741 9.83578 93.2353 9.96698ZM92.2849 9.7456C92.3151 9.74986 92.5139 9.86708 92.7265 10.0061C93.3619 10.4216 94.8116 11.0683 95.3809 11.1902C95.6509 11.2481 95.874 11.2801 95.8766 11.2614C95.887 11.1872 94.2048 10.4151 93.4404 10.1433C92.9942 9.98457 92.5278 9.8019 92.4037 9.73727C92.2797 9.67271 92.1898 9.64641 92.204 9.67884C92.2182 9.71132 92.2546 9.74133 92.2849 9.7456ZM92.027 12.4313C92.0739 12.4197 92.0626 12.4045 91.998 12.3927C91.9395 12.382 91.9048 12.3906 91.9207 12.4118C91.9366 12.433 91.9845 12.4418 92.027 12.4313ZM93.072 12.425C93.5681 12.4322 94.2261 12.4707 94.5342 12.5105C94.9838 12.5686 95.0516 12.5675 94.8778 12.5051C94.5766 12.397 93.9735 12.3142 93.3764 12.299C92.8829 12.2865 92.118 12.3424 92.1526 12.3885C92.1621 12.4013 92.5759 12.4176 93.072 12.425ZM94.4698 9.93752C95.1831 10.2603 96.3756 10.4159 97.8214 10.3747C98.1193 10.3662 98.5284 10.3665 98.7305 10.3753C99.1885 10.3951 94.5601 9.68536 93.4138 9.55993L92.5737 9.46803L93.3212 9.61196C93.8323 9.71043 94.1956 9.81338 94.4698 9.93752ZM93.8613 9.49616C94.0557 9.51241 93.9137 9.48316 93.5456 9.43121C93.1776 9.37925 93.0185 9.36598 93.1921 9.40174C93.3657 9.43749 93.6668 9.47997 93.8613 9.49616ZM93.8856 9.84592L94.0532 9.86697L93.8919 9.80069C93.8032 9.76421 93.6176 9.71867 93.4796 9.6994L93.2286 9.66445L93.4733 9.74463C93.6078 9.7887 93.7934 9.8343 93.8856 9.84592ZM94.3056 9.3848C95.3671 9.49389 96.1432 9.48686 96.8686 9.36161C97.1655 9.31037 97.4597 9.27567 97.5225 9.28451C97.5853 9.29335 97.6268 9.2779 97.6146 9.25022C97.5779 9.16638 96.4828 9.07419 95.7539 9.09358C94.5066 9.12678 93.861 9.18341 93.9725 9.24992C94.0548 9.29902 94.0424 9.3052 93.9077 9.28212C93.6054 9.23035 93.4328 9.22174 93.4277 9.25818C93.4249 9.27795 93.8199 9.3349 94.3056 9.3848ZM94.3437 9.07181C94.4662 9.05726 94.9525 9.0294 95.4244 9.00989C96.1358 8.98057 96.4475 8.99712 97.2491 9.107C98.161 9.23195 98.2028 9.23305 97.9857 9.12643C97.6507 8.96199 96.4832 8.8056 95.8742 8.84365C95.2538 8.88236 94.0722 9.03328 94.0999 9.07024C94.1115 9.08569 94.2212 9.08641 94.3437 9.07181ZM94.1959 9.93958C94.2429 9.92798 94.2315 9.91285 94.1669 9.90102C94.1085 9.89033 94.0737 9.89891 94.0896 9.9201C94.1055 9.94129 94.1534 9.95009 94.1959 9.93958ZM99.1884 10.281C99.2402 10.2644 98.3491 9.95363 97.8427 9.81163C97.002 9.57585 96.542 9.52545 95.4904 9.55379L94.5485 9.5792L96.8589 9.93315C98.1296 10.1278 99.1779 10.2844 99.1884 10.281ZM95.9876 8.13567C96.0282 8.12557 95.9986 8.10844 95.9219 8.09764C95.8452 8.08684 95.8121 8.09513 95.8482 8.11603C95.8844 8.137 95.9472 8.14584 95.9876 8.13567ZM98.0043 10.2813C98.1424 10.3007 98.1973 10.3196 98.1264 10.3232C98.0555 10.3268 97.9426 10.3109 97.8755 10.2879C97.8083 10.2648 97.8663 10.2618 98.0043 10.2813Z" fill="#3C3F59"/>
<path d="M27.1146 22.7211V22.7943C27.1146 22.9568 27.1393 23.1112 27.1887 23.2575C27.2381 23.4038 27.31 23.5316 27.4043 23.6409C27.4957 23.7518 27.6088 23.8397 27.7435 23.9047C27.8783 23.9682 28.0311 24 28.2018 24C28.371 24 28.5223 23.9675 28.6556 23.9025C28.7889 23.8375 28.9019 23.7503 28.9948 23.6409C29.0876 23.5301 29.158 23.4023 29.2059 23.2575C29.2554 23.1112 29.2808 22.9568 29.2823 22.7943V22.7211C29.2808 22.5586 29.2554 22.4042 29.2059 22.2579C29.1565 22.1116 29.0861 21.9831 28.9948 21.8722C28.9004 21.7629 28.7859 21.6757 28.6511 21.6107C28.5178 21.5457 28.3665 21.5132 28.1973 21.5132C28.0266 21.5132 27.8746 21.5457 27.7413 21.6107C27.608 21.6757 27.4949 21.7636 27.4021 21.8745C27.3092 21.9838 27.2381 22.1116 27.1887 22.2579C27.1393 22.4042 27.1146 22.5586 27.1146 22.7211ZM27.3819 22.7943V22.7211C27.3819 22.5955 27.3998 22.4736 27.4358 22.3554C27.4717 22.2372 27.5241 22.133 27.593 22.0429C27.6619 21.9513 27.7465 21.8782 27.8469 21.8235C27.9472 21.7688 28.064 21.7415 28.1973 21.7415C28.3291 21.7415 28.4452 21.7688 28.5455 21.8235C28.6473 21.8782 28.7334 21.9513 28.8038 22.0429C28.8712 22.133 28.9229 22.2372 28.9588 22.3554C28.9948 22.4736 29.0135 22.5955 29.015 22.7211V22.7943C29.0135 22.9213 28.9948 23.044 28.9588 23.1622C28.9244 23.2789 28.8735 23.3831 28.8061 23.4747C28.7357 23.5663 28.6503 23.6395 28.55 23.6941C28.4497 23.7473 28.3336 23.7739 28.2018 23.7739C28.0685 23.7739 27.951 23.7473 27.8491 23.6941C27.7473 23.6395 27.6619 23.5663 27.593 23.4747C27.5241 23.3846 27.4717 23.2804 27.4358 23.1622C27.3998 23.044 27.3819 22.9213 27.3819 22.7943Z" fill="#3D405B"/>
<path d="M30.0146 23.9557H30.2842V22.3177C30.3097 22.2409 30.3456 22.1685 30.392 22.1005C30.4384 22.0311 30.4931 21.9712 30.556 21.921C30.6234 21.8678 30.6983 21.8257 30.7806 21.7947C30.863 21.7622 30.9506 21.7459 31.0435 21.7459C31.1498 21.7444 31.2412 21.7585 31.3175 21.788C31.3954 21.8176 31.4606 21.8612 31.513 21.9188C31.5639 21.9764 31.6013 22.0473 31.6253 22.1316C31.6507 22.2158 31.6642 22.3126 31.6657 22.4219V23.9557H31.933V22.4175C31.933 22.2742 31.9151 22.1463 31.8791 22.034C31.8432 21.9217 31.79 21.8264 31.7196 21.7481C31.6507 21.6713 31.5646 21.6129 31.4613 21.573C31.3595 21.5331 31.2419 21.5132 31.1086 21.5132C31.0083 21.5132 30.9132 21.528 30.8233 21.5575C30.735 21.5871 30.6541 21.627 30.5807 21.6772C30.5178 21.7201 30.4609 21.771 30.41 21.8301C30.3591 21.8892 30.3149 21.9535 30.2775 22.023L30.2617 21.5575H30.0146V23.9557Z" fill="#3D405B"/>
<path d="M32.8406 20.5513V20.7884H33.7054V23.7185H32.8406V23.9557H34.7949V23.7185H33.9728V20.5513H32.8406Z" fill="#3D405B"/>
<path d="M35.6036 21.5575V21.7947H36.464V23.7185H35.6036V23.9557H37.558V23.7185H36.7313V21.5575H35.6036ZM36.3854 20.9014C36.3854 20.9546 36.4011 21.0005 36.4325 21.0389C36.464 21.0773 36.5157 21.0965 36.5875 21.0965C36.6579 21.0965 36.7096 21.0773 36.7425 21.0389C36.7755 21.0005 36.792 20.9546 36.792 20.9014C36.792 20.8719 36.7875 20.8446 36.7785 20.8194C36.7695 20.7943 36.756 20.7729 36.738 20.7552C36.7231 20.7374 36.7029 20.7241 36.6774 20.7153C36.6519 20.7049 36.622 20.6998 36.5875 20.6998C36.5531 20.6998 36.5231 20.7049 36.4977 20.7153C36.4722 20.7241 36.4513 20.7374 36.4348 20.7552C36.4168 20.7744 36.4041 20.7965 36.3966 20.8217C36.3891 20.8468 36.3854 20.8734 36.3854 20.9014Z" fill="#3D405B"/>
<path d="M38.3038 23.9557H38.5733V22.3177C38.5988 22.2409 38.6347 22.1685 38.6812 22.1005C38.7276 22.0311 38.7823 21.9712 38.8452 21.921C38.9125 21.8678 38.9874 21.8257 39.0698 21.7947C39.1522 21.7622 39.2398 21.7459 39.3326 21.7459C39.4389 21.7444 39.5303 21.7585 39.6067 21.788C39.6846 21.8176 39.7497 21.8612 39.8021 21.9188C39.853 21.9764 39.8905 22.0473 39.9144 22.1316C39.9399 22.2158 39.9534 22.3126 39.9549 22.4219V23.9557H40.2222V22.4175C40.2222 22.2742 40.2042 22.1463 40.1683 22.034C40.1323 21.9217 40.0792 21.8264 40.0088 21.7481C39.9399 21.6713 39.8538 21.6129 39.7504 21.573C39.6486 21.5331 39.531 21.5132 39.3978 21.5132C39.2974 21.5132 39.2023 21.528 39.1125 21.5575C39.0241 21.5871 38.9432 21.627 38.8699 21.6772C38.807 21.7201 38.7501 21.771 38.6991 21.8301C38.6482 21.8892 38.604 21.9535 38.5666 22.023L38.5509 21.5575H38.3038V23.9557Z" fill="#3D405B"/>
<path d="M42.1047 24C42.3068 24 42.4843 23.9608 42.637 23.8825C42.7898 23.8042 42.9119 23.7015 43.0032 23.5744L42.8347 23.4481C42.7479 23.5545 42.6438 23.6358 42.5225 23.6919C42.4012 23.7481 42.2656 23.7754 42.1159 23.7739C41.9856 23.7739 41.8665 23.7488 41.7587 23.6986C41.6524 23.6468 41.5618 23.5781 41.4869 23.4924C41.4105 23.4082 41.3514 23.3114 41.3094 23.2021C41.2675 23.0927 41.2435 22.9745 41.2376 22.8475V22.7743H43.0571V22.6125C43.0556 22.4603 43.0332 22.3177 42.9897 22.1848C42.9463 22.0503 42.8819 21.9328 42.7965 21.8323C42.7112 21.7333 42.6063 21.6558 42.482 21.5996C42.3577 21.542 42.2155 21.5132 42.0552 21.5132C41.9025 21.5132 41.7602 21.5449 41.6284 21.6085C41.4966 21.6705 41.3828 21.7555 41.287 21.8634C41.1881 21.9727 41.1103 22.102 41.0533 22.2513C40.9979 22.399 40.9702 22.5579 40.9702 22.7278V22.8231C40.9702 22.9841 40.9979 23.1363 41.0533 23.2797C41.1088 23.4215 41.1866 23.5464 41.287 23.6542C41.3858 23.7606 41.5049 23.8449 41.6441 23.9069C41.7834 23.969 41.9369 24 42.1047 24ZM42.0552 21.7415C42.1706 21.7415 42.2731 21.7636 42.363 21.808C42.4528 21.8508 42.5292 21.9084 42.5921 21.9808C42.6535 22.0532 42.7014 22.1375 42.7359 22.2335C42.7718 22.3296 42.7898 22.4263 42.7898 22.5239V22.5482H41.2488C41.2653 22.433 41.296 22.3259 41.3409 22.2269C41.3858 22.1279 41.4427 22.0422 41.5116 21.9698C41.5805 21.8988 41.6606 21.8434 41.752 21.8035C41.8433 21.7622 41.9444 21.7415 42.0552 21.7415Z" fill="#3D405B"/>
<path d="M48.2013 21.5132C47.9812 21.5117 47.7895 21.5575 47.6263 21.6506C47.463 21.7422 47.3342 21.87 47.2399 22.034V21.9276L47.2242 21.5575H46.9681V23.9557H47.2444L47.2421 22.4219C47.2721 22.3111 47.3148 22.2158 47.3702 22.136C47.4271 22.0547 47.4937 21.9875 47.5701 21.9343C47.6495 21.8796 47.7386 21.8397 47.8374 21.8146C47.9378 21.788 48.0448 21.7747 48.1587 21.7747C48.2245 21.7747 48.2889 21.7784 48.3518 21.7858C48.4147 21.7932 48.4769 21.8035 48.5383 21.8168L48.5742 21.5597C48.5278 21.5449 48.4701 21.5339 48.4013 21.5265C48.3339 21.5176 48.2672 21.5132 48.2013 21.5132Z" fill="#3D405B"/>
<path d="M50.3938 24C50.596 24 50.7734 23.9608 50.9262 23.8825C51.0789 23.8042 51.201 23.7015 51.2924 23.5744L51.1239 23.4481C51.037 23.5545 50.9329 23.6358 50.8116 23.6919C50.6903 23.7481 50.5548 23.7754 50.405 23.7739C50.2747 23.7739 50.1557 23.7488 50.0479 23.6986C49.9415 23.6468 49.8509 23.5781 49.776 23.4924C49.6997 23.4082 49.6405 23.3114 49.5986 23.2021C49.5566 23.0927 49.5327 22.9745 49.5267 22.8475V22.7743H51.3463V22.6125C51.3448 22.4603 51.3223 22.3177 51.2789 22.1848C51.2354 22.0503 51.1711 21.9328 51.0857 21.8323C51.0003 21.7333 50.8955 21.6558 50.7712 21.5996C50.6469 21.542 50.5046 21.5132 50.3444 21.5132C50.1916 21.5132 50.0494 21.5449 49.9176 21.6085C49.7858 21.6705 49.672 21.7555 49.5761 21.8634C49.4773 21.9727 49.3994 22.102 49.3425 22.2513C49.2871 22.399 49.2594 22.5579 49.2594 22.7278V22.8231C49.2594 22.9841 49.2871 23.1363 49.3425 23.2797C49.3979 23.4215 49.4758 23.5464 49.5761 23.6542C49.675 23.7606 49.794 23.8449 49.9333 23.9069C50.0726 23.969 50.2261 24 50.3938 24ZM50.3444 21.7415C50.4597 21.7415 50.5623 21.7636 50.6521 21.808C50.742 21.8508 50.8184 21.9084 50.8813 21.9808C50.9427 22.0532 50.9906 22.1375 51.025 22.2335C51.061 22.3296 51.0789 22.4263 51.0789 22.5239V22.5482H49.5379C49.5544 22.433 49.5851 22.3259 49.63 22.2269C49.675 22.1279 49.7319 22.0422 49.8008 21.9698C49.8696 21.8988 49.9498 21.8434 50.0411 21.8035C50.1325 21.7622 50.2336 21.7415 50.3444 21.7415Z" fill="#3D405B"/>
<path d="M53.815 23.3439C53.815 23.4016 53.8023 23.4533 53.7769 23.4991C53.7529 23.5434 53.7184 23.5833 53.6735 23.6188C53.6046 23.6705 53.523 23.7096 53.4287 23.7362C53.3343 23.7614 53.234 23.7739 53.1276 23.7739C53.0453 23.7739 52.9614 23.7665 52.8761 23.7518C52.7922 23.7355 52.7158 23.7082 52.6469 23.6698C52.575 23.6328 52.5144 23.5826 52.465 23.519C52.417 23.4555 52.3886 23.3764 52.3796 23.2819H52.1123C52.1168 23.3927 52.1452 23.4924 52.1976 23.5811C52.2516 23.6698 52.3249 23.7444 52.4178 23.805C52.5076 23.867 52.614 23.915 52.7368 23.949C52.8596 23.983 52.9899 24 53.1276 24C53.2534 24 53.3777 23.9845 53.5005 23.9535C53.6233 23.9224 53.7312 23.8744 53.824 23.8094C53.9004 23.7562 53.9626 23.689 54.0105 23.6077C54.0584 23.5264 54.0824 23.4341 54.0824 23.3306C54.0824 23.2213 54.0576 23.1282 54.0082 23.0514C53.9588 22.9731 53.8914 22.9066 53.8061 22.8519C53.7207 22.7987 53.6219 22.7544 53.5095 22.7189C53.3987 22.682 53.2819 22.6509 53.1591 22.6258C53.0632 22.6066 52.9711 22.5852 52.8828 22.5615C52.7944 22.5364 52.7188 22.5054 52.6559 22.4685C52.593 22.433 52.5451 22.3901 52.5121 22.3399C52.4807 22.2882 52.465 22.2276 52.465 22.1582C52.465 22.0887 52.4829 22.0281 52.5189 21.9764C52.5563 21.9232 52.6057 21.8796 52.6671 21.8456C52.727 21.8102 52.7952 21.7843 52.8716 21.7681C52.9494 21.7503 53.0296 21.7415 53.1119 21.7415C53.1988 21.7415 53.2826 21.7526 53.3635 21.7747C53.4459 21.7969 53.5193 21.8287 53.5837 21.87C53.6466 21.9114 53.6975 21.9624 53.7364 22.023C53.7769 22.0835 53.7978 22.1522 53.7993 22.2291H54.0689C54.0644 22.1153 54.0367 22.0141 53.9858 21.9254C53.9348 21.8368 53.8667 21.7614 53.7813 21.6994C53.6945 21.6388 53.5934 21.593 53.4781 21.5619C53.3643 21.5294 53.2422 21.5132 53.1119 21.5132C52.9951 21.5132 52.8813 21.528 52.7705 21.5575C52.6611 21.5871 52.5653 21.6284 52.4829 21.6816C52.3961 21.7393 52.3264 21.8087 52.274 21.89C52.2231 21.9712 52.1976 22.0636 52.1976 22.167C52.1976 22.2764 52.2231 22.3695 52.274 22.4463C52.3264 22.5217 52.3946 22.5837 52.4784 22.6325C52.5683 22.6842 52.6649 22.7263 52.7682 22.7588C52.8716 22.7913 52.9854 22.8201 53.1097 22.8452C53.207 22.8659 53.3014 22.8911 53.3927 22.9206C53.4856 22.9502 53.5642 22.9856 53.6286 23.027C53.687 23.0639 53.7327 23.109 53.7656 23.1622C53.7986 23.2139 53.815 23.2745 53.815 23.3439Z" fill="#3D405B"/>
<path d="M55.7784 20.9436H55.5066V21.5575H54.8304V21.7769H55.5066V23.2797C55.5081 23.4112 55.5275 23.5227 55.565 23.6143C55.6039 23.706 55.6571 23.7798 55.7245 23.836C55.7919 23.8936 55.8712 23.935 55.9626 23.9601C56.0554 23.9867 56.1558 24 56.2636 24C56.316 24 56.3684 23.9985 56.4208 23.9956C56.4748 23.9926 56.5264 23.9867 56.5758 23.9778C56.6148 23.9719 56.6515 23.9645 56.6859 23.9557C56.7219 23.9468 56.7533 23.9357 56.7803 23.9224L56.7398 23.7207C56.7174 23.7252 56.6904 23.7303 56.659 23.7362C56.629 23.7407 56.5983 23.7451 56.5669 23.7495C56.5249 23.754 56.4822 23.7584 56.4388 23.7628C56.3954 23.7658 56.352 23.7673 56.3085 23.7673C56.2351 23.7673 56.1663 23.7591 56.1019 23.7429C56.0375 23.7266 55.9813 23.6993 55.9334 23.6609C55.8855 23.6239 55.848 23.5744 55.8211 23.5124C55.7941 23.4503 55.7799 23.3728 55.7784 23.2797V21.7769H56.6792V21.5575H55.7784V20.9436Z" fill="#3D405B"/>
<path d="M59.3164 23.9557H59.604L59.6017 23.9291C59.5807 23.8552 59.5628 23.7776 59.5478 23.6963C59.5343 23.6151 59.5276 23.5338 59.5276 23.4525V22.2934C59.5261 22.1633 59.5006 22.0496 59.4512 21.952C59.4033 21.8545 59.3381 21.7725 59.2558 21.706C59.1719 21.6425 59.0738 21.5944 58.9615 21.5619C58.8492 21.5294 58.7286 21.5132 58.5998 21.5132C58.471 21.5132 58.3497 21.5309 58.2359 21.5664C58.1236 21.6018 58.0248 21.6506 57.9394 21.7127C57.854 21.7762 57.7859 21.8508 57.735 21.9365C57.6841 22.0222 57.6563 22.116 57.6519 22.218L57.9214 22.2202C57.9229 22.1449 57.9424 22.0776 57.9798 22.0185C58.0188 21.9579 58.0682 21.907 58.1281 21.8656C58.1895 21.8242 58.2599 21.7924 58.3393 21.7703C58.4186 21.7481 58.5017 21.737 58.5886 21.737C58.6829 21.737 58.7705 21.7496 58.8514 21.7747C58.9338 21.7984 59.0049 21.8331 59.0648 21.8789C59.1247 21.9247 59.1719 21.9823 59.2064 22.0518C59.2408 22.1197 59.2588 22.1988 59.2603 22.2889V22.5593H58.7324C58.5811 22.5608 58.4366 22.5756 58.2988 22.6037C58.161 22.6303 58.0405 22.6731 57.9371 22.7322C57.8323 22.7943 57.7485 22.8733 57.6856 22.9694C57.6242 23.0654 57.5935 23.1821 57.5935 23.3196C57.5935 23.423 57.6144 23.5168 57.6564 23.601C57.6983 23.6838 57.7552 23.7547 57.8271 23.8138C57.899 23.8729 57.9843 23.9187 58.0832 23.9512C58.182 23.9837 58.2876 24 58.3999 24C58.4898 24 58.5759 23.9904 58.6582 23.9712C58.7421 23.9535 58.8215 23.9269 58.8964 23.8914C58.9697 23.8574 59.0371 23.816 59.0985 23.7673C59.1614 23.717 59.2161 23.6616 59.2625 23.601C59.2655 23.6631 59.2707 23.7244 59.2782 23.785C59.2872 23.8456 59.3 23.9025 59.3164 23.9557ZM58.4291 23.7628C58.3512 23.7628 58.2771 23.7525 58.2067 23.7318C58.1378 23.7097 58.0779 23.6779 58.027 23.6365C57.9761 23.5966 57.9357 23.5478 57.9057 23.4902C57.8757 23.4326 57.8608 23.3676 57.8608 23.2952C57.8608 23.2065 57.8802 23.1312 57.9192 23.0691C57.9596 23.0056 58.0143 22.9524 58.0832 22.9095C58.1685 22.8563 58.2711 22.8194 58.3909 22.7987C58.5107 22.778 58.6373 22.7669 58.7706 22.7655H59.2603V23.293C59.2258 23.3639 59.1809 23.4282 59.1255 23.4858C59.0701 23.5434 59.0064 23.5929 58.9345 23.6343C58.8627 23.6757 58.784 23.7082 58.6987 23.7318C58.6133 23.754 58.5235 23.7643 58.4291 23.7628Z" fill="#3D405B"/>
<path d="M62.0548 23.9557H62.3041V21.5575H62.0345V23.2464C62.0136 23.3247 61.9821 23.3957 61.9402 23.4592C61.8998 23.5213 61.8496 23.5744 61.7897 23.6188C61.7253 23.6661 61.6504 23.703 61.5651 23.7296C61.4797 23.7547 61.3846 23.7673 61.2798 23.7673C61.1794 23.7673 61.0918 23.7518 61.0169 23.7207C60.9436 23.6897 60.8829 23.6432 60.835 23.5811C60.7856 23.5205 60.7489 23.4452 60.7249 23.355C60.7009 23.2634 60.6882 23.157 60.6867 23.0359V21.5575H60.4194V23.0314C60.4209 23.1866 60.4396 23.324 60.4756 23.4437C60.5115 23.5634 60.5647 23.6638 60.6351 23.7451C60.7054 23.8279 60.7915 23.8914 60.8934 23.9357C60.9967 23.9786 61.1158 24 61.2506 24C61.4333 24 61.5913 23.9631 61.7245 23.8892C61.8578 23.8138 61.9642 23.7096 62.0435 23.5767L62.0548 23.9557Z" fill="#3D405B"/>
<path d="M64.7796 21.5132C64.5595 21.5117 64.3678 21.5575 64.2046 21.6506C64.0413 21.7422 63.9125 21.87 63.8182 22.034V21.9276L63.8024 21.5575H63.5464V23.9557H63.8227L63.8204 22.4219C63.8504 22.3111 63.8931 22.2158 63.9485 22.136C64.0054 22.0547 64.072 21.9875 64.1484 21.9343C64.2278 21.8796 64.3169 21.8397 64.4157 21.8146C64.5161 21.788 64.6231 21.7747 64.7369 21.7747C64.8028 21.7747 64.8672 21.7784 64.9301 21.7858C64.993 21.7932 65.0552 21.8035 65.1166 21.8168L65.1525 21.5597C65.1061 21.5449 65.0484 21.5339 64.9796 21.5265C64.9122 21.5176 64.8455 21.5132 64.7796 21.5132Z" fill="#3D405B"/>
<path d="M67.6056 23.9557H67.8931L67.8909 23.9291C67.8699 23.8552 67.8519 23.7776 67.8369 23.6963C67.8235 23.6151 67.8167 23.5338 67.8167 23.4525V22.2934C67.8152 22.1633 67.7898 22.0496 67.7404 21.952C67.6924 21.8545 67.6273 21.7725 67.5449 21.706C67.4611 21.6425 67.363 21.5944 67.2506 21.5619C67.1383 21.5294 67.0178 21.5132 66.889 21.5132C66.7602 21.5132 66.6389 21.5309 66.5251 21.5664C66.4127 21.6018 66.3139 21.6506 66.2285 21.7127C66.1432 21.7762 66.075 21.8508 66.0241 21.9365C65.9732 22.0222 65.9455 22.116 65.941 22.218L66.2106 22.2202C66.2121 22.1449 66.2315 22.0776 66.269 22.0185C66.3079 21.9579 66.3573 21.907 66.4172 21.8656C66.4786 21.8242 66.549 21.7924 66.6284 21.7703C66.7078 21.7481 66.7909 21.737 66.8777 21.737C66.9721 21.737 67.0597 21.7496 67.1406 21.7747C67.2229 21.7984 67.2941 21.8331 67.354 21.8789C67.4139 21.9247 67.4611 21.9823 67.4955 22.0518C67.5299 22.1197 67.5479 22.1988 67.5494 22.2889V22.5593H67.0215C66.8703 22.5608 66.7257 22.5756 66.588 22.6037C66.4502 22.6303 66.3296 22.6731 66.2263 22.7322C66.1215 22.7943 66.0376 22.8733 65.9747 22.9694C65.9133 23.0654 65.8826 23.1821 65.8826 23.3196C65.8826 23.423 65.9036 23.5168 65.9455 23.601C65.9874 23.6838 66.0443 23.7547 66.1162 23.8138C66.1881 23.8729 66.2735 23.9187 66.3723 23.9512C66.4711 23.9837 66.5767 24 66.689 24C66.7789 24 66.865 23.9904 66.9474 23.9712C67.0312 23.9535 67.1106 23.9269 67.1855 23.8914C67.2589 23.8574 67.3263 23.816 67.3877 23.7673C67.4506 23.717 67.5052 23.6616 67.5517 23.601C67.5546 23.6631 67.5599 23.7244 67.5674 23.785C67.5764 23.8456 67.5891 23.9025 67.6056 23.9557ZM66.7183 23.7628C66.6404 23.7628 66.5662 23.7525 66.4959 23.7318C66.427 23.7097 66.3671 23.6779 66.3161 23.6365C66.2652 23.5966 66.2248 23.5478 66.1948 23.4902C66.1649 23.4326 66.1499 23.3676 66.1499 23.2952C66.1499 23.2065 66.1694 23.1312 66.2083 23.0691C66.2488 23.0056 66.3034 22.9524 66.3723 22.9095C66.4577 22.8563 66.5602 22.8194 66.6801 22.7987C66.7999 22.778 66.9264 22.7669 67.0597 22.7655H67.5494V23.293C67.515 23.3639 67.47 23.4282 67.4146 23.4858C67.3592 23.5434 67.2956 23.5929 67.2237 23.6343C67.1518 23.6757 67.0732 23.7082 66.9878 23.7318C66.9025 23.754 66.8126 23.7643 66.7183 23.7628Z" fill="#3D405B"/>
<path d="M68.6973 23.9557H68.9669V22.3177C68.9923 22.2409 69.0283 22.1685 69.0747 22.1005C69.1211 22.0311 69.1758 21.9712 69.2387 21.921C69.3061 21.8678 69.381 21.8257 69.4633 21.7947C69.5457 21.7622 69.6333 21.7459 69.7262 21.7459C69.8325 21.7444 69.9238 21.7585 70.0002 21.788C70.0781 21.8176 70.1432 21.8612 70.1957 21.9188C70.2466 21.9764 70.284 22.0473 70.308 22.1316C70.3334 22.2158 70.3469 22.3126 70.3484 22.4219V23.9557H70.6157V22.4175C70.6157 22.2742 70.5977 22.1463 70.5618 22.034C70.5259 21.9217 70.4727 21.8264 70.4023 21.7481C70.3334 21.6713 70.2473 21.6129 70.144 21.573C70.0421 21.5331 69.9246 21.5132 69.7913 21.5132C69.691 21.5132 69.5959 21.528 69.506 21.5575C69.4177 21.5871 69.3368 21.627 69.2634 21.6772C69.2005 21.7201 69.1436 21.771 69.0927 21.8301C69.0418 21.8892 68.9976 21.9535 68.9601 22.023L68.9444 21.5575H68.6973V23.9557Z" fill="#3D405B"/>
<path d="M72.3567 20.9436H72.0849V21.5575H71.4087V21.7769H72.0849V23.2797C72.0863 23.4112 72.1058 23.5227 72.1433 23.6143C72.1822 23.706 72.2354 23.7798 72.3028 23.836C72.3701 23.8936 72.4495 23.935 72.5409 23.9601C72.6337 23.9867 72.7341 24 72.8419 24C72.8943 24 72.9467 23.9985 72.9991 23.9956C73.053 23.9926 73.1047 23.9867 73.1541 23.9778C73.1931 23.9719 73.2298 23.9645 73.2642 23.9557C73.3001 23.9468 73.3316 23.9357 73.3586 23.9224L73.3181 23.7207C73.2957 23.7252 73.2687 23.7303 73.2373 23.7362C73.2073 23.7407 73.1766 23.7451 73.1451 23.7495C73.1032 23.754 73.0605 23.7584 73.0171 23.7628C72.9737 23.7658 72.9302 23.7673 72.8868 23.7673C72.8134 23.7673 72.7445 23.7591 72.6801 23.7429C72.6157 23.7266 72.5596 23.6993 72.5117 23.6609C72.4637 23.6239 72.4263 23.5744 72.3993 23.5124C72.3724 23.4503 72.3582 23.3728 72.3567 23.2797V21.7769H73.2575V21.5575H72.3567V20.9436Z" fill="#3D405B"/>
</svg>
