<svg width="76" height="34" viewBox="0 0 76 34" fill="none" xmlns="http://www.w3.org/2000/svg">
<path d="M0.5 7.84804C0.5 3.51369 4.05075 0 8.43083 0H26.9278C31.3079 0 34.8587 3.51369 34.8587 7.84804V26.152C34.8587 30.4863 31.3079 34 26.9278 34H8.43083C4.05075 34 0.5 30.4863 0.5 26.152V7.84804Z" fill="#0F0F10"/>
<path d="M20.2635 13.3229V10.1535C20.2635 9.67588 19.8721 9.28564 19.3865 9.28564H18.3389V11.4989C18.3389 12.2765 18.3389 15.7693 18.3389 16.5614C18.7303 15.9411 19.2571 14.5373 19.7691 14.2082C20.0752 14.0131 20.2635 13.6811 20.2635 13.3229Z" fill="#FD6721"/>
<path d="M27.8209 16.1002C27.5855 14.7635 26.888 13.7122 25.7432 12.9725C24.9545 12.4628 24.0864 12.2037 23.1623 12.2037C22.8268 12.2037 22.4825 12.2386 22.1323 12.3056C22.1352 12.3085 18.3712 13.121 18.3418 16.6593C18.3418 16.7146 18.3418 16.7729 18.3418 16.8282C18.3418 17.1806 18.3683 17.4893 18.4183 17.7718C18.6567 19.1026 19.3483 20.151 20.4754 20.8878C21.2671 21.4062 22.1411 21.6683 23.0681 21.6683C23.3624 21.6683 23.6655 21.642 23.9686 21.5896C25.3106 21.3567 26.3701 20.6694 27.1146 19.5482C27.8033 18.5114 28.0416 17.3524 27.8209 16.1002ZM23.124 19.7957H23.1093C21.5084 19.787 20.2576 18.5318 20.2606 16.936C20.2635 15.3343 21.5172 14.0791 23.1152 14.0791H23.1211C23.898 14.0791 24.622 14.3761 25.1576 14.9091C25.6961 15.4449 25.9904 16.1701 25.9904 16.9505C25.9845 18.5464 24.725 19.7986 23.124 19.7986V19.7957Z" fill="#FD6721"/>
<path d="M7.54071 15.9865C7.89974 13.6772 9.88327 11.9998 12.2552 11.9998C12.476 11.9998 12.7026 12.0143 12.9233 12.0434C13.2088 12.0813 13.4854 12.1425 13.7503 12.224C14.1829 12.358 14.4801 12.754 14.4801 13.2025V14.8071C13.9474 14.2421 13.1911 13.8927 12.3347 13.8927C11.5372 13.8927 10.7926 14.1926 10.2423 14.7372C9.68903 15.2847 9.38592 16.0273 9.38592 16.8223C9.38592 18.4619 10.6837 19.7491 12.3347 19.752C13.1264 19.752 13.865 19.4491 14.4124 18.9016C14.9598 18.3541 15.2629 17.6174 15.2629 16.8252V12.1803H16.1605C16.7314 12.1803 17.1934 12.6375 17.1934 13.2025V24.7144H16.2929C15.722 24.7144 15.2599 24.2571 15.2599 23.6922V20.6227C14.4153 21.2867 13.3588 21.6537 12.2464 21.6537C11.2959 21.6537 10.3865 21.3799 9.61545 20.8586C7.93211 19.7229 7.21111 18.0367 7.53189 15.9865H7.54071Z" fill="#FD6721"/>
<path d="M45.2395 21.5416C45.0247 21.7155 44.7612 21.8459 44.4488 21.9328C44.1462 22.0197 43.8241 22.0632 43.4825 22.0632C42.6235 22.0632 41.9598 21.841 41.4912 21.3967C41.0227 20.9524 40.7885 20.3052 40.7885 19.4552V15.7317H39.5V14.2828H40.7885V12.5152H42.6186V14.2828H44.7124V15.7317H42.6186V19.4118C42.6186 19.7885 42.7114 20.0783 42.8968 20.2811C43.0823 20.4743 43.3507 20.5709 43.7021 20.5709C44.1121 20.5709 44.4537 20.4646 44.727 20.2521L45.2395 21.5416Z" fill="black"/>
<path d="M50.0016 22.0632C49.211 22.0632 48.4984 21.8942 47.864 21.5561C47.2295 21.218 46.7317 20.7496 46.3705 20.1507C46.0191 19.5422 45.8434 18.8564 45.8434 18.0933C45.8434 17.3302 46.0191 16.6493 46.3705 16.0504C46.7317 15.4515 47.2295 14.9831 47.864 14.645C48.4984 14.3069 49.211 14.1379 50.0016 14.1379C50.802 14.1379 51.5195 14.3069 52.1539 14.645C52.7884 14.9831 53.2813 15.4515 53.6327 16.0504C53.9939 16.6493 54.1745 17.3302 54.1745 18.0933C54.1745 18.8564 53.9939 19.5422 53.6327 20.1507C53.2813 20.7496 52.7884 21.218 52.1539 21.5561C51.5195 21.8942 50.802 22.0632 50.0016 22.0632ZM50.0016 20.5129C50.6751 20.5129 51.2315 20.2908 51.6708 19.8464C52.11 19.4021 52.3296 18.8177 52.3296 18.0933C52.3296 17.3689 52.11 16.7845 51.6708 16.3402C51.2315 15.8959 50.6751 15.6737 50.0016 15.6737C49.3281 15.6737 48.7717 15.8959 48.3325 16.3402C47.903 16.7845 47.6883 17.3689 47.6883 18.0933C47.6883 18.8177 47.903 19.4021 48.3325 19.8464C48.7717 20.2908 49.3281 20.5129 50.0016 20.5129Z" fill="black"/>
<path d="M59.4386 22.0632C58.6479 22.0632 57.9354 21.8942 57.3009 21.5561C56.6664 21.218 56.1686 20.7496 55.8075 20.1507C55.4561 19.5422 55.2804 18.8564 55.2804 18.0933C55.2804 17.3302 55.4561 16.6493 55.8075 16.0504C56.1686 15.4515 56.6664 14.9831 57.3009 14.645C57.9354 14.3069 58.6479 14.1379 59.4386 14.1379C60.239 14.1379 60.9564 14.3069 61.5909 14.645C62.2253 14.9831 62.7183 15.4515 63.0697 16.0504C63.4308 16.6493 63.6114 17.3302 63.6114 18.0933C63.6114 18.8564 63.4308 19.5422 63.0697 20.1507C62.7183 20.7496 62.2253 21.218 61.5909 21.5561C60.9564 21.8942 60.239 22.0632 59.4386 22.0632ZM59.4386 20.5129C60.1121 20.5129 60.6684 20.2908 61.1077 19.8464C61.5469 19.4021 61.7666 18.8177 61.7666 18.0933C61.7666 17.3689 61.5469 16.7845 61.1077 16.3402C60.6684 15.8959 60.1121 15.6737 59.4386 15.6737C58.765 15.6737 58.2087 15.8959 57.7694 16.3402C57.3399 16.7845 57.1252 17.3689 57.1252 18.0933C57.1252 18.8177 57.3399 19.4021 57.7694 19.8464C58.2087 20.2908 58.765 20.5129 59.4386 20.5129Z" fill="black"/>
<path d="M65.3615 11.2112H67.1917V21.9618H65.3615V11.2112Z" fill="black"/>
<path d="M72.0097 22.0632C71.3752 22.0632 70.7554 21.9811 70.1502 21.8169C69.545 21.6527 69.0618 21.445 68.7007 21.1939L69.4035 19.8175C69.7549 20.0493 70.1746 20.2376 70.6627 20.3825C71.1605 20.5177 71.6485 20.5854 72.1268 20.5854C73.22 20.5854 73.7667 20.3004 73.7667 19.7305C73.7667 19.4601 73.6251 19.2717 73.3421 19.1655C73.0687 19.0592 72.6246 18.9578 72.0097 18.8612C71.3655 18.7646 70.8384 18.6535 70.4284 18.528C70.0282 18.4024 69.6768 18.1851 69.3742 17.876C69.0814 17.5572 68.935 17.1177 68.935 16.5575C68.935 15.8234 69.2424 15.239 69.8574 14.8044C70.4821 14.3601 71.3215 14.1379 72.3757 14.1379C72.9126 14.1379 73.4494 14.2007 73.9863 14.3262C74.5231 14.4422 74.9624 14.6015 75.304 14.8044L74.6012 16.1808C73.9375 15.7944 73.1908 15.6013 72.3611 15.6013C71.8242 15.6013 71.4143 15.6834 71.1312 15.8476C70.8579 16.0021 70.7212 16.2098 70.7212 16.4706C70.7212 16.7603 70.8676 16.968 71.1605 17.0936C71.4631 17.2095 71.9267 17.3206 72.5514 17.4268C73.1761 17.5234 73.6886 17.6345 74.0888 17.7601C74.489 17.8856 74.8306 18.0981 75.1137 18.3976C75.4065 18.697 75.5529 19.122 75.5529 19.6726C75.5529 20.397 75.2357 20.9766 74.6012 21.4112C73.9668 21.8459 73.1029 22.0632 72.0097 22.0632Z" fill="black"/>
</svg>
