<svg width="144" height="36" viewBox="0 0 144 36" fill="none" xmlns="http://www.w3.org/2000/svg">
<path d="M9.82135 28.7924C9.49279 28.7924 9.32852 28.615 9.32852 28.2603C9.32852 27.9562 9.51807 27.4241 9.89717 26.664C10.251 25.9799 10.8449 25.093 11.6789 24.0035C12.513 22.8886 13.5618 21.5837 14.8255 20.0888C15.3309 18.9739 15.7985 17.8337 16.2281 16.6681C16.6578 15.5026 17.0495 14.299 17.4034 13.0574C17.8836 11.3598 18.2374 9.99153 18.4648 8.95267C18.7176 7.88847 18.8439 6.98897 18.8439 6.25416C18.8439 4.78455 18.2879 4.04975 17.1759 4.04975C15.2804 4.04975 13.3217 4.73388 11.2998 6.10213C9.98562 7.01431 8.74723 8.07851 7.58465 9.29473C6.42208 10.511 5.39851 11.7779 4.51394 13.0955C3.65464 14.3877 2.99753 15.6293 2.54261 16.8202C2.28988 17.4029 2.16351 17.9224 2.16351 18.3784C2.16351 19.1893 2.6058 19.5947 3.49037 19.5947C3.94529 19.5947 4.60239 19.4426 5.46169 19.1386C6.29571 18.8345 7.18028 18.4038 8.11539 17.8463C9.05051 17.2889 9.97299 16.6555 10.8828 15.946C11.7927 15.2365 12.6014 14.5144 13.3091 13.7796C13.6629 13.4248 13.9535 13.2475 14.181 13.2475C14.3074 13.2475 14.3706 13.3108 14.3706 13.4375C14.3706 13.5895 14.2568 13.7796 14.0294 14.0076C13.2206 14.8184 12.2602 15.6546 11.1482 16.5161C10.0362 17.3523 8.91151 18.1124 7.7742 18.7965C6.6369 19.4807 5.57542 20.0128 4.58976 20.3928C3.78101 20.7222 3.02281 20.8869 2.31515 20.8869C1.15258 20.8869 0.571289 20.3295 0.571289 19.2146C0.571289 18.5051 0.773476 17.6563 1.17785 16.6681C1.91078 14.8691 3.19972 12.8674 5.04468 10.663C6.30835 9.19338 7.66047 7.86313 9.10106 6.67224C10.5669 5.45601 12.0454 4.49317 13.5365 3.7837C15.0277 3.07423 16.4303 2.7195 17.7446 2.7195C19.5895 2.7195 20.512 3.83437 20.512 6.06413C20.512 6.90028 20.3983 7.83779 20.1708 8.87666C19.9433 9.91552 19.6274 11.1064 19.223 12.4493C19.1725 12.6014 19.122 12.7661 19.0714 12.9434C19.0209 13.0954 18.9703 13.2601 18.9198 13.4375C18.7934 13.9189 18.6418 14.4384 18.4648 14.9958C18.2879 15.5279 18.0731 16.1107 17.8204 16.7441C18.3764 16.1614 18.9324 15.6166 19.4884 15.1098C20.0697 14.5777 20.651 14.071 21.2323 13.5895C21.6367 13.2601 22.1042 12.8927 22.635 12.4873C23.1657 12.0566 23.7723 11.5878 24.4546 11.0811C25.415 10.3463 26.2364 9.97886 26.9188 9.97886C27.2221 9.97886 27.4495 10.0675 27.6012 10.2449C27.7781 10.3969 27.8034 10.5616 27.677 10.739L26.6913 12.3733C26.2111 13.1841 25.8194 13.8429 25.5161 14.3497C25.2128 14.8564 25.0107 15.2112 24.9096 15.4139C24.5052 16.1234 24.0755 16.9342 23.6206 17.8463C23.1657 18.7332 22.774 19.582 22.4454 20.3928C22.1421 21.2036 21.9905 21.8624 21.9905 22.3692C21.9905 22.9266 22.2179 23.2054 22.6729 23.2054C23.0772 23.2054 23.6459 22.9646 24.3788 22.4832C25.1117 21.9765 25.8194 21.4063 26.5018 20.7729C28.3467 19.0752 29.939 17.4029 31.2785 15.756C32.6432 14.0836 33.8311 12.1706 34.842 10.0169C35.3222 9.02869 35.5623 8.15452 35.5623 7.39438C35.5623 6.22883 34.9052 5.63338 33.591 5.60804C33.2624 5.60804 33.0981 5.53203 33.0981 5.38C33.0981 5.27865 33.1613 5.16462 33.2877 5.03793C33.6415 4.6832 34.0964 4.50583 34.6524 4.50583C35.2843 4.50583 35.815 4.72121 36.2447 5.15196C36.6743 5.55737 36.8891 6.15281 36.8891 6.93829C36.8891 7.77445 36.5985 8.83865 36.0172 10.1309C35.6128 10.967 35.1958 11.7525 34.7662 12.4873C34.3618 13.2221 33.9322 13.9063 33.4772 14.5397C32.8707 15.3759 32.2767 16.136 31.6955 16.8202C31.1394 17.4789 30.5076 18.1631 29.8 18.8725C29.0923 19.582 28.2077 20.4435 27.1463 21.457C26.6661 21.9131 26.11 22.3565 25.4782 22.7873C24.8716 23.218 24.2651 23.5728 23.6585 23.8515C23.052 24.1049 22.5212 24.2315 22.0663 24.2315C21.207 24.2315 20.7774 23.7248 20.7774 22.7113C20.7774 22.1538 20.929 21.419 21.2323 20.5068C21.3586 20.0761 21.5356 19.5947 21.763 19.0626C21.9905 18.5305 22.2432 17.9477 22.5212 17.3142C22.6981 16.9595 22.913 16.5288 23.1657 16.022C23.4184 15.4899 23.7091 14.9071 24.0376 14.2737C24.0376 14.2737 24.2019 13.9696 24.5305 13.3615C24.8337 12.7787 24.9854 12.3606 24.9854 12.1073C24.9854 11.9806 24.9475 11.9172 24.8716 11.9172C24.7958 11.9172 24.6442 11.9932 24.4167 12.1453C23.0267 13.1335 21.8515 14.0203 20.8911 14.8058C19.9307 15.5913 19.0209 16.4401 18.1616 17.3523C17.8077 17.7577 17.4413 18.2011 17.0622 18.6825C16.6831 19.1639 16.2913 19.6834 15.887 20.2408C15.0529 22.1665 14.2316 23.8388 13.4228 25.2577C12.6141 26.702 11.919 27.6522 11.3377 28.1083C10.7312 28.5644 10.2257 28.7924 9.82135 28.7924Z" fill="#3C3F59"/>
<path d="M36.4046 15.832C36.076 15.832 35.9118 15.756 35.9118 15.6039C35.9118 15.4772 36.0002 15.2999 36.1771 15.0718C36.3793 14.8184 36.6068 14.6031 36.8595 14.4257C37.4155 14.071 37.8452 13.7669 38.1485 13.5135C38.477 13.2601 38.8688 12.8294 39.3237 12.2213C39.349 12.272 39.3616 12.3733 39.3616 12.5253C39.3616 12.8547 39.2226 13.2601 38.9446 13.7416C38.6918 14.1977 38.4012 14.6157 38.0726 14.9958C37.7441 15.3759 37.4534 15.6166 37.2007 15.7179C36.9733 15.794 36.7079 15.832 36.4046 15.832ZM33.0306 25.1437C32.8284 25.1437 32.6389 25.0677 32.462 24.9157C32.285 24.7636 32.1966 24.5609 32.1966 24.3076C32.1966 23.7755 32.563 22.7999 33.296 21.381L33.713 20.5449C33.7635 20.4942 33.8267 20.3675 33.9025 20.1648C34.0036 19.9621 34.1426 19.696 34.3195 19.3666C34.4965 19.0119 34.6355 18.6952 34.7366 18.4165C34.8377 18.1377 34.9135 17.8717 34.964 17.6183C34.964 17.593 35.0146 17.5423 35.1157 17.4663C35.2168 17.3903 35.3178 17.3269 35.4189 17.2762L35.6464 17.2382C35.8486 17.2382 36.0129 17.2762 36.1392 17.3523C36.2909 17.4283 36.3414 17.5296 36.2909 17.6563C36.114 18.0364 35.9623 18.3658 35.8359 18.6445C35.7096 18.9232 35.6085 19.1639 35.5327 19.3666H35.4948C35.2168 20.0001 34.9767 20.6082 34.7745 21.191C34.5976 21.7484 34.5217 22.2805 34.547 22.7873L34.5849 23.8135C34.5596 24.0668 34.4712 24.2822 34.3195 24.4596C34.2185 24.5356 34.0795 24.6243 33.9025 24.7256C33.7256 24.8523 33.4982 24.979 33.2202 25.1057C33.1949 25.1311 33.1317 25.1437 33.0306 25.1437Z" fill="#3C3F59"/>
<path d="M36.76 26.664C36.482 26.664 36.2419 26.5753 36.0397 26.398C35.8628 26.2206 35.787 26.0052 35.8123 25.7518C35.8628 24.713 36.0524 23.7121 36.3809 22.7493C36.7347 21.7864 37.2402 20.6335 37.8973 19.2906C37.9731 19.1132 38.0363 18.9612 38.0869 18.8345C38.1627 18.6825 38.2259 18.5558 38.2764 18.4545C38.8324 17.2636 39.4011 16.1234 39.9824 15.0338C40.5637 13.9443 41.1449 12.8801 41.7262 11.8412L42.257 10.891C42.8635 9.8015 43.3943 8.92733 43.8492 8.26854C44.3041 7.58441 44.759 7.09032 45.214 6.78626C45.7952 6.43153 46.1491 6.25416 46.2754 6.25416C46.4776 6.25416 46.6798 6.43153 46.882 6.78626C47.0084 7.03964 46.7556 7.66043 46.1238 8.64861C45.7952 9.15538 45.3782 9.78883 44.8728 10.549C44.3926 11.3091 43.8113 12.1706 43.1289 13.1335C43.0025 13.3108 42.7877 13.6276 42.4844 14.0836C42.2064 14.5144 41.8273 15.0845 41.3471 15.794C40.8669 16.5034 40.4499 17.1495 40.0961 17.7323C39.7423 18.2898 39.4516 18.7839 39.2242 19.2146C38.7692 20.0508 38.3396 20.9503 37.9352 21.9131C37.5308 22.8506 37.3287 23.5854 37.3287 24.1175C37.3287 24.5989 37.5182 24.8397 37.8973 24.8397C38.5039 24.8397 39.4769 24.3202 40.8164 23.2814C40.968 23.3067 41.0438 23.3827 41.0438 23.5094C41.0438 23.6108 40.9175 23.7881 40.6647 24.0415C40.4373 24.2696 40.1466 24.5103 39.7928 24.7636C39.4643 25.0424 39.0725 25.3591 38.6176 25.7138L38.011 26.1699C37.6067 26.4993 37.1897 26.664 36.76 26.664Z" fill="#3C3F59"/>
<path d="M42.6094 26.664C42.3314 26.664 42.0913 26.5753 41.8891 26.398C41.7122 26.2206 41.6364 26.0052 41.6617 25.7518C41.7122 24.713 41.9018 23.7121 42.2303 22.7493C42.5841 21.7864 43.0896 20.6335 43.7467 19.2906C43.8225 19.1132 43.8857 18.9612 43.9363 18.8345C44.0121 18.6825 44.0753 18.5558 44.1258 18.4545C44.6818 17.2636 45.2505 16.1234 45.8318 15.0338C46.4131 13.9443 46.9943 12.8801 47.5756 11.8412L48.1064 10.891C48.7129 9.8015 49.2437 8.92733 49.6986 8.26854C50.1535 7.58441 50.6084 7.09032 51.0634 6.78626C51.6446 6.43153 51.9985 6.25416 52.1248 6.25416C52.327 6.25416 52.5292 6.43153 52.7314 6.78626C52.8578 7.03964 52.605 7.66043 51.9732 8.64861C51.6446 9.15538 51.2276 9.78883 50.7222 10.549C50.242 11.3091 49.6607 12.1706 48.9783 13.1335C48.8519 13.3108 48.6371 13.6276 48.3338 14.0836C48.0558 14.5144 47.6767 15.0845 47.1965 15.794C46.7163 16.5034 46.2993 17.1495 45.9455 17.7323C45.5917 18.2898 45.301 18.7839 45.0736 19.2146C44.6186 20.0508 44.189 20.9503 43.7846 21.9131C43.3802 22.8506 43.1781 23.5854 43.1781 24.1175C43.1781 24.5989 43.3676 24.8397 43.7467 24.8397C44.3533 24.8397 45.3263 24.3202 46.6658 23.2814C46.8174 23.3067 46.8933 23.3827 46.8933 23.5094C46.8933 23.6108 46.7669 23.7881 46.5142 24.0415C46.2867 24.2696 45.996 24.5103 45.6422 24.7636C45.3137 25.0424 44.9219 25.3591 44.467 25.7138L43.8604 26.1699C43.4561 26.4993 43.0391 26.664 42.6094 26.664Z" fill="#3C3F59"/>
<path d="M49.5961 24.8017C48.6105 24.8017 48.1176 24.3582 48.1176 23.4714C48.1176 23.4207 48.1176 23.332 48.1176 23.2054C48.1429 23.0787 48.1682 22.9266 48.1935 22.7493C48.4462 21.7104 48.9517 20.7096 49.7099 19.7467C50.4933 18.7585 51.3905 17.897 52.4015 17.1622C52.7806 16.8582 53.3871 16.7061 54.2211 16.7061C54.7013 16.7061 55.1184 16.7821 55.4722 16.9342C55.8513 17.0609 56.1167 17.2636 56.2683 17.5423C56.4199 17.7957 56.4958 18.0871 56.4958 18.4165C56.4958 18.4671 56.4831 18.5431 56.4578 18.6445C56.4578 18.7458 56.4452 18.8599 56.4199 18.9866C56.4705 18.9612 56.5463 18.9486 56.6474 18.9486C56.7738 18.9486 56.9254 18.9359 57.1023 18.9105C57.2792 18.8852 57.4435 18.8599 57.5951 18.8345C57.7721 18.8092 57.949 18.7965 58.1259 18.7965H58.2775C58.5555 18.7965 58.5808 18.9105 58.3533 19.1386C58.1512 19.3413 57.8732 19.468 57.5193 19.5187L56.2304 19.6707C55.9777 20.3802 55.5354 21.0896 54.9035 21.7991C54.297 22.5086 53.6146 23.1293 52.8564 23.6614C52.1235 24.1682 51.4284 24.4976 50.7713 24.6496C50.3922 24.751 50.0005 24.8017 49.5961 24.8017ZM54.4486 19.1386C54.6003 19.1386 54.7772 19.1386 54.9794 19.1386C55.2068 19.1133 55.4595 19.0879 55.7376 19.0626C55.7628 19.0119 55.7755 18.8979 55.7755 18.7205C55.7755 18.2644 55.5859 17.9477 55.2068 17.7703C55.0046 17.6436 54.7519 17.5803 54.4486 17.5803C54.0695 17.5803 53.6778 17.707 53.2734 17.9604C52.8943 18.1884 52.4899 18.4925 52.0603 18.8725C52.591 19.0499 53.3871 19.1386 54.4486 19.1386ZM50.7334 23.4714C50.9862 23.4714 51.34 23.3574 51.7949 23.1293C52.2751 22.876 52.7679 22.5466 53.2734 22.1412C53.7789 21.7357 54.2338 21.305 54.6382 20.8489C54.7645 20.7222 54.8909 20.5702 55.0173 20.3928C55.1436 20.1901 55.2826 19.9874 55.4343 19.7847L54.5244 19.8987C53.1091 20.1014 51.8455 20.2155 50.7334 20.2408C50.1774 21.153 49.8362 21.9131 49.7099 22.5212C49.6846 22.8506 49.773 23.0913 49.9752 23.2434C50.1774 23.3954 50.4301 23.4714 50.7334 23.4714Z" fill="#3C3F59"/>
<path d="M65.1896 25.1437C64.6589 25.0677 64.2924 24.8777 64.0902 24.5736C63.9133 24.2949 63.8248 23.9021 63.8248 23.3954C63.8248 23.2687 63.8375 23.066 63.8628 22.7873C63.9133 22.5086 63.9638 22.1665 64.0144 21.7611V21.457C64.0144 21.1023 63.9512 20.8996 63.8248 20.8489C63.7996 20.8236 63.7364 20.8109 63.6353 20.8109C63.4584 20.8109 63.1298 20.9756 62.6496 21.305C62.6244 21.3303 62.4854 21.457 62.2326 21.6851C61.9799 21.8878 61.6134 22.1918 61.1332 22.5972C59.7432 23.8388 58.7954 24.3962 58.29 24.2696C57.7592 24.1429 57.4939 23.7881 57.4939 23.2054C57.4939 22.6479 57.696 21.9765 58.1004 21.191C58.429 20.4815 58.8333 19.7974 59.3135 19.1386C59.7937 18.4545 60.1728 18.011 60.4508 17.8083C60.653 17.6816 60.8173 17.6183 60.9437 17.6183C61.07 17.6183 61.1838 17.669 61.2849 17.7703C61.3354 17.821 61.3607 17.897 61.3607 17.9984C61.3607 18.0997 61.2975 18.2137 61.1711 18.3404C60.9184 18.5938 60.6783 18.9866 60.4508 19.5187C60.2234 20.0254 60.1097 20.4815 60.1097 20.8869C60.1097 20.9376 60.1097 21.0009 60.1097 21.077C60.1349 21.153 60.1602 21.2416 60.1855 21.343C60.3118 21.419 60.4508 21.457 60.6025 21.457C60.9058 21.457 61.3228 21.305 61.8535 21.0009C62.0557 20.8742 62.3337 20.6969 62.6875 20.4688C63.0414 20.2155 63.471 19.8987 63.9765 19.5187C64.1787 19.3666 64.4061 19.2906 64.6589 19.2906C64.9369 19.2906 65.1643 19.392 65.3412 19.5947C65.5434 19.772 65.6445 20.0254 65.6445 20.3548C65.6445 20.4055 65.6319 20.4815 65.6066 20.5829C65.6066 20.6589 65.594 20.7602 65.5687 20.8869C65.5182 21.0896 65.4676 21.2797 65.4171 21.457C65.3665 21.6344 65.3286 21.8118 65.3033 21.9891C65.2781 22.0905 65.2654 22.2298 65.2654 22.4072C65.2654 22.5592 65.2654 22.7366 65.2654 22.9393C65.2654 23.4967 65.5561 23.7755 66.1374 23.7755C66.3901 23.7755 66.6428 23.7375 66.8956 23.6614C67.1736 23.5601 67.3757 23.4461 67.5021 23.3194C68.7152 22.2552 69.9031 20.8742 71.0657 19.1766L71.0277 18.7205C71.0025 18.4671 71.053 18.2264 71.1794 17.9984C71.3058 17.745 71.47 17.4916 71.6722 17.2382C71.748 17.1369 71.8491 17.0862 71.9755 17.0862C72.1019 17.0862 72.2156 17.1495 72.3167 17.2762C72.4431 17.3776 72.5062 17.5169 72.5062 17.6943C72.5062 17.821 72.4683 17.9604 72.3925 18.1124C72.2409 18.3911 72.0008 18.7965 71.6722 19.3286C71.3437 19.8354 70.9646 20.3928 70.5349 21.0009C70.1053 21.6091 69.6756 22.1792 69.246 22.7113C68.8163 23.2434 68.4246 23.6614 68.0708 23.9655V24.0035C67.6411 24.3836 67.1483 24.675 66.5923 24.8777C66.0363 25.1057 65.5687 25.1944 65.1896 25.1437Z" fill="#3C3F59"/>
<path d="M83.2925 13.4375C83.0398 13.4375 82.7618 13.3742 82.4585 13.2475C81.7509 13.0448 81.0306 12.614 80.2977 11.9552C79.5142 11.2711 78.8444 10.4603 78.2884 9.52278C77.7324 8.55993 77.4038 7.62242 77.3027 6.71025C77.2775 6.6089 77.2648 6.48221 77.2648 6.33018C77.2648 6.17815 77.2648 6.00078 77.2648 5.79808C77.2648 2.50412 79.2867 0.857147 83.3305 0.857147C85.3776 0.857147 87.6269 1.18654 90.0785 1.84533C92.5552 2.50412 95.3985 3.37829 98.6082 4.46783C99.1895 4.67053 99.7202 4.86057 100.2 5.03793C100.706 5.18996 101.161 5.32932 101.565 5.45601C102.551 5.73473 103.41 5.87409 104.143 5.87409C104.977 5.87409 105.571 5.70939 105.925 5.38C106.304 5.0506 106.494 4.6832 106.494 4.27779V4.12576C106.494 3.82171 106.582 3.66968 106.759 3.66968C106.961 3.66968 107.176 3.82171 107.403 4.12576C107.454 4.17644 107.479 4.27779 107.479 4.42982C107.479 5.0126 107.138 5.55736 106.456 6.06413C105.773 6.57089 104.927 6.82427 103.916 6.82427C103.764 6.82427 103.625 6.82427 103.499 6.82427C103.398 6.82427 103.296 6.8116 103.195 6.78626C102.21 6.65957 101.123 6.43153 99.9351 6.10213C98.7725 5.7474 97.3319 5.27865 95.6133 4.69587C93.2123 3.88505 91.2158 3.26427 89.6235 2.83352C88.0313 2.40277 86.5528 2.1874 85.188 2.1874C83.6969 2.1874 82.4333 2.51679 81.397 3.17558C80.3861 3.83437 79.6405 4.91124 79.1603 6.40619C79.0845 6.63423 79.0466 6.88762 79.0466 7.16633C79.0466 7.64776 79.1604 8.19253 79.3878 8.80064C79.6153 9.38342 79.9185 9.95353 80.2977 10.511C80.6768 11.0684 81.0811 11.5498 81.5108 11.9552C81.9404 12.3353 82.3448 12.5633 82.7239 12.6394C83.3305 12.7661 83.6337 12.9688 83.6337 13.2475C83.6337 13.3742 83.52 13.4375 83.2925 13.4375ZM84.0128 26.778C83.4315 26.778 83.1662 26.398 83.2167 25.6378C83.4189 24.0415 83.9244 22.3312 84.7331 20.5068C85.1375 19.5693 85.7188 18.3658 86.477 16.8962C87.2605 15.4012 88.2209 13.6529 89.3582 11.6512C90.1416 10.2322 90.7735 9.13004 91.2537 8.34456C91.7591 7.55907 92.2899 6.9763 92.8459 6.59623C93.3261 6.26683 93.781 6.10213 94.2106 6.10213C94.615 6.10213 94.7161 6.26683 94.5139 6.59623C94.1096 7.15367 93.6167 7.86313 93.0354 8.72463C92.4794 9.56078 91.835 10.549 91.102 11.6892C90.1416 13.2095 89.2065 14.7551 88.2967 16.3261C87.3868 17.897 86.616 19.3413 85.9842 20.6589C85.3523 21.9511 84.9353 22.99 84.7331 23.7755C84.6573 24.0795 84.6194 24.3329 84.6194 24.5356C84.6194 24.9664 84.7963 25.1817 85.1501 25.1817C85.7062 25.1817 86.7171 24.6116 88.183 23.4714C88.2335 23.4207 88.2967 23.3954 88.3725 23.3954C88.4736 23.3954 88.5241 23.4587 88.5241 23.5854C88.5241 23.7375 88.4736 23.8641 88.3725 23.9655C88.2714 24.0668 88.145 24.1682 87.9934 24.2696C87.8418 24.3962 87.6648 24.5356 87.4627 24.6876C87.2605 24.8143 87.0836 24.9283 86.9319 25.0297C86.7803 25.131 86.6792 25.2071 86.6286 25.2577C86.3001 25.4858 86.0221 25.6758 85.7946 25.8278C85.5672 26.0052 85.3902 26.1446 85.2639 26.2459C84.7584 26.6007 84.3414 26.778 84.0128 26.778Z" fill="#3C3F59"/>
<path d="M92.4007 24.9537C92.0722 24.9537 91.9079 24.6623 91.9079 24.0795C91.9079 23.5981 92.0216 23.1293 92.2491 22.6733C92.8304 21.5584 93.3611 20.4562 93.8413 19.3666C94.1699 18.7078 94.4732 18.0744 94.7512 17.4663C95.0544 16.8582 95.3325 16.3007 95.5852 15.794C95.7368 15.6419 95.8885 15.5659 96.0401 15.5659C96.3687 15.5659 96.4698 15.7179 96.3434 16.022C96.2928 16.1994 96.217 16.4147 96.1159 16.6681C96.0401 16.8962 95.939 17.1749 95.8126 17.5043C95.4083 18.5685 95.1682 19.316 95.0924 19.7467C95.8 19.1133 96.5203 18.5305 97.2532 17.9984C98.0114 17.4409 98.7191 16.9848 99.3762 16.6301C100.033 16.2754 100.589 16.098 101.044 16.098C101.449 16.098 101.651 16.2627 101.651 16.5921C101.651 16.8708 101.524 17.1749 101.272 17.5043C101.019 17.8083 100.766 17.9604 100.513 17.9604C100.387 17.9604 100.286 17.9224 100.21 17.8463C100.134 17.821 99.9828 17.8083 99.7553 17.8083C98.9465 17.8083 98.0999 18.2011 97.2153 18.9866C96.2802 19.772 95.4335 20.7222 94.6753 21.8371C93.9171 22.9266 93.3611 23.8768 93.0073 24.6876C92.8304 24.865 92.6282 24.9537 92.4007 24.9537Z" fill="#3C3F59"/>
<path d="M102.04 24.5736C101.509 24.5736 101.042 24.4342 100.637 24.1555C99.9802 23.6488 99.6516 22.8886 99.6516 21.8751C99.6516 20.8616 100.005 19.7847 100.713 18.6445C101.421 17.5043 102.495 16.4527 103.935 15.4899C104.188 15.3125 104.529 15.2238 104.959 15.2238C105.515 15.2238 106.008 15.3759 106.438 15.6799C106.892 15.984 107.069 16.3767 106.968 16.8582C106.791 17.6436 106.4 18.3404 105.793 18.9486C105.212 19.5567 104.517 20.1014 103.708 20.5829C102.925 21.0389 102.116 21.4824 101.282 21.9131C101.256 21.9891 101.231 22.0651 101.206 22.1412C101.206 22.2172 101.206 22.2932 101.206 22.3692C101.206 22.7239 101.32 23.0407 101.547 23.3194C101.8 23.5728 102.141 23.6994 102.571 23.6994C102.899 23.6994 103.177 23.6488 103.405 23.5474C103.809 23.3954 104.138 23.256 104.39 23.1293C104.668 23.0026 104.984 22.8126 105.338 22.5592C105.692 22.3058 106.172 21.9258 106.779 21.419C107.057 21.2163 107.221 21.115 107.272 21.115C107.423 21.115 107.474 21.229 107.423 21.457C107.17 21.8624 106.728 22.3059 106.096 22.7873C105.49 23.2687 104.807 23.6868 104.049 24.0415C103.316 24.3962 102.647 24.5736 102.04 24.5736ZM101.509 20.8869C101.711 20.8869 102.128 20.6842 102.76 20.2788C103.392 19.8734 103.986 19.43 104.542 18.9486C105.502 18.0617 105.983 17.3776 105.983 16.8962C105.983 16.7695 105.945 16.6555 105.869 16.5541C105.793 16.4274 105.679 16.3641 105.528 16.3641C105.048 16.3641 104.239 16.9342 103.101 18.0744C102.318 18.8345 101.787 19.772 101.509 20.8869Z" fill="#3C3F59"/>
<path d="M109.555 24.5736C109.025 24.5736 108.557 24.4342 108.153 24.1555C107.496 23.6488 107.167 22.8886 107.167 21.8751C107.167 20.8616 107.521 19.7847 108.228 18.6445C108.936 17.5043 110.01 16.4527 111.451 15.4899C111.704 15.3125 112.045 15.2238 112.474 15.2238C113.03 15.2238 113.523 15.3759 113.953 15.6799C114.408 15.984 114.585 16.3767 114.484 16.8582C114.307 17.6436 113.915 18.3404 113.308 18.9486C112.727 19.5567 112.032 20.1014 111.223 20.5829C110.44 21.0389 109.631 21.4824 108.797 21.9131C108.772 21.9891 108.747 22.0651 108.721 22.1412C108.721 22.2172 108.721 22.2932 108.721 22.3692C108.721 22.7239 108.835 23.0407 109.063 23.3194C109.315 23.5728 109.656 23.6994 110.086 23.6994C110.415 23.6994 110.693 23.6488 110.92 23.5474C111.324 23.3954 111.653 23.256 111.906 23.1293C112.184 23.0026 112.5 22.8126 112.854 22.5592C113.207 22.3058 113.688 21.9258 114.294 21.419C114.572 21.2163 114.736 21.115 114.787 21.115C114.939 21.115 114.989 21.229 114.939 21.457C114.686 21.8624 114.244 22.3059 113.612 22.7873C113.005 23.2687 112.323 23.6868 111.565 24.0415C110.832 24.3962 110.162 24.5736 109.555 24.5736ZM109.025 20.8869C109.227 20.8869 109.644 20.6842 110.276 20.2788C110.907 19.8734 111.501 19.43 112.057 18.9486C113.018 18.0617 113.498 17.3776 113.498 16.8962C113.498 16.7695 113.46 16.6555 113.384 16.5541C113.308 16.4274 113.195 16.3641 113.043 16.3641C112.563 16.3641 111.754 16.9342 110.617 18.0744C109.833 18.8345 109.303 19.772 109.025 20.8869Z" fill="#3C3F59"/>
<path fill-rule="evenodd" clip-rule="evenodd" d="M114.661 20.7896C114.791 20.4421 114.969 20.0551 115.058 19.9294C115.147 19.8038 115.265 19.5324 115.32 19.3264C115.376 19.1204 115.553 18.6218 115.714 18.2184C116.038 17.4058 116.21 16.5339 116.275 15.3616C116.312 14.6959 116.352 14.5151 116.573 14.0119C116.712 13.6924 116.841 13.3307 116.858 13.2082C116.91 12.8337 117.712 11.7499 118.264 11.3072C118.542 11.0841 118.837 10.911 118.919 10.9226C119.059 10.9422 119.059 10.9522 118.918 11.0703C118.835 11.14 118.708 11.3149 118.636 11.4588C118.564 11.6027 118.359 11.8577 118.181 12.0254C117.886 12.3029 117.858 12.3627 117.861 12.691C117.862 12.8894 117.966 13.3518 118.09 13.7185C118.245 14.1717 118.302 14.4904 118.271 14.7138C118.215 15.1198 117.646 16.0295 117.145 16.5138C116.471 17.1663 116.365 17.3145 116.063 18.0293C115.897 18.423 115.77 18.7577 115.782 18.7733C115.833 18.8416 116.47 18.074 117.61 16.569C120.25 13.0833 120.292 13.006 120.357 11.4278C120.381 10.8575 120.424 10.3728 120.453 10.3507C120.77 10.1109 121.158 11.6369 121.1 12.8936C121.071 13.5204 120.868 13.9555 120.356 14.4889C120.176 14.6766 120.055 14.8338 120.087 14.8383C120.119 14.8428 120.465 14.7097 120.856 14.5427C121.248 14.3756 121.828 14.1763 122.146 14.0999C122.464 14.0234 122.769 13.935 122.824 13.9035C122.967 13.8228 123.24 12.955 123.275 12.4739C123.32 11.8583 123.498 11.3657 123.996 10.4747C124.357 9.82955 124.573 9.54812 125.044 9.11354C125.862 8.35763 126.116 8.05811 126.384 7.53566C126.511 7.28794 126.663 7.07631 126.722 7.06531C126.802 7.05045 126.786 7.11862 126.658 7.33539C126.554 7.50986 126.49 7.72773 126.497 7.88248C126.505 8.06924 126.473 8.14777 126.38 8.16935C126.31 8.18562 126.246 8.24614 126.238 8.30372C126.211 8.49429 125.522 9.47045 125.017 10.0334C124.743 10.3382 124.507 10.6277 124.492 10.6766C124.477 10.7256 124.348 10.8962 124.207 11.0557C123.824 11.4874 123.615 11.9486 123.534 12.541L123.462 13.0711L123.757 12.5826C123.92 12.3139 124.346 11.7581 124.705 11.3474C125.427 10.5208 125.854 9.90503 125.875 9.65962L125.889 9.49849L125.827 9.65286C125.676 10.03 124.662 10.8632 124.545 10.7069C124.523 10.6779 124.617 10.609 124.754 10.5535C125.113 10.4082 125.711 9.74175 125.754 9.44082C125.773 9.30471 125.903 9.02847 126.043 8.82694C126.183 8.6254 126.305 8.4053 126.314 8.33781C126.324 8.27039 126.37 8.2206 126.416 8.22719C126.464 8.23386 126.471 8.30366 126.432 8.38458C126.394 8.46457 126.301 8.71765 126.226 8.94685C125.809 10.2233 125.76 10.3097 124.87 11.324C124.252 12.0286 123.547 13.0829 123.421 13.4898C123.338 13.7594 123.343 13.7704 123.534 13.7381C123.644 13.7195 124.123 13.6696 124.598 13.6273C125.073 13.5849 125.511 13.5406 125.571 13.5288C125.65 13.5134 125.621 13.3557 125.468 12.9592C125.352 12.6577 125.27 12.3109 125.287 12.1886C125.322 11.9435 125.974 10.9252 126.177 10.7992C126.263 10.746 126.329 10.5577 126.375 10.2298C126.553 8.98363 127.169 8.02593 128.438 7.02466C129.184 6.43609 129.311 6.30012 129.418 5.98122C129.591 5.46483 129.929 5.11114 130.346 5.01116C130.761 4.91141 130.772 4.94781 130.401 5.1817C129.933 5.47623 129.65 6.00233 129.535 6.79075C129.413 7.6312 129.12 8.54571 128.839 8.9676C128.651 9.24955 128.643 9.28265 128.77 9.25106C129.081 9.17351 130.169 9.16899 130.714 9.24305C131.222 9.31214 131.356 9.29598 131.871 9.10353C132.191 8.98377 132.55 8.83808 132.67 8.77977C132.942 8.6477 133.355 8.62236 133.484 8.72981C133.552 8.78615 133.497 8.81691 133.304 8.8308C133.151 8.84175 132.978 8.87959 132.919 8.91486C132.86 8.95004 132.773 8.94621 132.725 8.90627C132.672 8.86192 132.654 8.87033 132.679 8.92787C132.702 8.97975 132.681 9.03961 132.633 9.06088C132.585 9.08207 132.499 9.16253 132.443 9.23968C132.348 9.3709 132.359 9.37628 132.614 9.32373C132.943 9.25595 134.161 9.4132 135.048 9.63816C135.759 9.81841 135.9 9.95322 135.293 9.87249C134.813 9.8087 134.223 9.93935 133.615 10.2441C133.13 10.4873 132.234 10.6776 131.837 10.6217C131.666 10.5976 131.571 10.6429 131.459 10.8009C131.047 11.3838 129.951 11.9311 128.773 12.1418C128.167 12.2502 127.302 12.6626 126.525 13.2137C126.252 13.4072 126.079 13.5483 126.141 13.5271C126.402 13.4378 128.384 13.4799 129.182 13.5919C130.031 13.7109 130.066 13.7085 130.964 13.4687C131.468 13.3342 132.396 13.0055 133.027 12.7383C134.807 11.9845 136.008 11.7659 137.386 11.9449C138.068 12.0335 139.178 12.4 139.248 12.5599C139.263 12.5957 138.996 12.6056 138.655 12.5819C137.862 12.5268 137.528 12.5964 136.502 13.0303C135.04 13.648 133.978 13.8312 131.923 13.8198C131.522 13.8176 131.165 13.8342 131.13 13.8567C131.032 13.9206 132.417 14.0515 132.83 14.0175C133.033 14.0007 133.854 13.8753 134.654 13.7387C138.043 13.1598 139.955 13.2777 141.183 14.1411C141.344 14.2547 141.473 14.3739 141.468 14.4059C141.464 14.4381 141.057 14.4075 140.564 14.3382C139.881 14.242 139.549 14.234 139.167 14.3045L138.667 14.3969L139.182 14.4864C140.047 14.6366 141.13 14.9564 142.293 15.4053C142.903 15.6405 143.414 15.8486 143.428 15.8679C143.442 15.887 143.083 15.8741 142.629 15.839C142.176 15.8039 141.383 15.7855 140.867 15.798C139.339 15.8352 138.051 15.76 136.949 15.5695L135.913 15.3904L136.295 15.6141C136.506 15.7371 136.903 16.0223 137.179 16.2479C137.455 16.4736 137.804 16.7186 137.956 16.7925C138.378 16.9987 138.983 17.4396 138.873 17.4611C138.819 17.4716 138.594 17.3975 138.373 17.2965C138.124 17.1822 137.663 17.0693 137.155 16.9977C136.425 16.8948 136.211 16.8257 135.136 16.3452C134.475 16.0497 133.644 15.635 133.29 15.4236C132.936 15.2124 132.417 14.9018 132.136 14.7337C131.351 14.263 130.783 14.1125 129.105 13.9306C128.29 13.8423 127.529 13.7933 127.414 13.8217C127.235 13.8655 127.27 13.8833 127.645 13.9404C128.234 14.0303 129.762 14.4465 130.382 14.6861C131.02 14.9324 132.396 15.6568 133.055 16.0926C133.535 16.4104 133.604 16.4332 134.273 16.4949C135.046 16.5662 135.12 16.6322 134.507 16.704C134.29 16.7294 133.693 16.8521 133.18 16.9768C132.668 17.1014 132.066 17.2171 131.844 17.2337C131.622 17.2504 130.327 17.1243 128.966 16.9533C127.605 16.7825 126.363 16.6451 126.206 16.6481L125.921 16.6537L126.136 16.8083C126.606 17.1464 129.017 18.3839 129.406 18.4862C129.893 18.6144 130.475 18.5972 132.215 18.4034C133.341 18.2781 133.641 18.2763 134.71 18.3882C135.659 18.4876 136.087 18.5691 136.668 18.7608C137.077 18.8957 137.408 19.0336 137.403 19.0673C137.398 19.1009 137.114 19.1095 136.771 19.0864C136.428 19.0634 135.977 19.0817 135.77 19.1271C135.562 19.1726 135.058 19.2495 134.649 19.298C134.24 19.3465 133.977 19.3963 134.065 19.4085C134.275 19.438 136.919 20.7404 136.912 20.8112C136.91 20.8414 136.815 20.8428 136.702 20.8144C136.589 20.786 136.085 20.7973 135.581 20.8396C134.275 20.9493 133.085 20.7732 132.195 20.3387C131.843 20.167 131.398 19.8814 131.205 19.7042C130.808 19.3381 130.788 19.3274 130.051 19.0654C129.69 18.9372 129.554 18.9105 129.642 18.9854C130.43 19.6533 130.721 19.9733 131.289 20.7915C131.652 21.315 132.057 21.9845 132.189 22.2793C132.322 22.5742 132.518 22.951 132.626 23.1167C132.734 23.2823 132.803 23.4323 132.78 23.45C132.757 23.4677 132.58 23.4021 132.387 23.3045C132.193 23.2067 131.987 23.12 131.928 23.1117C131.869 23.1033 131.544 22.905 131.205 22.671C130.528 22.2023 130.274 22.1351 129.372 22.1865L128.858 22.2159L129.036 22.611C129.263 23.1145 129.249 23.1972 128.979 22.9406C128.59 22.5702 127.894 22.2174 127.423 22.151C126.446 22.0133 124.971 21.2918 124.276 20.6116C123.938 20.2802 123.361 19.4482 122.69 18.3225C122.477 17.9663 122.279 17.6542 122.248 17.629C122.218 17.6038 121.754 17.6316 121.218 17.6909C120.681 17.7502 120.048 17.7943 119.812 17.789C119.575 17.7836 119.395 17.7967 119.41 17.8178C119.426 17.839 119.606 17.9304 119.811 18.021C121.852 18.9262 122.535 19.3245 123.471 20.157C123.793 20.4438 124.287 20.8604 124.569 21.0827C124.876 21.3254 125.213 21.6912 125.411 21.998C125.592 22.279 125.709 22.4896 125.67 22.466C125.632 22.4424 125.4 22.2804 125.157 22.1059C124.511 21.6436 124.114 21.4634 123.257 21.2432C122.405 21.0244 121.877 20.7819 121.02 20.2149C120.553 19.9056 120.318 19.6684 119.806 18.9848C119.015 17.9293 118.875 17.8258 118.102 17.7262C117.325 17.626 117.099 17.6897 116.856 18.0766C116.748 18.2475 116.39 18.6953 116.059 19.0718C115.401 19.8211 115.064 20.4221 114.877 21.179C114.81 21.45 114.725 21.6673 114.688 21.6622C114.579 21.6468 114.792 20.9507 115.119 20.255C115.325 19.817 115.591 19.4211 115.935 19.0417C116.5 18.4162 116.883 17.8992 116.831 17.8302C116.813 17.8053 116.724 17.8893 116.633 18.0169C116.543 18.1444 116.248 18.4942 115.978 18.7941C115.422 19.4104 115.041 20.074 114.738 20.9556C114.624 21.2871 114.499 21.554 114.461 21.5485C114.378 21.5369 114.366 21.5816 114.661 20.7896ZM116.32 16.4688C116.313 16.737 116.325 16.8756 116.346 16.7767C116.366 16.6778 116.515 16.3502 116.676 16.0486C116.946 15.5455 116.986 15.3915 117.17 14.1828C117.28 13.4582 117.414 12.7477 117.467 12.6039C117.526 12.4465 117.533 12.3566 117.485 12.3781C117.34 12.4417 117.075 12.9691 116.789 13.7622C116.635 14.1891 116.483 14.608 116.451 14.6932C116.394 14.8479 116.342 15.5464 116.32 16.4688ZM116.467 17.0134C116.56 16.9109 116.789 16.6863 116.977 16.5143C117.165 16.3424 117.51 15.9168 117.744 15.5685C118.254 14.8107 118.286 14.5537 117.978 13.6647C117.867 13.3463 117.756 12.9177 117.73 12.7122C117.682 12.3387 117.682 12.3386 117.592 12.5705C117.543 12.6981 117.417 13.3844 117.312 14.0954C117.118 15.4095 117.049 15.6202 116.372 16.9655C116.273 17.1618 116.315 17.1829 116.467 17.0134ZM116.996 17.7168C117.069 17.6434 117.252 17.572 117.402 17.558L117.674 17.5325L117.413 17.4874C117.178 17.4468 117.163 17.428 117.26 17.2945C117.319 17.2131 117.35 17.1439 117.327 17.1408C117.274 17.1333 116.891 17.6667 116.875 17.7702C116.868 17.8141 116.923 17.7901 116.996 17.7168ZM118.161 11.9024C118.3 11.7795 118.471 11.5536 118.543 11.4006L118.673 11.1222L118.425 11.3017C118.207 11.459 117.975 11.8062 117.926 12.0467C117.917 12.0903 118.023 12.0253 118.161 11.9024ZM118.546 17.479C120.018 17.574 121.646 17.4103 123.313 16.9995C123.984 16.8342 124.647 16.6711 124.786 16.637C125.034 16.5761 125.028 16.5705 124.388 16.2889C123.489 15.8935 122.134 15.4528 121.574 15.3739C121.317 15.3377 120.826 15.3262 120.484 15.3483C119.875 15.3877 119.841 15.4022 118.875 16.039C118.023 16.6005 117.279 17.2558 117.364 17.3694C117.378 17.3887 117.91 17.438 118.546 17.479ZM117.955 16.5639C118.22 16.3616 118.855 15.9129 119.367 15.5669C120.182 15.0162 120.448 14.8879 121.498 14.5401C122.158 14.3216 123.112 14.0568 123.618 13.952C124.631 13.7421 124.719 13.6842 123.817 13.8211C123.343 13.8931 123.227 13.888 123.184 13.7931C123.143 13.7023 123.127 13.7055 123.112 13.8076C123.092 13.9425 122.869 14.0318 122.081 14.2213C121.636 14.3283 121.042 14.5584 120.145 14.9709C119.461 15.2853 117.535 16.6832 117.48 16.9047C117.477 16.9195 117.69 16.7661 117.955 16.5639ZM118.22 16.0025C118.298 15.9238 118.534 15.6635 118.745 15.4241C118.956 15.1846 119.321 14.7957 119.557 14.5598C120.25 13.8663 120.351 13.7243 120.56 13.1524C120.708 12.7479 120.768 12.4223 120.798 11.8803L120.837 11.1519L120.69 11.7391C120.417 12.8272 119.746 14.0047 118.562 15.4711C118.088 16.0584 117.946 16.2796 118.22 16.0025ZM119.005 17.8879C119.127 17.9768 119.519 18.4348 119.878 18.9056C120.396 19.5858 120.647 19.8394 121.101 20.1398C121.857 20.6399 122.566 20.959 123.382 21.1676C123.75 21.2616 124.202 21.4157 124.387 21.5102C124.571 21.6046 124.735 21.6722 124.751 21.6604C124.79 21.6308 123.914 21.0891 123.037 20.6005C122.635 20.3767 122.116 20.0353 121.884 19.8419C120.821 18.957 119.816 18.2119 119.443 18.0317C119.218 17.9234 119.023 17.7863 119.009 17.7269C118.994 17.661 118.855 17.604 118.653 17.5806C118.343 17.5446 118.337 17.548 118.553 17.6343C118.68 17.685 118.883 17.7991 119.005 17.8879ZM119.332 15.1829C120.062 14.757 120.761 13.9647 120.942 13.3567C121.015 13.1122 121.017 11.8284 120.945 11.7319C120.934 11.7177 120.875 12.0543 120.814 12.4797C120.69 13.3442 120.526 13.7455 120.148 14.1129C120.006 14.25 119.839 14.4335 119.776 14.5207C119.713 14.6078 119.472 14.847 119.242 15.0522C119.011 15.2573 118.82 15.4387 118.818 15.4553C118.815 15.4717 119.047 15.3492 119.332 15.1829ZM120.468 12.1748C120.528 12.1295 120.68 10.9626 120.655 10.7389C120.603 10.2608 120.526 10.5297 120.483 11.3473C120.458 11.8151 120.451 12.1875 120.468 12.1748ZM119.6 18.2764C119.715 18.2927 120.341 18.8643 120.472 19.0729L120.597 19.2731L120.422 19.0791C120.325 18.9723 120.086 18.746 119.89 18.5761C119.694 18.4061 119.563 18.2712 119.6 18.2764ZM120.331 15.2334C120.478 15.2211 120.925 15.2287 121.324 15.2503L122.05 15.2897L121.21 15.1985C120.438 15.1148 120.083 15.1209 120.07 15.218C120.067 15.2388 120.185 15.2457 120.331 15.2334ZM123.398 14.9471C124.233 14.6671 125.603 13.951 125.519 13.8388C125.47 13.7736 124.232 13.9279 123.468 14.0944C123.092 14.1764 122.284 14.4016 121.672 14.5947L120.561 14.9459L122.46 15.2616L123.398 14.9471ZM120.556 17.6513C120.623 17.6347 120.607 17.6131 120.515 17.5962C120.431 17.5809 120.382 17.5932 120.404 17.6235C120.427 17.6537 120.496 17.6663 120.556 17.6513ZM123.283 20.6028C123.793 20.8943 124.411 21.2722 124.656 21.4428C125.258 21.8624 125.147 21.6691 124.493 21.1589C124.203 20.9326 123.706 20.5184 123.387 20.2385C122.581 19.5292 122.187 19.2683 121.268 18.8342C120.828 18.6269 120.417 18.4318 120.355 18.4007C120.292 18.3697 120.716 18.7333 121.298 19.2086C121.941 19.7351 122.717 20.2801 123.283 20.6028ZM120.886 17.6162C120.953 17.5996 120.937 17.578 120.845 17.5611C120.761 17.5459 120.712 17.5581 120.734 17.5884C120.757 17.6187 120.825 17.6312 120.886 17.6162ZM121.699 17.5176C122.119 17.4485 122.251 17.4539 122.335 17.5438C122.414 17.6288 122.429 17.6314 122.396 17.5539C122.372 17.4963 122.421 17.4196 122.507 17.3799C122.607 17.3335 122.618 17.3144 122.537 17.3249C121.582 17.449 121.042 17.5409 121.099 17.5694C121.138 17.5888 121.408 17.5654 121.699 17.5176ZM122.608 15.5131C122.729 15.5266 122.785 15.5131 122.733 15.4831C122.681 15.453 122.664 15.3984 122.694 15.3617C122.775 15.2642 122.631 15.2615 122.503 15.3581C122.351 15.4734 122.359 15.4854 122.608 15.5131ZM124.279 15.9658L125.557 16.4788L126.245 16.434C126.623 16.4093 127.231 16.2971 127.595 16.1847C128.718 15.8383 129.348 15.7986 130.972 15.972L132.413 16.1258L131.396 15.8411C130.838 15.6844 130.027 15.4687 129.595 15.3616C129.163 15.2546 128.564 15.0975 128.263 15.0126C127.962 14.9276 127.661 14.8491 127.593 14.8381C127.526 14.8271 127.226 14.6192 126.927 14.3759C126.543 14.0638 126.295 13.9209 126.085 13.8904C125.909 13.8649 125.781 13.8855 125.773 13.9402C125.766 13.9915 125.741 14.0084 125.718 13.9778C125.695 13.947 125.357 14.1156 124.967 14.3523C124.577 14.589 123.939 14.8889 123.55 15.0186C123.033 15.1912 122.864 15.2813 122.922 15.3538C122.966 15.4082 123.577 15.6836 124.279 15.9658ZM122.888 18.1511C123.319 18.7348 123.877 19.2042 124.546 19.5459C124.786 19.6683 125.009 19.7722 125.041 19.7768C125.202 19.7994 125.031 19.3641 124.716 18.9505C124.523 18.6957 124.314 18.3827 124.252 18.255C124.058 17.8513 122.548 17.2399 122.505 17.5473C122.5 17.5872 122.672 17.8589 122.888 18.1511ZM123.117 15.6453C123.175 15.6309 123.133 15.6064 123.023 15.591C122.914 15.5756 122.866 15.5874 122.918 15.6173C122.97 15.6472 123.059 15.6598 123.117 15.6453ZM123.527 12.0445C123.683 11.5094 123.99 11.0485 124.825 10.0959C125.472 9.35902 126.211 8.30767 126.145 8.21967C126.124 8.19214 126.053 8.24365 125.988 8.33412C125.922 8.42465 125.617 8.72438 125.311 9.0002C124.679 9.56956 124.54 9.75192 124.01 10.7024C123.543 11.538 123.521 11.5941 123.452 12.091L123.396 12.4909L123.527 12.0445ZM123.573 15.1001C123.894 14.9968 124.501 14.7073 124.92 14.4567C125.34 14.2061 125.679 14.0343 125.673 14.0749C125.658 14.1774 124.575 14.8071 123.948 15.0772C123.499 15.2708 122.964 15.4032 122.983 15.3161C122.986 15.3005 123.251 15.2033 123.573 15.1001ZM122.818 17.3433C122.884 17.3526 122.943 17.3253 122.949 17.2827C122.955 17.2401 122.903 17.2184 122.834 17.2344C122.764 17.2505 122.706 17.2778 122.703 17.2951C122.701 17.3124 122.753 17.3341 122.818 17.3433ZM123.742 17.5501C124.975 17.9775 125.36 18.1368 126.05 18.506C126.964 18.9947 127.529 19.477 127.932 20.1127C128.21 20.5497 128.289 20.6175 128.691 20.762C128.959 20.8581 129.301 21.0662 129.538 21.2771L129.935 21.6308L129.378 20.9089C128.924 20.3196 128.76 20.0173 128.486 19.2646C128.302 18.7573 128.076 18.2635 127.984 18.1672C127.892 18.0709 127.26 17.7062 126.579 17.3568L125.343 16.7214L124.415 16.964C123.905 17.0975 123.422 17.217 123.343 17.2295C123.1 17.2678 123.232 17.3734 123.742 17.5501ZM123.732 19.7405C124.466 20.7503 125.015 21.1654 125.728 21.2494L126.172 21.3018L125.823 20.8635C125.573 20.5498 125.302 20.3295 124.871 20.0886C124.539 19.9036 124.099 19.5993 123.892 19.4124C123.686 19.2256 123.463 19.0652 123.398 19.056C123.333 19.0468 123.252 18.9711 123.218 18.8879C123.184 18.8047 123.149 18.7753 123.141 18.8228C123.134 18.8702 123.399 19.2832 123.732 19.7405ZM125.57 18.8359C126.373 19.5096 127.213 20.4099 127.766 21.1914C128.008 21.5331 128.375 22.02 128.582 22.2735C128.884 22.6423 128.931 22.6782 128.818 22.4532C128.74 22.2987 128.575 21.8718 128.452 21.5046C127.97 20.073 127.286 19.2801 125.914 18.5648C125.263 18.2254 124.151 17.7642 123.954 17.7524C123.924 17.7506 124.135 17.8763 124.423 18.0317C124.712 18.1873 125.228 18.5491 125.57 18.8359ZM124.758 13.7578C124.825 13.7412 124.809 13.7196 124.716 13.7027C124.633 13.6874 124.583 13.6997 124.606 13.7299C124.629 13.7602 124.697 13.7728 124.758 13.7578ZM125.167 13.7339C125.234 13.7173 125.218 13.6957 125.126 13.6788C125.042 13.6636 124.993 13.6758 125.015 13.7061C125.038 13.7364 125.106 13.7489 125.167 13.7339ZM124.854 18.9536C125.061 19.1817 125.177 19.395 125.191 19.5705C125.221 19.9594 126.007 21.0121 126.556 21.398C127.016 21.7217 128.332 22.3827 128.405 22.3273C128.468 22.2799 127.297 20.7185 126.772 20.1477C126.048 19.3621 124.651 18.1724 124.413 18.1389C124.291 18.1217 124.575 18.6465 124.854 18.9536ZM124.925 20.0061C125.227 20.1774 125.304 20.1998 125.242 20.0983C125.196 20.0245 124.982 19.8801 124.765 19.7776C124.549 19.675 124.32 19.5661 124.258 19.5354C124.017 19.4178 124.546 19.7906 124.925 20.0061ZM125.494 12.1442C125.657 11.832 125.656 11.833 126.049 11.6145C126.189 11.5368 126.253 11.467 126.193 11.4594C125.915 11.425 125.402 11.9298 125.36 12.2782C125.349 12.371 125.405 12.3145 125.494 12.1442ZM125.248 16.5299C125.321 16.5417 125.309 16.5138 125.217 16.4579C125.135 16.4078 124.996 16.3577 124.908 16.3467C124.779 16.3306 124.785 16.3446 124.938 16.4187C125.043 16.4693 125.182 16.5194 125.248 16.5299ZM125.875 9.45577C125.938 9.46461 126.141 9.06918 126.101 9.01593C126.082 8.99057 126.02 9.05108 125.964 9.15057C125.842 9.3632 125.818 9.44767 125.875 9.45577ZM125.581 12.6658C125.626 12.7967 125.71 12.9542 125.765 13.0158C125.848 13.1069 125.881 13.0952 125.942 12.9531C126.071 12.6511 126.274 11.7137 126.212 11.705C126.18 11.7005 126.041 11.7551 125.904 11.8264C125.689 11.9388 125.624 12.0296 125.517 12.3656C125.506 12.3999 125.535 12.535 125.581 12.6658ZM125.497 13.6988C125.564 13.6823 125.548 13.6606 125.456 13.6437C125.372 13.6285 125.323 13.6407 125.345 13.671C125.368 13.7013 125.436 13.7138 125.497 13.6988ZM126.054 11.3566C126.148 11.3218 126.231 11.2531 126.238 11.2039C126.245 11.1546 126.169 11.1694 126.071 11.2366C125.972 11.3038 125.889 11.3726 125.887 11.3893C125.884 11.406 125.96 11.3913 126.054 11.3566ZM125.858 13.5309C125.873 13.533 125.965 13.4635 126.063 13.3762L126.24 13.2176L126.039 13.3447C125.851 13.4642 125.795 13.5219 125.858 13.5309ZM126.802 13.7083C127.217 13.6933 127.955 13.705 128.442 13.7341L129.328 13.787L128.409 13.681C127.553 13.5824 125.755 13.5892 125.958 13.6903C126.008 13.715 126.388 13.7231 126.802 13.7083ZM126.423 11.0416C126.47 11.0206 126.529 10.8662 126.552 10.6987C126.637 10.0918 127.038 9.02204 127.378 8.49531C127.698 7.99997 128.773 6.88053 128.841 6.97173C128.858 6.99406 128.632 7.24034 128.338 7.5191C127.827 8.00508 127.223 8.84374 127.032 9.33308C126.909 9.64848 126.98 9.5739 127.273 9.08172C127.533 8.64311 127.848 8.24486 128.26 7.83441C128.398 7.69686 128.668 7.3989 128.861 7.17235C129.32 6.63344 129.141 6.63212 128.421 7.16905C127.506 7.851 126.926 8.61624 126.645 9.51047C126.462 10.0952 126.317 11.0881 126.423 11.0416ZM126.238 12.9207C126.339 12.8289 126.418 12.7847 126.414 12.8223C126.411 12.8599 126.904 12.5317 127.51 12.0931C128.117 11.6544 128.928 11.1135 129.313 10.8912C130.298 10.3219 132.125 9.19164 132.131 9.14726C132.143 9.06728 131.596 9.30655 131.282 9.51893C131.1 9.64227 130.602 9.8884 130.175 10.0659C128.938 10.58 128.594 10.8026 127.85 11.5688C127.163 12.277 126.406 12.9038 126.428 12.7459C126.434 12.7011 126.566 12.5746 126.72 12.4646C126.874 12.3547 127.257 12.0072 127.571 11.6926C127.885 11.378 128.311 10.9856 128.517 10.8206L128.892 10.5205L128.385 10.6633C128.106 10.7419 127.679 10.8844 127.436 10.98C127.193 11.0756 126.974 11.1347 126.95 11.1114C126.926 11.088 126.921 11.0958 126.939 11.1287C126.958 11.1616 126.888 11.2564 126.785 11.3396C126.632 11.4629 126.254 12.3557 126.073 13.0198C126.063 13.0569 126.137 13.0123 126.238 12.9207ZM125.97 16.8832C126.013 16.8918 126 16.8563 125.94 16.8045C125.881 16.7526 125.778 16.7045 125.712 16.6977C125.585 16.6846 125.82 16.8536 125.97 16.8832ZM125.59 19.7603C125.714 19.8784 125.836 20.02 125.86 20.075C125.884 20.13 125.802 20.0783 125.678 19.9602C125.553 19.842 125.432 19.7004 125.408 19.6455C125.384 19.5905 125.466 19.6422 125.59 19.7603ZM126.748 10.8621C126.779 10.7875 126.834 10.7512 126.871 10.7817C126.907 10.8121 126.924 10.7779 126.907 10.7056C126.875 10.5675 127.175 10.1618 127.243 10.2517C127.264 10.2803 127.342 10.2485 127.415 10.181C127.495 10.1069 127.517 10.1024 127.471 10.1698C127.428 10.2311 127.585 10.1247 127.819 9.93335C128.571 9.31716 129.115 8.412 129.288 7.4862C129.376 7.01413 129.276 6.8035 129.088 7.06563C129.019 7.16162 128.715 7.4989 128.412 7.8151C127.687 8.57236 127.137 9.38714 126.852 10.1234C126.775 10.3237 126.674 11.0412 126.748 10.8621ZM127.101 10.571C127.177 10.4946 127.244 10.3939 127.249 10.3472C127.254 10.3004 127.196 10.3246 127.119 10.4009C127.043 10.4773 126.976 10.578 126.971 10.6247C126.966 10.6715 127.024 10.6473 127.101 10.571ZM127.902 10.6805C128.364 10.5444 128.802 10.4409 128.876 10.4505C128.99 10.4655 130.312 9.9322 130.525 9.78494C130.566 9.75669 130.514 9.734 130.41 9.73444C129.438 9.73873 128.999 9.77701 128.45 9.90506C127.878 10.0386 127.77 10.0972 127.415 10.4623C127.197 10.6867 127.028 10.8833 127.04 10.8991C127.052 10.915 127.44 10.8165 127.902 10.6805ZM127.168 14.42C127.392 14.5763 127.769 14.7555 128.006 14.8183C128.243 14.8811 128.789 15.0253 129.22 15.1389C130.665 15.5193 132.506 16.0278 132.662 16.089C132.801 16.1439 132.804 16.1396 132.688 16.0422C132.459 15.8485 129.541 14.7859 128.302 14.4451C127.635 14.2617 126.986 14.078 126.859 14.037C126.555 13.9388 126.653 14.0605 127.168 14.42ZM126.775 21.8631L127.208 21.963L126.867 21.7571C126.529 21.5524 126.244 21.4631 125.859 21.4409C125.553 21.4231 126.238 21.739 126.775 21.8631ZM127.206 12.5932C127.321 12.5118 127.44 12.4489 127.471 12.4532C127.502 12.4576 127.673 12.3912 127.852 12.3058C128.031 12.2203 128.489 12.0845 128.87 12.0041C130.389 11.6839 130.989 11.3154 131.656 10.293C131.891 9.93213 132.128 9.53779 132.182 9.41654C132.279 9.20203 132.277 9.19929 132.107 9.31492C132.011 9.38018 131.95 9.47361 131.971 9.52237C131.993 9.5712 131.975 9.58165 131.932 9.54565C131.889 9.50963 131.67 9.59906 131.446 9.74441C131.222 9.88975 130.691 10.2077 130.265 10.451C128.833 11.2684 127.032 12.4908 127.008 12.6607C127.002 12.7049 127.091 12.6745 127.206 12.5932ZM130.186 14.9103C130.718 15.1022 131.272 15.3106 131.417 15.3736C131.562 15.4367 131.695 15.4769 131.714 15.4631C131.759 15.4286 130.576 14.8814 130.058 14.697C129.512 14.5028 127.671 14.0299 127.309 13.9906C127.155 13.974 127.522 14.0956 128.125 14.261C128.727 14.4264 129.655 14.7186 130.186 14.9103ZM128.15 9.87846C128.393 9.73527 129.343 9.61451 130.091 9.63155C130.671 9.64478 130.931 9.61451 131.064 9.51866C131.243 9.38894 131.241 9.38757 130.841 9.37311C130.618 9.36513 130.182 9.34396 129.872 9.32611C129.024 9.27726 128.692 9.34229 128.352 9.6242C128.042 9.88046 127.951 9.99538 128.15 9.87846ZM130.818 17.0881C131.74 17.1294 132.438 17.0792 132.923 16.9369L133.204 16.8545L132.92 16.8527C132.764 16.8518 131.899 16.7635 130.998 16.6566C129.472 16.4754 127.589 16.4247 127.194 16.5542C126.986 16.6225 129.853 17.0449 130.818 17.0881ZM128.085 16.3236C128.467 16.2915 129.366 16.3532 130.815 16.511C132.744 16.721 133.875 16.7592 134.059 16.6204C134.139 16.5594 131.475 16.093 130.641 16.0222C130.199 15.9846 129.571 15.9735 129.245 15.9975C128.698 16.038 127.451 16.2861 127.496 16.3457C127.506 16.3599 127.772 16.35 128.085 16.3236ZM128.992 7.39289C129.199 7.00533 129.273 7.01695 129.077 7.4063C128.979 7.60155 128.884 7.75918 128.866 7.75667C128.817 7.74985 128.849 7.65972 128.992 7.39289ZM129.601 6.01092C129.684 5.8353 129.853 5.56561 129.978 5.41164L130.204 5.13166L129.962 5.29693C129.713 5.46673 129.532 5.77891 129.48 6.13057C129.459 6.2725 129.494 6.23788 129.601 6.01092ZM128.661 18.8381C128.655 18.8853 128.582 18.8444 128.499 18.7473C128.388 18.6172 128.416 18.7619 128.605 19.2994C128.798 19.8507 129.001 20.2166 129.44 20.8034C129.759 21.23 130.007 21.6073 129.991 21.642C129.975 21.6768 130.002 21.6872 130.052 21.6651C130.102 21.6431 130.345 21.8184 130.593 22.0545C130.959 22.4025 131.861 23.0207 132.041 23.046C132.093 23.0534 131.859 22.7658 131.663 22.5822C131.242 22.1878 130.456 21.1583 130.012 20.419C129.737 19.9615 129.337 19.38 129.123 19.1265C128.909 18.8732 128.771 18.671 128.815 18.6773C128.975 18.6998 129.483 19.3603 130.069 20.3083C130.858 21.5859 131.969 22.9008 132.216 22.8505C132.417 22.8093 131.876 21.8013 131.059 20.6931C130.328 19.7036 130.14 19.5034 129.542 19.0776C129.167 18.8102 128.821 18.6084 128.775 18.629C128.728 18.6496 128.599 18.5931 128.487 18.5035L128.284 18.3406L128.479 18.5465C128.586 18.6598 128.668 18.791 128.661 18.8381ZM128.798 21.0861C129.303 21.265 129.444 21.2646 129.119 21.0854C128.727 20.8689 128.304 20.7346 128.322 20.8323C128.331 20.8824 128.545 20.9966 128.798 21.0861ZM129.117 21.5433L129.687 21.6337L129.35 21.4452C129.165 21.3416 128.883 21.2175 128.725 21.1695C128.451 21.0866 128.439 21.0915 128.491 21.2676C128.54 21.4313 128.613 21.4634 129.117 21.5433ZM129.297 18.6497C129.425 18.6658 129.419 18.6518 129.266 18.5777C129.006 18.4518 128.797 18.4223 128.988 18.5385C129.07 18.5886 129.209 18.6387 129.297 18.6497ZM129.119 22.1008C129.305 22.0956 129.59 22.0647 129.753 22.0323L130.05 21.9733L129.64 21.8225C129.415 21.7395 129.088 21.6516 128.914 21.627L128.597 21.5824L128.69 21.8464C128.777 22.0952 128.801 22.1097 129.119 22.1008ZM130.105 13.8586C130.172 13.842 130.156 13.8204 130.064 13.8035C129.98 13.7882 129.931 13.8005 129.954 13.8308C129.976 13.861 130.045 13.8736 130.105 13.8586ZM130.577 14.0049C130.635 13.9905 130.593 13.966 130.483 13.9506C130.374 13.9351 130.327 13.947 130.378 13.9768C130.43 14.0068 130.52 14.0194 130.577 14.0049ZM131.606 19.1841L132.145 19.1935L131.595 19.0617C131.292 18.9893 130.83 18.8995 130.567 18.8621L130.089 18.7942L130.578 18.9846C130.934 19.1234 131.212 19.1773 131.606 19.1841ZM131.96 10.5174C132.665 10.4766 133.114 10.367 133.668 10.0999L134.273 9.80875L133.827 9.79838C133.582 9.79274 133.095 9.78711 132.744 9.78597L132.106 9.78376L131.911 10.0923C131.648 10.507 131.652 10.5353 131.96 10.5174ZM132.642 19.1268C133.62 19.2774 134.344 19.2589 135.536 19.0529L136.327 18.9163L135.335 18.8219C134.416 18.7346 132.98 18.7021 131.398 18.7328L130.746 18.7454L131.257 18.8688C131.538 18.9366 132.161 19.0527 132.642 19.1268ZM133.379 9.66156C134.496 9.65667 134.521 9.65259 134.065 9.54916C133.608 9.44528 132.719 9.38747 132.403 9.44113C132.318 9.4556 132.243 9.51222 132.235 9.567C132.224 9.64345 132.49 9.66544 133.379 9.66156ZM131.965 19.6095C132.964 19.9257 133.501 20.0479 135.154 20.3344C135.845 20.4543 136.043 20.4689 135.877 20.388C135.752 20.3267 135.378 20.1246 135.047 19.9388C134.491 19.6273 134.367 19.5897 133.449 19.4565C132.531 19.3234 130.739 19.1898 130.916 19.2679C130.958 19.2864 131.43 19.4402 131.965 19.6095ZM132.633 13.194C133.067 13.0766 133.779 12.8762 134.216 12.7487C135.34 12.4204 136.519 12.2725 137.655 12.3173C138.733 12.3597 138.662 12.2617 137.483 12.0789C136.048 11.8565 134.674 12.1067 132.875 12.9177C132.453 13.1078 132.034 13.2759 131.943 13.2913C131.853 13.3068 131.793 13.3393 131.811 13.3634C131.829 13.3877 132.199 13.3114 132.633 13.194ZM132.601 13.7047C133.838 13.6726 134.66 13.5636 135.404 13.3332C136.234 13.076 137.353 12.5841 137.292 12.5032C137.101 12.2482 135.202 12.5318 133.449 13.077C133.099 13.186 132.622 13.3259 132.39 13.3878C132.084 13.4695 132.035 13.4994 132.212 13.4967C132.347 13.4947 132.529 13.4761 132.617 13.4554C132.725 13.4301 132.756 13.4442 132.712 13.4981C132.675 13.5424 132.442 13.5951 132.194 13.6153C131.477 13.6735 131.723 13.7275 132.601 13.7047ZM131.859 14.1416C131.949 14.0736 131.941 14.0632 131.821 14.0905C131.738 14.1095 131.688 14.148 131.709 14.1761C131.73 14.2042 131.798 14.1887 131.859 14.1416ZM132.611 14.2835C132.728 14.1956 132.558 14.1331 132.266 14.1558L131.954 14.1801L132.257 14.2513C132.424 14.2905 132.583 14.305 132.611 14.2835ZM132.315 20.2634C132.848 20.4998 133.197 20.5992 133.779 20.6813C134.495 20.7821 135.764 20.7799 136.027 20.6774C136.091 20.6523 135.453 20.5124 134.609 20.3666C133.58 20.1887 132.795 20.0067 132.225 19.8143C131.177 19.46 131.16 19.4582 131.412 19.7314C131.524 19.8535 131.931 20.0929 132.315 20.2634ZM133.765 15.0957C135.087 15.5759 135.722 15.8458 136.762 16.3691C137.705 16.8437 137.857 16.9072 137.61 16.7236C137.529 16.6636 137.249 16.4434 136.988 16.2343C136.213 15.6139 135.582 15.3146 134.289 14.9544C133.641 14.7738 132.915 14.5814 132.677 14.5269L132.244 14.4278L132.535 14.5913C132.695 14.6812 133.249 14.9083 133.765 15.0957ZM132.407 14.7794C132.45 14.7855 132.734 14.953 133.038 15.1516C133.945 15.7451 136.016 16.669 136.83 16.8432C137.215 16.9258 137.534 16.9715 137.538 16.9448C137.553 16.8388 135.15 15.7359 134.058 15.3475C133.42 15.1208 132.754 14.8599 132.577 14.7675C132.399 14.6753 132.271 14.6377 132.291 14.6841C132.312 14.7305 132.364 14.7733 132.407 14.7794ZM132.038 18.6161C132.105 18.5995 132.089 18.5779 131.997 18.561C131.913 18.5458 131.864 18.558 131.887 18.5883C131.909 18.6186 131.978 18.6311 132.038 18.6161ZM133.531 18.6071C134.24 18.6175 135.18 18.6725 135.62 18.7293C136.262 18.8123 136.359 18.8107 136.111 18.7216C135.681 18.5671 134.819 18.4489 133.966 18.4272C133.261 18.4093 132.168 18.4892 132.218 18.555C132.231 18.5733 132.823 18.5966 133.531 18.6071ZM135.528 15.0536C136.547 15.5147 138.251 15.737 140.316 15.6782C140.742 15.6661 141.326 15.6664 141.615 15.679C142.269 15.7073 135.657 14.6934 134.02 14.5142L132.819 14.3829L133.887 14.5885C134.617 14.7292 135.136 14.8763 135.528 15.0536ZM134.659 14.4231C134.937 14.4463 134.734 14.4045 134.208 14.3303C133.682 14.2561 133.455 14.2371 133.703 14.2882C133.951 14.3393 134.381 14.4 134.659 14.4231ZM134.694 14.9227L134.933 14.9528L134.703 14.8581C134.576 14.806 134.311 14.741 134.114 14.7134L133.755 14.6635L134.105 14.7781C134.297 14.841 134.562 14.9062 134.694 14.9227ZM135.294 14.264C136.81 14.4198 137.919 14.4098 138.955 14.2309C139.379 14.1577 139.799 14.1081 139.889 14.1207C139.979 14.1334 140.038 14.1113 140.021 14.0717C139.968 13.952 138.404 13.8203 137.363 13.848C135.581 13.8954 134.658 13.9763 134.818 14.0713C134.935 14.1415 134.918 14.1503 134.725 14.1173C134.293 14.0434 134.047 14.0311 134.039 14.0831C134.035 14.1114 134.6 14.1927 135.294 14.264ZM135.348 13.8169C135.523 13.7961 136.218 13.7563 136.892 13.7284C137.908 13.6865 138.353 13.7102 139.499 13.8671C140.801 14.0457 140.861 14.0472 140.551 13.8949C140.072 13.66 138.404 13.4366 137.534 13.4909C136.648 13.5462 134.96 13.7618 135 13.8146C135.016 13.8367 135.173 13.8377 135.348 13.8169ZM135.137 15.0565C135.204 15.04 135.188 15.0184 135.095 15.0015C135.012 14.9862 134.962 14.9984 134.985 15.0287C135.008 15.059 135.076 15.0716 135.137 15.0565ZM142.269 15.5443C142.343 15.5206 141.07 15.0766 140.347 14.8738C139.146 14.5369 138.488 14.4649 136.986 14.5054L135.641 14.5417L138.941 15.0474C140.756 15.3255 142.254 15.5491 142.269 15.5443ZM137.697 12.4795C137.754 12.4651 137.712 12.4406 137.603 12.4252C137.493 12.4098 137.446 12.4216 137.497 12.4515C137.549 12.4814 137.639 12.4941 137.697 12.4795ZM140.577 15.5447C140.775 15.5724 140.853 15.5994 140.752 15.6046C140.651 15.6098 140.489 15.5871 140.393 15.5541C140.297 15.5211 140.38 15.5169 140.577 15.5447Z" fill="#3C3F59"/>
<path d="M39.3064 33.3159V33.4204C39.3064 33.6526 39.3417 33.8732 39.4123 34.0821C39.4829 34.2911 39.5856 34.4737 39.7203 34.6299C39.8508 34.7882 40.0124 34.9138 40.2049 35.0067C40.3975 35.0975 40.6157 35.1429 40.8596 35.1429C41.1013 35.1429 41.3174 35.0964 41.5078 35.0035C41.6982 34.9107 41.8598 34.7861 41.9924 34.6299C42.125 34.4716 42.2256 34.289 42.2941 34.0821C42.3647 33.8732 42.401 33.6526 42.4032 33.4204V33.3159C42.401 33.0837 42.3647 32.8631 42.2941 32.6541C42.2234 32.4452 42.1229 32.2615 41.9924 32.1032C41.8576 31.947 41.6939 31.8225 41.5014 31.7296C41.311 31.6367 41.0949 31.5903 40.8532 31.5903C40.6093 31.5903 40.3921 31.6367 40.2017 31.7296C40.0113 31.8225 39.8498 31.9481 39.7171 32.1064C39.5845 32.2626 39.4829 32.4452 39.4123 32.6541C39.3417 32.8631 39.3064 33.0837 39.3064 33.3159ZM39.6883 33.4204V33.3159C39.6883 33.1365 39.7139 32.9623 39.7653 32.7935C39.8166 32.6246 39.8915 32.4758 39.9899 32.347C40.0883 32.2161 40.2092 32.1117 40.3525 32.0336C40.4959 31.9554 40.6628 31.9164 40.8532 31.9164C41.0414 31.9164 41.2072 31.9554 41.3506 32.0336C41.4961 32.1117 41.6191 32.2161 41.7196 32.347C41.8159 32.4758 41.8897 32.6246 41.9411 32.7935C41.9924 32.9623 42.0191 33.1365 42.0213 33.3159V33.4204C42.0191 33.6019 41.9924 33.7771 41.9411 33.946C41.8918 34.1128 41.8191 34.2616 41.7228 34.3925C41.6223 34.5233 41.5003 34.6278 41.357 34.7059C41.2136 34.7819 41.0478 34.8199 40.8596 34.8199C40.6692 34.8199 40.5012 34.7819 40.3557 34.7059C40.2103 34.6278 40.0883 34.5233 39.9899 34.3925C39.8915 34.2637 39.8166 34.1149 39.7653 33.946C39.7139 33.7771 39.6883 33.6019 39.6883 33.4204Z" fill="#3D405B"/>
<path d="M43.4493 35.0795H43.8344V32.7396C43.8708 32.6299 43.9221 32.5264 43.9885 32.4293C44.0548 32.3301 44.1329 32.2446 44.2227 32.1729C44.319 32.0969 44.426 32.0367 44.5436 31.9924C44.6613 31.946 44.7865 31.9227 44.9191 31.9227C45.071 31.9206 45.2015 31.9407 45.3106 31.9829C45.4219 32.0251 45.5149 32.0874 45.5898 32.1697C45.6626 32.252 45.716 32.3534 45.7503 32.4737C45.7866 32.594 45.8059 32.7322 45.808 32.8884V35.0795H46.1899V32.8821C46.1899 32.6774 46.1642 32.4948 46.1129 32.3344C46.0616 32.1739 45.9856 32.0378 45.8851 31.9259C45.7866 31.8161 45.6636 31.7327 45.516 31.6758C45.3705 31.6188 45.2026 31.5903 45.0122 31.5903C44.8688 31.5903 44.733 31.6114 44.6046 31.6536C44.4784 31.6958 44.3629 31.7528 44.258 31.8246C44.1682 31.8858 44.0869 31.9586 44.0141 32.043C43.9414 32.1275 43.8783 32.2193 43.8248 32.3185L43.8023 31.6536H43.4493V35.0795Z" fill="#3D405B"/>
<path d="M47.4864 30.2161V30.5549H48.7219V34.7407H47.4864V35.0795H50.2783V34.7407H49.1038V30.2161H47.4864Z" fill="#3D405B"/>
<path d="M51.4336 31.6536V31.9924H52.6627V34.7407H51.4336V35.0795H54.2255V34.7407H53.0446V31.6536H51.4336ZM52.5504 30.7164C52.5504 30.7924 52.5728 30.8578 52.6178 30.9127C52.6627 30.9676 52.7365 30.995 52.8392 30.995C52.9398 30.995 53.0136 30.9676 53.0606 30.9127C53.1077 30.8578 53.1312 30.7924 53.1312 30.7164C53.1312 30.6741 53.1248 30.6351 53.112 30.5992C53.0991 30.5633 53.0799 30.5327 53.0542 30.5074C53.0328 30.4821 53.0039 30.4631 52.9676 30.4504C52.9312 30.4356 52.8884 30.4282 52.8392 30.4282C52.79 30.4282 52.7472 30.4356 52.7108 30.4504C52.6745 30.4631 52.6445 30.4821 52.621 30.5074C52.5953 30.5348 52.5771 30.5665 52.5664 30.6024C52.5557 30.6383 52.5504 30.6763 52.5504 30.7164Z" fill="#3D405B"/>
<path d="M55.291 35.0795H55.6761V32.7396C55.7124 32.6299 55.7638 32.5264 55.8301 32.4293C55.8964 32.3301 55.9745 32.2446 56.0644 32.1729C56.1606 32.0969 56.2676 32.0367 56.3853 31.9924C56.5029 31.946 56.6281 31.9227 56.7607 31.9227C56.9126 31.9206 57.0431 31.9407 57.1523 31.9829C57.2635 32.0251 57.3566 32.0874 57.4314 32.1697C57.5042 32.252 57.5577 32.3534 57.5919 32.4737C57.6283 32.594 57.6475 32.7322 57.6497 32.8884V35.0795H58.0316V32.8821C58.0316 32.6774 58.0059 32.4948 57.9545 32.3344C57.9032 32.1739 57.8272 32.0378 57.7267 31.9259C57.6283 31.8161 57.5053 31.7327 57.3576 31.6758C57.2122 31.6188 57.0442 31.5903 56.8538 31.5903C56.7105 31.5903 56.5746 31.6114 56.4463 31.6536C56.32 31.6958 56.2045 31.7528 56.0997 31.8246C56.0098 31.8858 55.9285 31.9586 55.8558 32.043C55.783 32.1275 55.7199 32.2193 55.6664 32.3185L55.644 31.6536H55.291V35.0795Z" fill="#3D405B"/>
<path d="M60.7208 35.1429C61.0096 35.1429 61.2631 35.0869 61.4814 34.9751C61.6996 34.8632 61.8739 34.7165 62.0044 34.5349L61.7638 34.3545C61.6397 34.5064 61.491 34.6225 61.3177 34.7028C61.1444 34.783 60.9508 34.822 60.7368 34.8199C60.5507 34.8199 60.3806 34.784 60.2266 34.7122C60.0747 34.6384 59.9453 34.5402 59.8383 34.4178C59.7292 34.2975 59.6447 34.1592 59.5848 34.003C59.5249 33.8468 59.4906 33.6779 59.4821 33.4964V33.3919H62.0815V33.1608C62.0793 32.9433 62.0472 32.7396 61.9852 32.5497C61.9231 32.3576 61.8312 32.1898 61.7092 32.0462C61.5873 31.9048 61.4375 31.794 61.2599 31.7137C61.0824 31.6314 60.8791 31.5903 60.6502 31.5903C60.432 31.5903 60.2287 31.6356 60.0405 31.7264C59.8522 31.8151 59.6896 31.9364 59.5527 32.0905C59.4115 32.2467 59.3002 32.4315 59.2189 32.6447C59.1398 32.8557 59.1002 33.0827 59.1002 33.3254V33.4616C59.1002 33.6916 59.1398 33.9091 59.2189 34.1138C59.2981 34.3165 59.4093 34.4948 59.5527 34.6489C59.6939 34.8009 59.864 34.9212 60.0629 35.0099C60.2619 35.0985 60.4812 35.1429 60.7208 35.1429ZM60.6502 31.9164C60.8149 31.9164 60.9615 31.9481 61.0898 32.0114C61.2182 32.0726 61.3273 32.1549 61.4172 32.2584C61.5049 32.3618 61.5734 32.4821 61.6226 32.6193C61.6739 32.7565 61.6996 32.8948 61.6996 33.0341V33.0689H59.4981C59.5217 32.9043 59.5655 32.7512 59.6297 32.6098C59.6939 32.4684 59.7752 32.346 59.8736 32.2425C59.972 32.1412 60.0865 32.062 60.217 32.005C60.3475 31.9459 60.4919 31.9164 60.6502 31.9164Z" fill="#3D405B"/>
<path d="M69.4303 31.5903C69.1158 31.5882 68.842 31.6536 68.6088 31.7866C68.3756 31.9174 68.1916 32.1 68.0568 32.3344V32.1824L68.0344 31.6536H67.6685V35.0795H68.0632L68.06 32.8884C68.1028 32.7301 68.1638 32.594 68.243 32.48C68.3243 32.3639 68.4195 32.2679 68.5286 32.1919C68.642 32.1138 68.7693 32.0568 68.9105 32.0209C69.0538 31.9829 69.2068 31.9639 69.3694 31.9639C69.4635 31.9639 69.5555 31.9692 69.6453 31.9797C69.7352 31.9903 69.824 32.0051 69.9117 32.024L69.9631 31.6568C69.8967 31.6356 69.8144 31.6198 69.716 31.6093C69.6197 31.5966 69.5245 31.5903 69.4303 31.5903Z" fill="#3D405B"/>
<path d="M72.5624 35.1429C72.8513 35.1429 73.1048 35.0869 73.323 34.9751C73.5412 34.8632 73.7156 34.7165 73.8461 34.5349L73.6054 34.3545C73.4813 34.5064 73.3326 34.6225 73.1593 34.7028C72.986 34.783 72.7924 34.822 72.5785 34.8199C72.3923 34.8199 72.2223 34.784 72.0682 34.7122C71.9163 34.6384 71.7869 34.5402 71.6799 34.4178C71.5708 34.2975 71.4863 34.1592 71.4264 34.003C71.3665 33.8468 71.3323 33.6779 71.3237 33.4964V33.3919H73.9231V33.1608C73.921 32.9433 73.8889 32.7396 73.8268 32.5497C73.7648 32.3576 73.6728 32.1898 73.5508 32.0462C73.4289 31.9048 73.2791 31.794 73.1016 31.7137C72.924 31.6314 72.7207 31.5903 72.4918 31.5903C72.2736 31.5903 72.0704 31.6356 71.8821 31.7264C71.6938 31.8151 71.5312 31.9364 71.3943 32.0905C71.2531 32.2467 71.1419 32.4315 71.0606 32.6447C70.9814 32.8557 70.9418 33.0827 70.9418 33.3254V33.4616C70.9418 33.6916 70.9814 33.9091 71.0606 34.1138C71.1397 34.3165 71.251 34.4948 71.3943 34.6489C71.5355 34.8009 71.7056 34.9212 71.9046 35.0099C72.1035 35.0985 72.3228 35.1429 72.5624 35.1429ZM72.4918 31.9164C72.6566 31.9164 72.8031 31.9481 72.9315 32.0114C73.0598 32.0726 73.169 32.1549 73.2588 32.2584C73.3465 32.3618 73.415 32.4821 73.4642 32.6193C73.5155 32.7565 73.5412 32.8948 73.5412 33.0341V33.0689H71.3398C71.3633 32.9043 71.4072 32.7512 71.4713 32.6098C71.5355 32.4684 71.6168 32.346 71.7152 32.2425C71.8136 32.1412 71.9281 32.062 72.0586 32.005C72.1891 31.9459 72.3335 31.9164 72.4918 31.9164Z" fill="#3D405B"/>
<path d="M77.4499 34.2056C77.4499 34.288 77.4317 34.3618 77.3954 34.4273C77.3611 34.4906 77.3119 34.5476 77.2477 34.5983C77.1493 34.6721 77.0327 34.7281 76.8979 34.7661C76.7632 34.802 76.6198 34.8199 76.4679 34.8199C76.3503 34.8199 76.2305 34.8093 76.1085 34.7882C75.9887 34.765 75.8796 34.726 75.7812 34.6711C75.6785 34.6183 75.5918 34.5465 75.5212 34.4558C75.4528 34.365 75.4121 34.2521 75.3993 34.117H75.0174C75.0238 34.2753 75.0645 34.4178 75.1394 34.5444C75.2164 34.6711 75.3212 34.7777 75.4538 34.8642C75.5822 34.9529 75.7341 35.0215 75.9095 35.07C76.085 35.1186 76.2711 35.1429 76.4679 35.1429C76.6476 35.1429 76.8252 35.1207 77.0006 35.0764C77.1761 35.032 77.3301 34.9634 77.4627 34.8706C77.5719 34.7946 77.6607 34.6985 77.7291 34.5824C77.7976 34.4663 77.8318 34.3344 77.8318 34.1866C77.8318 34.0304 77.7965 33.8974 77.7259 33.7877C77.6553 33.6758 77.559 33.5808 77.4371 33.5027C77.3151 33.4267 77.1739 33.3634 77.0135 33.3127C76.8552 33.26 76.6883 33.2156 76.5129 33.1797C76.3759 33.1523 76.2444 33.1217 76.1181 33.0879C75.9919 33.052 75.8839 33.0077 75.794 32.9549C75.7042 32.9043 75.6357 32.8431 75.5886 32.7713C75.5437 32.6974 75.5212 32.6109 75.5212 32.5117C75.5212 32.4125 75.5469 32.3259 75.5983 32.252C75.6517 32.176 75.7223 32.1138 75.8101 32.0652C75.8956 32.0145 75.993 31.9776 76.1021 31.9544C76.2133 31.9291 76.3278 31.9164 76.4455 31.9164C76.5695 31.9164 76.6894 31.9322 76.8049 31.9639C76.9226 31.9956 77.0274 32.0409 77.1194 32.1C77.2092 32.1591 77.282 32.232 77.3376 32.3185C77.3954 32.4051 77.4253 32.5032 77.4275 32.613H77.8125C77.8061 32.4504 77.7665 32.3059 77.6938 32.1792C77.6211 32.0526 77.5237 31.9449 77.4018 31.8562C77.2777 31.7697 77.1333 31.7043 76.9685 31.6599C76.806 31.6135 76.6316 31.5903 76.4455 31.5903C76.2786 31.5903 76.116 31.6114 75.9577 31.6536C75.8015 31.6958 75.6646 31.7549 75.5469 31.8309C75.4228 31.9132 75.3233 32.0124 75.2485 32.1285C75.1757 32.2446 75.1394 32.3766 75.1394 32.5243C75.1394 32.6805 75.1757 32.8135 75.2485 32.9233C75.3233 33.0309 75.4207 33.1196 75.5405 33.1893C75.6689 33.2631 75.8068 33.3233 75.9545 33.3697C76.1021 33.4162 76.2647 33.4573 76.4423 33.4932C76.5813 33.5228 76.7161 33.5587 76.8466 33.6009C76.9792 33.6431 77.0916 33.6938 77.1836 33.7529C77.267 33.8056 77.3323 33.87 77.3793 33.946C77.4264 34.0199 77.4499 34.1064 77.4499 34.2056Z" fill="#3D405B"/>
<path d="M80.2547 30.7765H79.8664V31.6536H78.9004V31.9671H79.8664V34.1138C79.8685 34.3017 79.8963 34.461 79.9498 34.5919C80.0054 34.7228 80.0814 34.8283 80.1777 34.9086C80.2739 34.9909 80.3873 35.05 80.5178 35.0859C80.6505 35.1239 80.7938 35.1429 80.9479 35.1429C81.0227 35.1429 81.0976 35.1408 81.1725 35.1365C81.2495 35.1323 81.3233 35.1239 81.3939 35.1112C81.4495 35.1028 81.502 35.0922 81.5512 35.0795C81.6025 35.0669 81.6474 35.051 81.6859 35.032L81.6282 34.7439C81.5961 34.7502 81.5576 34.7576 81.5127 34.7661C81.4699 34.7724 81.426 34.7787 81.3811 34.7851C81.3212 34.7914 81.2602 34.7977 81.1982 34.8041C81.1361 34.8083 81.0741 34.8104 81.012 34.8104C80.9072 34.8104 80.8088 34.7988 80.7168 34.7756C80.6248 34.7524 80.5446 34.7133 80.4761 34.6584C80.4076 34.6056 80.3542 34.5349 80.3157 34.4463C80.2771 34.3576 80.2568 34.2468 80.2547 34.1138V31.9671H81.5415V31.6536H80.2547V30.7765Z" fill="#3D405B"/>
<path d="M85.309 35.0795H85.7198L85.7166 35.0415C85.6866 34.936 85.661 34.8252 85.6396 34.7091C85.6203 34.593 85.6107 34.4769 85.6107 34.3608V32.7048C85.6086 32.5191 85.5722 32.3565 85.5016 32.2172C85.4331 32.0779 85.3401 31.9607 85.2224 31.8657C85.1026 31.775 84.9625 31.7064 84.802 31.6599C84.6415 31.6135 84.4693 31.5903 84.2853 31.5903C84.1013 31.5903 83.9281 31.6156 83.7655 31.6663C83.605 31.7169 83.4638 31.7866 83.3419 31.8752C83.2199 31.966 83.1226 32.0726 83.0498 32.195C82.9771 32.3175 82.9375 32.4515 82.9311 32.5971L83.3162 32.6003C83.3183 32.4927 83.3461 32.3966 83.3996 32.3122C83.4552 32.2256 83.5258 32.1528 83.6114 32.0937C83.6991 32.0346 83.7997 31.9892 83.9131 31.9576C84.0265 31.9259 84.1452 31.9101 84.2693 31.9101C84.4041 31.9101 84.5292 31.928 84.6447 31.9639C84.7624 31.9977 84.864 32.0473 84.9496 32.1127C85.0352 32.1781 85.1026 32.2605 85.1518 32.3597C85.201 32.4568 85.2267 32.5697 85.2288 32.6985V33.0848H84.4747C84.2586 33.0869 84.0521 33.108 83.8553 33.1481C83.6585 33.1861 83.4863 33.2473 83.3386 33.3317C83.1889 33.4204 83.0691 33.5333 82.9792 33.6705C82.8915 33.8077 82.8476 33.9745 82.8476 34.1708C82.8476 34.3186 82.8776 34.4526 82.9375 34.5729C82.9974 34.6911 83.0787 34.7925 83.1814 34.8769C83.2841 34.9613 83.406 35.0268 83.5472 35.0732C83.6884 35.1196 83.8393 35.1429 83.9997 35.1429C84.1281 35.1429 84.2511 35.1291 84.3688 35.1017C84.4886 35.0764 84.602 35.0384 84.7089 34.9877C84.8138 34.9392 84.91 34.8801 84.9978 34.8104C85.0876 34.7386 85.1657 34.6595 85.232 34.5729C85.2363 34.6616 85.2438 34.7492 85.2545 34.8357C85.2673 34.9223 85.2855 35.0035 85.309 35.0795ZM84.0414 34.8041C83.9302 34.8041 83.8243 34.7893 83.7237 34.7597C83.6253 34.7281 83.5397 34.6827 83.467 34.6236C83.3943 34.5666 83.3365 34.4969 83.2937 34.4146C83.2509 34.3323 83.2295 34.2394 83.2295 34.136C83.2295 34.0093 83.2573 33.9017 83.313 33.813C83.3707 33.7223 83.4488 33.6463 83.5472 33.585C83.6692 33.5091 83.8157 33.4563 83.9869 33.4267C84.158 33.3972 84.3388 33.3813 84.5292 33.3792H85.2288V34.1328C85.1796 34.2341 85.1154 34.326 85.0363 34.4083C84.9571 34.4906 84.8662 34.5613 84.7635 34.6204C84.6608 34.6795 84.5485 34.726 84.4265 34.7597C84.3046 34.7914 84.1762 34.8062 84.0414 34.8041Z" fill="#3D405B"/>
<path d="M89.221 35.0795H89.5772V31.6536H89.1921V34.0663C89.1621 34.1782 89.1172 34.2795 89.0573 34.3703C88.9995 34.4589 88.9279 34.5349 88.8423 34.5983C88.7503 34.6658 88.6433 34.7186 88.5214 34.7566C88.3994 34.7925 88.2636 34.8104 88.1138 34.8104C87.9705 34.8104 87.8453 34.7882 87.7383 34.7439C87.6335 34.6996 87.5469 34.6331 87.4784 34.5444C87.4078 34.4579 87.3554 34.3502 87.3212 34.2215C87.2869 34.0906 87.2687 33.9386 87.2666 33.7655V31.6536H86.8847V33.7592C86.8869 33.9808 86.9136 34.1771 86.9649 34.3481C87.0163 34.5191 87.0922 34.6626 87.1928 34.7787C87.2934 34.8969 87.4164 34.9877 87.5618 35.051C87.7095 35.1123 87.8795 35.1429 88.0721 35.1429C88.3331 35.1429 88.5588 35.0901 88.7492 34.9846C88.9396 34.8769 89.0915 34.7281 89.2049 34.5381L89.221 35.0795Z" fill="#3D405B"/>
<path d="M93.1136 31.5903C92.7991 31.5882 92.5253 31.6536 92.2921 31.7866C92.0589 31.9174 91.8749 32.1 91.7401 32.3344V32.1824L91.7176 31.6536H91.3518V35.0795H91.7465L91.7433 32.8884C91.7861 32.7301 91.8471 32.594 91.9262 32.48C92.0075 32.3639 92.1027 32.2679 92.2118 32.1919C92.3252 32.1138 92.4525 32.0568 92.5937 32.0209C92.7371 31.9829 92.89 31.9639 93.0526 31.9639C93.1468 31.9639 93.2388 31.9692 93.3286 31.9797C93.4185 31.9903 93.5073 32.0051 93.595 32.024L93.6463 31.6568C93.58 31.6356 93.4976 31.6198 93.3992 31.6093C93.3029 31.5966 93.2077 31.5903 93.1136 31.5903Z" fill="#3D405B"/>
<path d="M97.1507 35.0795H97.5614L97.5582 35.0415C97.5283 34.936 97.5026 34.8252 97.4812 34.7091C97.462 34.593 97.4523 34.4769 97.4523 34.3608V32.7048C97.4502 32.5191 97.4138 32.3565 97.3432 32.2172C97.2748 32.0779 97.1817 31.9607 97.064 31.8657C96.9442 31.775 96.8041 31.7064 96.6436 31.6599C96.4832 31.6135 96.311 31.5903 96.127 31.5903C95.943 31.5903 95.7697 31.6156 95.6071 31.6663C95.4466 31.7169 95.3054 31.7866 95.1835 31.8752C95.0615 31.966 94.9642 32.0726 94.8915 32.195C94.8187 32.3175 94.7791 32.4515 94.7727 32.5971L95.1578 32.6003C95.16 32.4927 95.1878 32.3966 95.2413 32.3122C95.2969 32.2256 95.3675 32.1528 95.4531 32.0937C95.5408 32.0346 95.6413 31.9892 95.7547 31.9576C95.8681 31.9259 95.9868 31.9101 96.1109 31.9101C96.2457 31.9101 96.3709 31.928 96.4864 31.9639C96.6041 31.9977 96.7057 32.0473 96.7913 32.1127C96.8768 32.1781 96.9442 32.2605 96.9934 32.3597C97.0426 32.4568 97.0683 32.5697 97.0704 32.6985V33.0848H96.3163C96.1002 33.0869 95.8938 33.108 95.6969 33.1481C95.5001 33.1861 95.3279 33.2473 95.1803 33.3317C95.0305 33.4204 94.9107 33.5333 94.8209 33.6705C94.7331 33.8077 94.6893 33.9745 94.6893 34.1708C94.6893 34.3186 94.7192 34.4526 94.7791 34.5729C94.839 34.6911 94.9203 34.7925 95.023 34.8769C95.1257 34.9613 95.2477 35.0268 95.3889 35.0732C95.5301 35.1196 95.6809 35.1429 95.8414 35.1429C95.9697 35.1429 96.0927 35.1291 96.2104 35.1017C96.3302 35.0764 96.4436 35.0384 96.5506 34.9877C96.6554 34.9392 96.7517 34.8801 96.8394 34.8104C96.9293 34.7386 97.0073 34.6595 97.0737 34.5729C97.0779 34.6616 97.0854 34.7492 97.0961 34.8357C97.109 34.9223 97.1271 35.0035 97.1507 35.0795ZM95.8831 34.8041C95.7718 34.8041 95.6659 34.7893 95.5654 34.7597C95.467 34.7281 95.3814 34.6827 95.3086 34.6236C95.2359 34.5666 95.1781 34.4969 95.1354 34.4146C95.0926 34.3323 95.0712 34.2394 95.0712 34.136C95.0712 34.0093 95.099 33.9017 95.1546 33.813C95.2124 33.7223 95.2905 33.6463 95.3889 33.585C95.5108 33.5091 95.6574 33.4563 95.8285 33.4267C95.9997 33.3972 96.1805 33.3813 96.3709 33.3792H97.0704V34.1328C97.0212 34.2341 96.9571 34.326 96.8779 34.4083C96.7988 34.4906 96.7078 34.5613 96.6051 34.6204C96.5024 34.6795 96.3901 34.726 96.2682 34.7597C96.1462 34.7914 96.0179 34.8062 95.8831 34.8041Z" fill="#3D405B"/>
<path d="M98.7103 35.0795H99.0954V32.7396C99.1318 32.6299 99.1831 32.5264 99.2494 32.4293C99.3158 32.3301 99.3939 32.2446 99.4837 32.1729C99.58 32.0969 99.687 32.0367 99.8046 31.9924C99.9223 31.946 100.047 31.9227 100.18 31.9227C100.332 31.9206 100.462 31.9407 100.572 31.9829C100.683 32.0251 100.776 32.0874 100.851 32.1697C100.924 32.252 100.977 32.3534 101.011 32.4737C101.048 32.594 101.067 32.7322 101.069 32.8884V35.0795H101.451V32.8821C101.451 32.6774 101.425 32.4948 101.374 32.3344C101.323 32.1739 101.247 32.0378 101.146 31.9259C101.048 31.8161 100.925 31.7327 100.777 31.6758C100.632 31.6188 100.464 31.5903 100.273 31.5903C100.13 31.5903 99.994 31.6114 99.8656 31.6536C99.7394 31.6958 99.6238 31.7528 99.519 31.8246C99.4292 31.8858 99.3479 31.9586 99.2751 32.043C99.2024 32.1275 99.1393 32.2193 99.0858 32.3185L99.0633 31.6536H98.7103V35.0795Z" fill="#3D405B"/>
<path d="M103.938 30.7765H103.55V31.6536H102.584V31.9671H103.55V34.1138C103.552 34.3017 103.58 34.461 103.633 34.5919C103.689 34.7228 103.765 34.8283 103.861 34.9086C103.957 34.9909 104.071 35.05 104.201 35.0859C104.334 35.1239 104.477 35.1429 104.631 35.1429C104.706 35.1429 104.781 35.1408 104.856 35.1365C104.933 35.1323 105.007 35.1239 105.077 35.1112C105.133 35.1028 105.185 35.0922 105.234 35.0795C105.286 35.0669 105.331 35.051 105.369 35.032L105.311 34.7439C105.279 34.7502 105.241 34.7576 105.196 34.7661C105.153 34.7724 105.109 34.7787 105.064 34.7851C105.004 34.7914 104.943 34.7977 104.881 34.8041C104.819 34.8083 104.757 34.8104 104.695 34.8104C104.59 34.8104 104.492 34.7988 104.4 34.7756C104.308 34.7524 104.228 34.7133 104.159 34.6584C104.091 34.6056 104.037 34.5349 103.999 34.4463C103.96 34.3576 103.94 34.2468 103.938 34.1138V31.9671H105.225V31.6536H103.938V30.7765Z" fill="#3D405B"/>
</svg>
