<svg width="20" height="21" viewBox="0 0 20 21" fill="none" xmlns="http://www.w3.org/2000/svg">
<g opacity="0.6">
<circle cx="10" cy="11.3334" r="2.5" stroke="#FF5100" stroke-width="1.5" stroke-linecap="round" stroke-linejoin="round"/>
<path d="M4.16667 5.58337C3.75245 5.58337 3.41667 5.91916 3.41667 6.33337C3.41667 6.74759 3.75245 7.08337 4.16667 7.08337V5.58337ZM10 4.58337C10.4142 4.58337 10.75 4.24759 10.75 3.83337C10.75 3.41916 10.4142 3.08337 10 3.08337V4.58337ZM18.25 9.66671C18.25 9.25249 17.9142 8.91671 17.5 8.91671C17.0858 8.91671 16.75 9.25249 16.75 9.66671H18.25ZM4.16667 7.08337C4.58088 7.08337 4.91667 6.74759 4.91667 6.33337C4.91667 5.91916 4.58088 5.58337 4.16667 5.58337V7.08337ZM4.16667 7.08337H5.83333V5.58337H4.16667V7.08337ZM5.83333 7.08337C7.16802 7.08337 8.25 6.0014 8.25 4.66671H6.75C6.75 5.17297 6.33959 5.58337 5.83333 5.58337V7.08337ZM8.25 4.66671C8.25 4.62068 8.28731 4.58337 8.33333 4.58337V3.08337C7.45888 3.08337 6.75 3.79226 6.75 4.66671H8.25ZM8.33333 4.58337H10V3.08337H8.33333V4.58337ZM16.75 9.66671V15.5H18.25V9.66671H16.75ZM16.75 15.5C16.75 16.0063 16.3396 16.4167 15.8333 16.4167V17.9167C17.168 17.9167 18.25 16.8347 18.25 15.5H16.75ZM15.8333 16.4167H4.16667V17.9167H15.8333V16.4167ZM4.16667 16.4167C3.66041 16.4167 3.25 16.0063 3.25 15.5H1.75C1.75 16.8347 2.83198 17.9167 4.16667 17.9167V16.4167ZM3.25 15.5V8.00004H1.75V15.5H3.25ZM3.25 8.00004C3.25 7.49378 3.66041 7.08337 4.16667 7.08337V5.58337C2.83198 5.58337 1.75 6.66535 1.75 8.00004H3.25Z" fill="#FF5100"/>
<path d="M12.5 5.50004H17.5" stroke="#FF5100" stroke-width="1.5" stroke-linecap="round" stroke-linejoin="round"/>
<path d="M15.0002 3V8" stroke="#FF5100" stroke-width="1.5" stroke-linecap="round" stroke-linejoin="round"/>
</g>
</svg>
