<svg width="19" height="13" viewBox="0 0 19 13" fill="none" xmlns="http://www.w3.org/2000/svg">
<path d="M18.5 0H0.5V13H18.5V0Z" fill="white"/>
<path d="M12.5518 4.70072L18.5 0.57763V0H18.0924L11.3075 4.70072H12.5518Z" fill="#BD0034"/>
<path d="M12.2729 8.55811L18.5 12.8737V12.0106L13.5173 8.55811H12.2729Z" fill="#BD0034"/>
<path d="M0.5 0.989346L5.82598 4.70079H7.07569L0.5 0.126221V0.989346Z" fill="#BD0034"/>
<path d="M6.79142 8.55811L0.5 12.9202V12.9999H1.63707L8.03576 8.55811H6.79142Z" fill="#BD0034"/>
<path d="M17.2717 0H10.9642V4.36874L17.2717 0Z" fill="#1A237B"/>
<path d="M8.18597 0H1.90527L8.18597 4.36874V0Z" fill="#1A237B"/>
<path d="M18.5 4.70083V1.71973L14.2253 4.70083H18.5Z" fill="#1A237B"/>
<path d="M18.5 11.506V8.55811H14.2253L18.5 11.506Z" fill="#1A237B"/>
<path d="M2.26459 12.9999H8.18592V8.89014L2.26459 12.9999Z" fill="#1A237B"/>
<path d="M10.9642 12.9999H16.907L10.9642 8.89014V12.9999Z" fill="#1A237B"/>
<path d="M0.5 8.55811V11.6454L4.92491 8.55811H0.5Z" fill="#1A237B"/>
<path d="M0.5 4.70062H4.92491L0.5 1.61328V4.70062Z" fill="#1A237B"/>
<path d="M8.73838 0V5.47089H0.5V7.78805H8.73838V13H10.4118V7.78805H18.5V5.47089H10.4118V0H8.73838Z" fill="#BD0034"/>
</svg>
