<svg width="40" height="40" viewBox="0 0 40 40" fill="none" xmlns="http://www.w3.org/2000/svg">
<g id="Star">
<path id="Star_2" d="M18.1534 4.43986C18.8365 2.79727 21.1635 2.79727 21.8466 4.43986L24.8209 11.5909C25.109 12.2834 25.7602 12.7565 26.5078 12.8165L34.2279 13.4354C36.0012 13.5776 36.7203 15.7906 35.3692 16.9479L29.4873 21.9864C28.9177 22.4743 28.6689 23.2399 28.843 23.9694L30.64 31.503C31.0528 33.2334 29.1703 34.6012 27.6521 33.6738L21.0425 29.6368C20.4025 29.2458 19.5975 29.2458 18.9575 29.6368L12.3479 33.6738C10.8297 34.6012 8.94724 33.2334 9.36001 31.503L11.157 23.9694C11.3311 23.2399 11.0823 22.4743 10.5127 21.9864L4.63078 16.9479C3.27971 15.7906 3.99876 13.5776 5.77207 13.4354L13.4922 12.8165C14.2398 12.7565 14.891 12.2834 15.1791 11.5909L18.1534 4.43986Z" fill="#FF5100"/>
</g>
</svg>
