<svg width="40" height="40" viewBox="0 0 40 40" fill="none" xmlns="http://www.w3.org/2000/svg">
<path d="M19.4724 4.98847C19.6676 4.51916 20.3324 4.51916 20.5276 4.98847L23.5019 12.1395C23.9956 13.3266 25.112 14.1377 26.3936 14.2405L34.1138 14.8594C34.6204 14.9 34.8259 15.5323 34.4398 15.863L28.5579 20.9015C27.5815 21.7379 27.1551 23.0503 27.4534 24.3009L29.2504 31.8345C29.3683 32.3289 28.8305 32.7196 28.3967 32.4547L21.7872 28.4176C20.69 27.7474 19.31 27.7474 18.2128 28.4176L11.6033 32.4547C11.1695 32.7197 10.6317 32.3289 10.7496 31.8345L12.5466 24.3009C12.8449 23.0503 12.4185 21.7379 11.4421 20.9015L5.56015 15.863C5.17413 15.5323 5.37957 14.9 5.88623 14.8594L13.6064 14.2405C14.888 14.1377 16.0044 13.3266 16.4981 12.1395L19.4724 4.98847Z" stroke="#E3E3E3" stroke-width="2.85714"/>
</svg>
